<?xml version="1.0" encoding="UTF-8"?>
<svg version="1.1" xmlns="http://www.w3.org/2000/svg" width="1024" height="1024">
<path d="M0 0 C337.92 0 675.84 0 1024 0 C1024 337.92 1024 675.84 1024 1024 C686.08 1024 348.16 1024 0 1024 C0 686.08 0 348.16 0 0 Z " fill="#FDFDFA" transform="translate(0,0)"/>
<path d="M0 0 C1.09864396 -0.00260775 2.19728791 -0.00521549 3.32922411 -0.00790226 C4.55127786 -0.00567154 5.77333161 -0.00344082 7.0324173 -0.0011425 C8.31888515 -0.00270249 9.605353 -0.00426248 10.93080473 -0.00586975 C14.51811927 -0.01006755 18.10540741 -0.00797036 21.69272208 -0.00488353 C25.5550656 -0.00263147 29.41740441 -0.00610807 33.27974701 -0.00886345 C40.85258836 -0.01332223 48.42541983 -0.0123442 55.99826157 -0.00945081 C62.15002341 -0.0071972 68.30178248 -0.00688407 74.45354462 -0.00797462 C75.32735919 -0.00812786 76.20117377 -0.00828109 77.10146758 -0.00843897 C78.87631532 -0.00875868 80.65116305 -0.00908289 82.42601079 -0.00941156 C99.08916609 -0.01226667 115.7523159 -0.00897885 132.4154703 -0.00361119 C146.72939842 0.00085687 161.04331843 0.00008095 175.3572464 -0.00452995 C191.95865719 -0.00987517 208.56006317 -0.01199197 225.1614747 -0.00891769 C226.92998409 -0.00859912 228.69849348 -0.00828475 230.46700287 -0.00797462 C231.3372619 -0.00782035 232.20752094 -0.00766607 233.10415146 -0.00750712 C239.25223323 -0.00664181 245.40031195 -0.00810515 251.54839325 -0.01045418 C259.03552267 -0.0132518 266.52264159 -0.01251473 274.0097698 -0.00717343 C277.83360966 -0.0045359 281.65743199 -0.00353223 285.48127174 -0.00682259 C289.61690664 -0.01032756 293.75249687 -0.00615743 297.88813019 -0.0011425 C299.72121082 -0.00448858 299.72121082 -0.00448858 301.59132338 -0.00790226 C303.23928931 -0.00399064 303.23928931 -0.00399064 304.92054749 0 C305.87652092 0.00016235 306.83249436 0.0003247 307.8174367 0.00049198 C309.96027374 0.12584114 309.96027374 0.12584114 310.96027374 1.12584114 C311.22915997 4.04454536 311.43769746 6.94695184 311.60871124 9.87193489 C311.72678131 11.74547084 311.84486456 13.61900596 311.96295929 15.49254036 C312.02365601 16.48348701 312.08435272 17.47443367 312.14688873 18.49540901 C313.19655254 35.58964242 314.42738032 52.65182234 316.04572296 69.70176888 C316.22578888 71.62484871 316.22578888 71.62484871 316.40949249 73.58677864 C316.51608185 74.68812141 316.6226712 75.78946419 316.73249054 76.92418098 C316.97569107 80.34254297 317.06555199 83.70018772 316.96027374 87.12584114 C315.96027374 88.12584114 315.96027374 88.12584114 313.89386749 88.22349739 C313.07015656 88.21189583 312.24644562 88.20029427 311.39777374 88.18834114 C310.15834015 88.17480598 310.15834015 88.17480598 308.89386749 88.16099739 C307.93673859 88.14359505 307.93673859 88.14359505 306.96027374 88.12584114 C306.76506134 87.48259895 306.56984894 86.83935677 306.36872101 86.17662239 C298.90706723 61.9116445 289.19924523 39.34415993 265.86652374 26.41099739 C254.65324762 20.95119985 242.9546473 18.09917573 230.47418976 17.92051888 C229.23343185 17.90057365 227.99267395 17.88062843 226.71431732 17.86007881 C225.38093943 17.84310131 224.04756029 17.82622226 222.71417999 17.80943489 C221.33412347 17.78883282 219.9540728 17.76783557 218.57402802 17.74646187 C214.96232626 17.69157672 211.35057078 17.64202119 207.73877716 17.59361458 C204.04498326 17.54315263 200.35126626 17.48759618 196.65753937 17.43248177 C189.42518284 17.32531142 182.19276184 17.22377725 174.96027374 17.12584114 C175.0192029 54.6132543 175.09378848 92.10060533 175.18926002 129.58794386 C175.20052767 134.01748682 175.21166621 138.44703008 175.22272491 142.87657356 C175.22603044 144.19929147 175.22603044 144.19929147 175.22940274 145.54873095 C175.2647385 159.81156334 175.28962362 174.07439568 175.31062076 188.33725556 C175.33241249 202.98118397 175.36549486 217.62505576 175.4089753 232.26893598 C175.43543399 241.29902773 175.45317191 250.32904899 175.45961978 259.35917757 C175.4648914 265.55835755 175.48116765 271.75744897 175.5059394 277.95658144 C175.51989387 281.5287801 175.52914804 285.10082043 175.52528191 288.67304802 C175.52120591 292.55722564 175.54038196 296.44110163 175.56154633 300.32522774 C175.55669875 301.43908149 175.55185117 302.55293525 175.5468567 303.70054215 C175.63156189 313.16814074 176.24475041 324.86581592 182.96027374 332.12584114 C191.32738361 339.28554528 203.25329458 341.40358673 213.94855499 341.95005989 C215.96027374 342.12584114 215.96027374 342.12584114 216.96027374 343.12584114 C216.96027374 346.42584114 216.96027374 349.72584114 216.96027374 353.12584114 C184.29027374 353.12584114 151.62027374 353.12584114 117.96027374 353.12584114 C121.26136554 386.13675912 129.10639067 414.7472097 149.02277374 441.56334114 C149.74630035 442.53883919 149.74630035 442.53883919 150.48444366 443.53404427 C153.57958963 447.5948257 156.91011642 451.17428822 160.63776398 454.66514778 C161.96027374 456.12584114 161.96027374 456.12584114 161.96027374 458.12584114 C162.52101593 458.36302864 163.08175812 458.60021614 163.65949249 458.84459114 C166.48258698 460.41670488 168.45370486 462.3744563 170.77277374 464.62584114 C196.64932272 488.70357949 233.46440245 500.28387695 268.33527374 500.31334114 C269.23785919 500.3141468 270.14044464 500.31495247 271.07038116 500.31578255 C277.08188875 500.2661872 282.99032049 499.82407659 288.96027374 499.12584114 C287.84652374 498.65146614 286.73277374 498.17709114 285.58527374 497.68834114 C270.37415203 490.04239678 263.10408603 476.557278 257.96027374 461.12584114 C256.46010324 440.92581806 259.54631443 422.94859797 272.83527374 407.12584114 C284.00328719 395.56672994 298.62141198 389.41779493 314.58527374 388.75084114 C330.34866134 389.07544114 344.27234944 394.89118717 355.67511749 405.71568489 C362.50333274 412.91740935 366.6311804 420.82778747 369.96027374 430.12584114 C370.20777374 430.78970833 370.45527374 431.45357552 370.71027374 432.13755989 C375.16189357 446.38892614 371.31347532 463.04112546 364.77277374 476.00084114 C353.87916313 494.71194726 336.25201202 504.64712495 315.85041046 510.07408333 C266.837615 522.26387889 211.97303749 514.77213348 168.23468781 489.49839973 C156.66686101 482.51747205 145.94890705 474.20611439 135.96027374 465.12584114 C135.03988312 464.28923958 134.11949249 463.45263802 133.17121124 462.59068489 C110.83404785 441.25129104 90.5329675 409.36614001 86.96027374 378.12584114 C86.37874542 378.26683235 85.7972171 378.40782356 85.19806671 378.55308723 C39.34517749 389.50718188 -9.60862116 388.68367139 -50.80754852 363.53282356 C-56.22079151 360.1216499 -61.20973928 356.32477454 -66.03972626 352.12584114 C-67.30236298 351.04496223 -67.30236298 351.04496223 -68.59050751 349.94224739 C-96.35328279 325.63402078 -109.01684657 291.82681855 -111.87419891 255.62144661 C-113.4038638 232.55915385 -111.30642394 208.84031445 -103.03972626 187.12584114 C-102.7885202 186.44408821 -102.53731415 185.76233528 -102.27849579 185.05992317 C-89.50398242 150.63210117 -64.01982327 123.51379298 -30.67205048 108.02623177 C-11.41754867 99.65928288 8.02567 95.75464505 28.98004913 95.86509895 C31.39103168 95.87581119 33.80126688 95.86514578 36.21222687 95.85240364 C45.65213852 95.8435224 54.6502144 96.43671618 63.96027374 98.12584114 C64.74249298 98.26651009 65.52471222 98.40717903 66.33063507 98.55211067 C81.63971664 101.52740612 96.13999168 106.88939101 109.96027374 114.06334114 C110.70067902 114.4457093 111.44108429 114.82807747 112.20392609 115.22203255 C118.6663722 118.70136866 123.87654944 122.70131438 129.96027374 127.12584114 C130.45527374 72.67584114 130.45527374 72.67584114 130.96027374 17.12584114 C120.75089874 17.22896614 110.54152374 17.33209114 100.02277374 17.43834114 C96.83629181 17.46323616 93.64980988 17.48813118 90.36676788 17.51378059 C63.37789849 17.71337351 63.37789849 17.71337351 37.96027374 26.12584114 C37.12367218 26.54478645 36.28707062 26.96373177 35.42511749 27.39537239 C15.35407762 38.4328539 4.32615526 58.02481723 -1.91472626 79.43834114 C-2.64018814 81.99670577 -3.34495666 84.55888266 -4.03972626 87.12584114 C-7.33972626 87.12584114 -10.63972626 87.12584114 -14.03972626 87.12584114 C-14.17387613 79.75645713 -13.67996589 72.67630655 -12.79753876 65.36412239 C-12.66910583 64.25642998 -12.54067291 63.14873756 -12.40834808 62.00747871 C-11.99918698 58.48377937 -11.5825768 54.96101976 -11.16472626 51.43834114 C-10.62144106 46.83075298 -10.0823595 42.22270071 -9.54753876 37.61412239 C-9.41655792 36.49055336 -9.28557709 35.36698433 -9.15062714 34.20936775 C-8.15178982 25.48689691 -7.3473857 16.75585748 -6.67964935 8.001894 C-6.60882141 7.10846794 -6.53799347 6.21504189 -6.46501923 5.29454231 C-6.40635681 4.51004204 -6.3476944 3.72554176 -6.28725433 2.91726875 C-5.76696831 -0.84818189 -3.28193078 0.00055737 0 0 Z " fill="#0D100F" transform="translate(330.0397262573242,248.87415885925293)"/>
<path d="M0 0 C16.90892463 13.02004329 28.22236822 29.75719256 34.96411133 49.98242188 C35.0580729 51.98605477 35.09204414 53.99270081 35.09350586 55.99853516 C35.09665802 57.23636749 35.09981018 58.47419983 35.10305786 59.74954224 C35.10126836 61.10060664 35.09921748 62.45167073 35.09692383 63.80273438 C35.09759734 65.18610654 35.09856777 66.56947858 35.099823 67.95285034 C35.10129674 70.84960051 35.09915513 73.74631982 35.09448242 76.64306641 C35.08877465 80.36351529 35.09207278 84.08389219 35.09805489 87.80433846 C35.10166013 90.65925646 35.10052227 93.51415726 35.09792709 96.36907578 C35.09725827 97.74146406 35.09808468 99.1138539 35.10040665 100.48624039 C35.10293368 102.39919252 35.09840215 104.31215012 35.09350586 106.22509766 C35.09271027 107.31525177 35.09191467 108.40540588 35.09109497 109.52859497 C34.96411133 111.98242188 34.96411133 111.98242188 33.96411133 112.98242188 C31.3481068 113.10749669 28.75719198 113.16847593 26.13964844 113.18774414 C25.32020248 113.19764374 24.50075653 113.20754333 23.65647888 113.21774292 C20.93483415 113.24945242 18.21317194 113.2741525 15.49145508 113.29882812 C13.60957879 113.31938951 11.72770721 113.34038575 9.84584045 113.36180115 C4.88267822 113.41710614 -0.08052628 113.46647811 -5.04376221 113.51464844 C-10.10432718 113.5648021 -15.16483048 113.62052011 -20.2253418 113.67578125 C-30.16213812 113.78346582 -40.0989879 113.88488777 -50.03588867 113.98242188 C-50.03588867 116.62242187 -50.03588867 119.26242187 -50.03588867 121.98242188 C-49.44163086 122.02729736 -48.84737305 122.07217285 -48.23510742 122.1184082 C-45.50093755 122.3318159 -42.76856886 122.56324605 -40.03588867 122.79492188 C-38.6340332 122.90030273 -38.6340332 122.90030273 -37.20385742 123.0078125 C-30.07384908 123.63106498 -23.70498411 124.49531022 -18.28588867 129.54492188 C-10.75099426 140.11474271 -11.50871396 151.21934779 -11.64526367 163.64648438 C-11.6527345 165.65000847 -11.65842345 167.65353993 -11.66241455 169.65707397 C-11.67760455 174.90147477 -11.71682857 180.14542448 -11.76123047 185.38964844 C-11.802327 190.75254212 -11.82045616 196.11550948 -11.84057617 201.47851562 C-11.88332975 211.98001466 -11.95149985 222.48118059 -12.03588867 232.98242188 C-14.22343137 233.9508554 -16.41376117 234.9119074 -18.60620117 235.86914062 C-19.21633057 236.14012573 -19.82645996 236.41111084 -20.45507812 236.69030762 C-41.40897273 245.79618052 -69.10927029 246.30898139 -90.39086914 238.07080078 C-101.44167351 233.53832162 -111.14170419 227.98070814 -120.03588867 219.98242188 C-120.57938965 219.49789551 -121.12289062 219.01336914 -121.68286133 218.51416016 C-141.42947857 200.61002647 -152.9682184 176.68332393 -158.28588867 150.79492188 C-158.44927734 149.99989258 -158.61266602 149.20486328 -158.78100586 148.38574219 C-161.14274406 136.09362502 -161.27511322 123.70452872 -161.28588867 111.23242188 C-161.28689575 110.41971832 -161.28790283 109.60701477 -161.28894043 108.76968384 C-161.27745432 95.00307476 -160.54824416 81.54860007 -158.03588867 67.98242188 C-157.89666992 67.22783691 -157.75745117 66.47325195 -157.61401367 65.69580078 C-153.59552866 45.09641406 -143.1556013 24.4685583 -129.03588867 8.98242188 C-128.3784668 8.25539063 -127.72104492 7.52835937 -127.04370117 6.77929688 C-94.22528258 -27.75253312 -37.00385147 -27.2168858 0 0 Z " fill="#FDFCF9" transform="translate(426.035888671875,377.017578125)"/>
<path d="M0 0 C2.41098254 0.01071223 4.82121775 0.00004683 7.23217773 -0.01269531 C16.67208939 -0.02157655 25.67016527 0.57161723 34.98022461 2.26074219 C36.15355347 2.47174561 36.15355347 2.47174561 37.35058594 2.68701172 C59.70368203 7.0313001 81.93372637 16.25035024 99.98022461 30.26074219 C97.98022461 32.26074219 97.98022461 32.26074219 95.41772461 33.63574219 C92.55882946 35.54167228 92.67389426 36.08968091 91.98022461 39.26074219 C89.98022461 40.94824219 89.98022461 40.94824219 87.98022461 42.26074219 C87.65022461 42.59074219 87.32022461 42.92074219 86.98022461 43.26074219 C87.16584961 43.87949219 87.35147461 44.49824219 87.54272461 45.13574219 C87.75928711 46.18761719 87.75928711 46.18761719 87.98022461 47.26074219 C87.32022461 48.25074219 86.66022461 49.24074219 85.98022461 50.26074219 C85.32022461 50.26074219 84.66022461 50.26074219 83.98022461 50.26074219 C82.60522461 48.82714844 82.60522461 48.82714844 80.98022461 46.82324219 C65.83815627 29.15749579 43.28390242 16.72504845 19.98022461 14.26074219 C4.70840024 13.24970007 -10.49255798 12.99850785 -25.01977539 18.26074219 C-26.58598633 18.80408203 -26.58598633 18.80408203 -28.18383789 19.35839844 C-55.17896777 29.64723993 -71.35267613 50.76172063 -83.01977539 76.26074219 C-91.51617667 96.29474201 -93.39835834 118.88672625 -93.28051758 140.43798828 C-93.26977567 142.76068186 -93.28051269 145.08260254 -93.29321289 147.40527344 C-93.30744136 161.55367175 -92.31482632 175.78778794 -88.95727539 189.57324219 C-88.7473999 190.4351416 -88.53752441 191.29704102 -88.32128906 192.18505859 C-82.94025148 212.91716223 -72.90857086 230.92162398 -58.01977539 246.26074219 C-57.47192383 246.87046875 -56.92407227 247.48019531 -56.35961914 248.10839844 C-41.84021927 263.76937274 -19.38976687 273.63086418 1.78881836 274.60058594 C19.36860073 275.0433981 34.59329496 272.61828339 50.98022461 266.26074219 C52.97651864 265.58305894 54.97546763 264.91296447 56.98022461 264.26074219 C56.92692993 263.25829468 56.92692993 263.25829468 56.87255859 262.2355957 C56.18335688 248.82320116 55.78329022 235.64799294 56.98022461 222.26074219 C58.85522461 221.19824219 58.85522461 221.19824219 60.98022461 220.26074219 C61.64022461 220.59074219 62.30022461 220.92074219 62.98022461 221.26074219 C64.97919372 220.94310566 64.97919372 220.94310566 67.10522461 220.32324219 C67.82967773 220.12859375 68.55413086 219.93394531 69.30053711 219.73339844 C70.13198242 219.49943359 70.13198242 219.49943359 70.98022461 219.26074219 C71.31022461 216.95074219 71.64022461 214.64074219 71.98022461 212.26074219 C73.63022461 211.93074219 75.28022461 211.60074219 76.98022461 211.26074219 C77.16584961 210.45636719 77.16584961 210.45636719 77.35522461 209.63574219 C77.56147461 208.85199219 77.76772461 208.06824219 77.98022461 207.26074219 C78.24834961 206.22949219 78.51647461 205.19824219 78.79272461 204.13574219 C79.98022461 201.26074219 79.98022461 201.26074219 81.91772461 199.88574219 C83.98022461 199.26074219 83.98022461 199.26074219 86.98022461 199.26074219 C86.98022461 195.96074219 86.98022461 192.66074219 86.98022461 189.26074219 C85.33022461 189.26074219 83.68022461 189.26074219 81.98022461 189.26074219 C81.98022461 188.93074219 81.98022461 188.60074219 81.98022461 188.26074219 C83.63022461 188.26074219 85.28022461 188.26074219 86.98022461 188.26074219 C86.98022461 183.64074219 86.98022461 179.02074219 86.98022461 174.26074219 C85.33022461 173.60074219 83.68022461 172.94074219 81.98022461 172.26074219 C82.31022461 171.60074219 82.64022461 170.94074219 82.98022461 170.26074219 C82.32022461 169.60074219 81.66022461 168.94074219 80.98022461 168.26074219 C82.11459961 167.80699219 83.24897461 167.35324219 84.41772461 166.88574219 C88.02744153 165.68978413 88.02744153 165.68978413 88.98022461 163.26074219 C89.64022461 163.26074219 90.30022461 163.26074219 90.98022461 163.26074219 C91.31022461 162.60074219 91.64022461 161.94074219 91.98022461 161.26074219 C98.21099384 158.26074219 98.21099384 158.26074219 101.98022461 158.26074219 C102.05019976 165.87645013 102.10327433 173.49212411 102.13566113 181.10808182 C102.15121705 184.64573902 102.17226698 188.18317385 102.20654297 191.72070312 C102.24583123 195.80177765 102.26001687 199.88262414 102.27319336 203.96386719 C102.28867722 205.21435852 102.30416107 206.46484985 102.32011414 207.75323486 C102.32209842 218.26467384 101.14601301 228.47916477 94.98022461 237.26074219 C93.00885975 239.00018177 91.31541988 240.09314455 88.98022461 241.26074219 C89.74334961 240.93074219 90.50647461 240.60074219 91.29272461 240.26074219 C93.98022461 239.26074219 93.98022461 239.26074219 96.98022461 239.26074219 C97.31022461 239.92074219 97.64022461 240.58074219 97.98022461 241.26074219 C98.64022461 241.59074219 99.30022461 241.92074219 99.98022461 242.26074219 C99.98022461 242.92074219 99.98022461 243.58074219 99.98022461 244.26074219 C98.66022461 244.26074219 97.34022461 244.26074219 95.98022461 244.26074219 C96.31022461 245.58074219 96.64022461 246.90074219 96.98022461 248.26074219 C95.31410556 248.30346319 93.64639576 248.30138051 91.98022461 248.26074219 C91.65022461 247.93074219 91.32022461 247.60074219 90.98022461 247.26074219 C90.65022461 249.24074219 90.32022461 251.22074219 89.98022461 253.26074219 C91.63022461 253.59074219 93.28022461 253.92074219 94.98022461 254.26074219 C92.98022461 256.26074219 92.98022461 256.26074219 90.35522461 256.38574219 C89.57147461 256.34449219 88.78772461 256.30324219 87.98022461 256.26074219 C87.98022461 258.57074219 87.98022461 260.88074219 87.98022461 263.26074219 C86.99022461 261.94074219 86.00022461 260.62074219 84.98022461 259.26074219 C85.64022461 258.93074219 86.30022461 258.60074219 86.98022461 258.26074219 C86.98022461 257.60074219 86.98022461 256.94074219 86.98022461 256.26074219 C86.32022461 255.93074219 85.66022461 255.60074219 84.98022461 255.26074219 C85.31022461 254.60074219 85.64022461 253.94074219 85.98022461 253.26074219 C85.65022461 252.27074219 85.32022461 251.28074219 84.98022461 250.26074219 C85.41772461 247.57324219 85.41772461 247.57324219 85.98022461 245.26074219 C84.99022461 245.26074219 84.00022461 245.26074219 82.98022461 245.26074219 C83.35522461 243.32324219 83.35522461 243.32324219 83.98022461 241.26074219 C84.64022461 240.93074219 85.30022461 240.60074219 85.98022461 240.26074219 C86.1899302 236.1198052 86.1899302 236.1198052 84.98022461 232.26074219 C85.64022461 232.26074219 86.30022461 232.26074219 86.98022461 232.26074219 C86.65022461 231.27074219 86.32022461 230.28074219 85.98022461 229.26074219 C86.31022461 228.27074219 86.64022461 227.28074219 86.98022461 226.26074219 C86.32022461 226.26074219 85.66022461 226.26074219 84.98022461 226.26074219 C84.65022461 226.92074219 84.32022461 227.58074219 83.98022461 228.26074219 C83.65022461 228.92074219 83.32022461 229.58074219 82.98022461 230.26074219 C80.98022461 230.92740885 78.98022461 231.59407552 76.98022461 232.26074219 C75.65793271 234.90532598 75.88345267 236.9383552 75.91772461 239.88574219 C75.92674805 240.88863281 75.93577148 241.89152344 75.94506836 242.92480469 C75.95666992 243.69566406 75.96827148 244.46652344 75.98022461 245.26074219 C73.98022461 246.26074219 73.98022461 246.26074219 70.98022461 247.26074219 C70.98022461 248.58074219 70.98022461 249.90074219 70.98022461 251.26074219 C69.99022461 251.26074219 69.00022461 251.26074219 67.98022461 251.26074219 C69.96022461 252.25074219 71.94022461 253.24074219 73.98022461 254.26074219 C73.98022461 254.92074219 73.98022461 255.58074219 73.98022461 256.26074219 C73.34084961 256.38449219 72.70147461 256.50824219 72.04272461 256.63574219 C71.36209961 256.84199219 70.68147461 257.04824219 69.98022461 257.26074219 C69.65022461 257.92074219 69.32022461 258.58074219 68.98022461 259.26074219 C68.65022461 259.92074219 68.32022461 260.58074219 67.98022461 261.26074219 C67.32022461 261.26074219 66.66022461 261.26074219 65.98022461 261.26074219 C65.65022461 262.25074219 65.32022461 263.24074219 64.98022461 264.26074219 C63.99022461 264.92074219 63.00022461 265.58074219 61.98022461 266.26074219 C61.13459961 267.10636719 60.28897461 267.95199219 59.41772461 268.82324219 C56.98022461 271.26074219 56.98022461 271.26074219 54.98022461 272.26074219 C54.98022461 272.92074219 54.98022461 273.58074219 54.98022461 274.26074219 C55.97022461 274.59074219 56.96022461 274.92074219 57.98022461 275.26074219 C57.32022461 276.58074219 56.66022461 277.90074219 55.98022461 279.26074219 C56.64022461 279.59074219 57.30022461 279.92074219 57.98022461 280.26074219 C57.98022461 280.92074219 57.98022461 281.58074219 57.98022461 282.26074219 C12.34567042 293.32481393 -36.44707993 293.33049113 -77.89477539 268.82324219 C-83.99884425 265.09687073 -89.6180056 260.95675311 -95.01977539 256.26074219 C-96.28241211 255.17986328 -96.28241211 255.17986328 -97.57055664 254.07714844 C-125.33333193 229.76892182 -137.99689571 195.9617196 -140.85424805 159.75634766 C-142.38391294 136.6940549 -140.28647308 112.97521549 -132.01977539 91.26074219 C-131.76856934 90.57898926 -131.51736328 89.89723633 -131.25854492 89.19482422 C-118.48403155 54.76700221 -92.9998724 27.64869403 -59.65209961 12.16113281 C-40.39759781 3.79418393 -20.95437914 -0.1104539 0 0 Z " fill="#0E1110" transform="translate(359.019775390625,344.7392578125)"/>
<path d="M0 0 C13.0211064 -0.023121 26.04220795 -0.04091384 39.06333065 -0.05181217 C45.10887817 -0.05704153 51.1544117 -0.06414014 57.19995117 -0.07543945 C63.02894288 -0.08626645 68.85792109 -0.09227643 74.68692207 -0.09487724 C76.9161761 -0.09673183 79.14542935 -0.10035308 81.37467766 -0.10573006 C84.48539734 -0.11293799 87.59606049 -0.11399105 90.70678711 -0.11352539 C91.63826569 -0.11712067 92.56974426 -0.12071594 93.52944946 -0.12442017 C99.88594784 -0.11405216 99.88594784 -0.11405216 101 1 C101.14115161 3.67058851 101.04247107 6.32432238 101 9 C99.81921875 9.18175781 98.6384375 9.36351562 97.421875 9.55078125 C95.86448627 9.80409146 94.30719977 10.05803077 92.75 10.3125 C91.97269531 10.43044922 91.19539062 10.54839844 90.39453125 10.66992188 C86.20450256 11.36825999 83.1750079 11.95301661 80 15 C80.47198959 20.65766474 81.56859941 25.02301667 84.25 30.0625 C84.59788574 30.73603516 84.94577148 31.40957031 85.30419922 32.10351562 C93.2537954 47.30197336 102.01833036 62.07397713 110.69116211 76.8659668 C114.94197139 84.13480944 119.08724966 91.45780601 123.1875 98.8125 C127.51055627 106.55956184 131.84005942 114.30196523 136.25 122 C136.7039917 122.80155518 137.1579834 123.60311035 137.62573242 124.42895508 C139.65251382 128.35183273 139.65251382 128.35183273 143 131 C143.30744141 129.84177734 143.30744141 129.84177734 143.62109375 128.66015625 C145.53912424 123.5689535 148.28316895 119.10262802 151.0625 114.4375 C151.67665771 113.39537354 152.29081543 112.35324707 152.92358398 111.27954102 C154.59569634 108.44261926 156.27230569 105.6084089 157.95019531 102.77490234 C176.49779698 71.81153875 176.49779698 71.81153875 193.625 40.0625 C193.93187744 39.4543042 194.23875488 38.8461084 194.55493164 38.21948242 C199.30730253 29.00141581 199.30730253 29.00141581 200 19 C195.59124975 12.68079131 188.83387414 11.72252045 181.68359375 10.375 C178.79288352 9.88354513 175.90132479 9.423733 173 9 C173 6.03 173 3.06 173 0 C202.04 0 231.08 0 261 0 C261 2.97 261 5.94 261 9 C259.22496094 9.43699219 259.22496094 9.43699219 257.4140625 9.8828125 C235.61069457 15.44845156 225.0600786 26.5943072 213 45 C212.15132589 46.27623072 211.30237388 47.55227668 210.453125 48.828125 C197.12398884 69.01166305 184.89104293 89.96310148 172.79296875 110.89941406 C171.19029545 113.67092155 169.58325493 116.43984863 167.97433472 119.20773315 C166.60437385 121.56551746 165.23674031 123.92464586 163.86968994 126.28411865 C162.90508391 127.94810401 161.93865506 129.61103228 160.97216797 131.27392578 C160.38064941 132.29728027 159.78913086 133.32063477 159.1796875 134.375 C158.66132324 135.26960937 158.14295898 136.16421875 157.60888672 137.0859375 C157.0779541 138.04757812 156.54702148 139.00921875 156 140 C155.66503761 140.57130992 155.33007523 141.14261984 154.98496246 141.73124218 C152.16717393 146.836244 151.42845112 150.84673046 151.51416016 156.62817383 C151.50846512 157.86163292 151.50846512 157.86163292 151.50265503 159.12001038 C151.4952961 161.81608256 151.51657146 164.51105614 151.5390625 167.20703125 C151.54145055 169.0973854 151.54235148 170.98774195 151.5418396 172.87809753 C151.54496003 176.83302761 151.56146239 180.78759326 151.58837891 184.74243164 C151.62228719 189.78573095 151.63000881 194.82862935 151.62848854 199.8720293 C151.62903532 203.77479303 151.64005277 207.67747094 151.65449142 211.58020592 C151.66081066 213.43834472 151.66478677 215.29649315 151.66627884 217.15464211 C150.92755559 235.19726669 150.92755559 235.19726669 158 251 C165.48457775 257.5250165 176.31091646 259.33653479 185.953125 259.82421875 C188 260 188 260 189 261 C189.1328125 262.8125 189.1328125 262.8125 189.125 265 C189.12757813 265.721875 189.13015625 266.44375 189.1328125 267.1875 C189 269 189 269 188 270 C186.48413888 270.09795069 184.96372447 270.12631815 183.44470215 270.12698364 C182.46031662 270.12980347 181.47593109 270.13262329 180.4617157 270.13552856 C179.37284561 270.13350433 178.28397552 270.1314801 177.16210938 270.12939453 C176.02240189 270.13114685 174.8826944 270.13289917 173.70845032 270.13470459 C169.92020164 270.13912586 166.1319992 270.13618414 162.34375 270.1328125 C159.72440583 270.13348546 157.10506173 270.13445542 154.48571777 270.13571167 C148.98770644 270.1375332 143.48970852 270.13512749 137.99169922 270.13037109 C131.62683013 270.1249285 125.26199308 270.12669117 118.89712477 270.1321975 C112.78515668 270.13727429 106.67320284 270.1367471 100.56123352 270.13381577 C97.95518489 270.13314622 95.34913545 270.13397587 92.74308777 270.13629532 C89.10799967 270.13882022 85.47297404 270.13498353 81.83789062 270.12939453 C80.20458549 270.13243088 80.20458549 270.13243088 78.5382843 270.13552856 C77.55389877 270.13270874 76.56951324 270.12988892 75.55529785 270.12698364 C74.69472023 270.12660662 73.83414261 270.12622959 72.94748688 270.12584114 C71 270 71 270 70 269 C69.8671875 267.1875 69.8671875 267.1875 69.875 265 C69.87113281 263.9171875 69.87113281 263.9171875 69.8671875 262.8125 C70 261 70 261 71 260 C73.30769172 259.67245666 75.62164914 259.38874325 77.9375 259.125 C86.50279172 258.0572621 95.31607146 256.88822277 102 251 C106.60796505 244.08064412 107.131369 236.92973008 107.38330078 228.77685547 C107.42448029 227.57016457 107.42448029 227.57016457 107.4664917 226.33909607 C107.70773182 218.8702932 107.85042348 211.39952746 107.96293831 203.92777824 C108.03975663 198.93342365 108.14818382 193.94458982 108.33740234 188.953125 C109.28292915 163.35579611 108.19957474 145.4258682 92.08015442 124.77949524 C88.85838484 120.47457772 86.31623663 115.83918955 83.75 111.125 C82.79553652 109.43214342 81.83883425 107.74054519 80.87890625 106.05078125 C80.40855957 105.22143066 79.93821289 104.39208008 79.45361328 103.53759766 C76.38417982 98.17923498 73.21339598 92.88028719 70.05883789 87.57177734 C66.50678674 81.58224981 63.01653719 75.5605328 59.55834961 69.51635742 C53.6931226 59.27612878 47.74029086 49.09265117 41.625 39 C40.99553467 37.94458008 40.36606934 36.88916016 39.7175293 35.80175781 C33.63615856 25.85577663 26.4291059 14.70505504 14.51171875 11.76953125 C12.90630015 11.43742094 11.29808019 11.11860065 9.6875 10.8125 C1.0971135 9.0971135 1.0971135 9.0971135 0 8 C-0.14115161 5.32941149 -0.04247107 2.67567762 0 0 Z " fill="#0E1010" transform="translate(532,351)"/>
<path d="M0 0 C9.51488221 8.10050783 15.16265964 17.26536895 19.3515625 28.96484375 C19.7228125 29.96064453 19.7228125 29.96064453 20.1015625 30.9765625 C24.55318233 45.22792875 20.70476408 61.88012807 14.1640625 74.83984375 C3.27045189 93.55094987 -14.35669922 103.48612756 -34.75830078 108.91308594 C-83.75864833 121.09978563 -138.61910376 113.61524985 -182.35205078 88.35498047 C-192.02712297 82.49809539 -201.4877701 75.82121508 -209.6484375 67.96484375 C-205.56406201 67.96484375 -204.40479158 69.58318465 -201.3359375 72.21484375 C-195.20918492 78.11666796 -195.20918492 78.11666796 -187.6484375 80.96484375 C-186.936875 79.97484375 -186.936875 79.97484375 -186.2109375 78.96484375 C-185.4375 77.97484375 -185.4375 77.97484375 -184.6484375 76.96484375 C-183.6584375 76.96484375 -182.6684375 76.96484375 -181.6484375 76.96484375 C-181.6484375 76.30484375 -181.6484375 75.64484375 -181.6484375 74.96484375 C-183.1334375 75.45984375 -183.1334375 75.45984375 -184.6484375 75.96484375 C-184.6484375 74.31484375 -184.6484375 72.66484375 -184.6484375 70.96484375 C-182.14485889 71.79936995 -179.98057898 72.75856367 -177.6484375 73.96484375 C-176.9884375 72.64484375 -176.3284375 71.32484375 -175.6484375 69.96484375 C-176.2259375 69.55492187 -176.8034375 69.145 -177.3984375 68.72265625 C-178.1409375 68.18382812 -178.8834375 67.645 -179.6484375 67.08984375 C-180.3909375 66.55617188 -181.1334375 66.0225 -181.8984375 65.47265625 C-182.4759375 64.97507812 -183.0534375 64.4775 -183.6484375 63.96484375 C-183.6484375 63.30484375 -183.6484375 62.64484375 -183.6484375 61.96484375 C-179.90945333 63.59397257 -177.05494356 65.96768973 -173.8984375 68.52734375 C-142.26493604 93.39679037 -101.14408722 102.50882485 -61.6484375 97.96484375 C-62.7621875 97.49046875 -63.8759375 97.01609375 -65.0234375 96.52734375 C-80.23455921 88.88139939 -87.50462521 75.39628061 -92.6484375 59.96484375 C-94.148608 39.76482067 -91.06239681 21.78760058 -77.7734375 5.96484375 C-57.02802365 -15.50706319 -23.66204785 -18.18278308 0 0 Z M-180.6484375 74.96484375 C-180.3184375 75.62484375 -179.9884375 76.28484375 -179.6484375 76.96484375 C-178.9884375 76.63484375 -178.3284375 76.30484375 -177.6484375 75.96484375 C-178.6384375 75.63484375 -179.6284375 75.30484375 -180.6484375 74.96484375 Z " fill="#0F1211" transform="translate(680.6484375,650.03515625)"/>
<path d="M0 0 C8.71558091 7.67653479 14.35464786 18.52578587 15.23828125 30.12890625 C15.52342717 43.32065702 12.02230869 55.33072238 2.96484375 65.22265625 C-6.84873184 74.48237925 -17.92776598 78.49996937 -31.30859375 78.18359375 C-43.48827803 77.35275897 -53.77099444 72.0014601 -62 63 C-70.26820217 51.96971283 -72.16662738 40.46924335 -71 27 C-69.31841414 18.43191964 -65.48481603 11.71014727 -60 5 C-59.47664062 4.35160156 -58.95328125 3.70320312 -58.4140625 3.03515625 C-43.43659731 -13.65923788 -16.98140911 -12.66646089 0 0 Z " fill="#FCFCF9" transform="translate(673,662)"/>
<path d="M0 0 C1.09864396 -0.00260775 2.19728791 -0.00521549 3.32922411 -0.00790226 C4.55127786 -0.00567154 5.77333161 -0.00344082 7.0324173 -0.0011425 C8.31888515 -0.00270249 9.605353 -0.00426248 10.93080473 -0.00586975 C14.51811927 -0.01006755 18.10540741 -0.00797036 21.69272208 -0.00488353 C25.5550656 -0.00263147 29.41740441 -0.00610807 33.27974701 -0.00886345 C40.85258836 -0.01332223 48.42541983 -0.0123442 55.99826157 -0.00945081 C62.15002341 -0.0071972 68.30178248 -0.00688407 74.45354462 -0.00797462 C75.32735919 -0.00812786 76.20117377 -0.00828109 77.10146758 -0.00843897 C78.87631532 -0.00875868 80.65116305 -0.00908289 82.42601079 -0.00941156 C99.08916609 -0.01226667 115.7523159 -0.00897885 132.4154703 -0.00361119 C146.72939842 0.00085687 161.04331843 0.00008095 175.3572464 -0.00452995 C191.95865719 -0.00987517 208.56006317 -0.01199197 225.1614747 -0.00891769 C226.92998409 -0.00859912 228.69849348 -0.00828475 230.46700287 -0.00797462 C231.3372619 -0.00782035 232.20752094 -0.00766607 233.10415146 -0.00750712 C239.25223323 -0.00664181 245.40031195 -0.00810515 251.54839325 -0.01045418 C259.03552267 -0.0132518 266.52264159 -0.01251473 274.0097698 -0.00717343 C277.83360966 -0.0045359 281.65743199 -0.00353223 285.48127174 -0.00682259 C289.61690664 -0.01032756 293.75249687 -0.00615743 297.88813019 -0.0011425 C299.72121082 -0.00448858 299.72121082 -0.00448858 301.59132338 -0.00790226 C303.23928931 -0.00399064 303.23928931 -0.00399064 304.92054749 0 C305.87652092 0.00016235 306.83249436 0.0003247 307.8174367 0.00049198 C309.96027374 0.12584114 309.96027374 0.12584114 310.96027374 1.12584114 C311.22915997 4.04454536 311.43769746 6.94695184 311.60871124 9.87193489 C311.72678131 11.74547084 311.84486456 13.61900596 311.96295929 15.49254036 C312.02365601 16.48348701 312.08435272 17.47443367 312.14688873 18.49540901 C313.19655254 35.58964242 314.42738032 52.65182234 316.04572296 69.70176888 C316.22578888 71.62484871 316.22578888 71.62484871 316.40949249 73.58677864 C316.51608185 74.68812141 316.6226712 75.78946419 316.73249054 76.92418098 C316.97569107 80.34254297 317.06555199 83.70018772 316.96027374 87.12584114 C315.96027374 88.12584114 315.96027374 88.12584114 313.89386749 88.22349739 C313.07015656 88.21189583 312.24644562 88.20029427 311.39777374 88.18834114 C310.15834015 88.17480598 310.15834015 88.17480598 308.89386749 88.16099739 C307.93673859 88.14359505 307.93673859 88.14359505 306.96027374 88.12584114 C306.76506134 87.48259895 306.56984894 86.83935677 306.36872101 86.17662239 C298.90706723 61.9116445 289.19924523 39.34415993 265.86652374 26.41099739 C237.59064986 12.64333975 205.85556252 17.62415225 174.96027374 17.12584114 C174.96027374 111.50584114 174.96027374 205.88584114 174.96027374 303.12584114 C174.63027374 303.12584114 174.30027374 303.12584114 173.96027374 303.12584114 C173.95891721 302.56624834 173.95756068 302.00665554 173.95616305 301.43010539 C173.87556734 268.28694436 173.78463518 235.14382979 173.68022213 202.0007355 C173.66770279 198.02396431 173.65527009 194.04719285 173.64289093 190.07042122 C173.64042494 189.27869524 173.63795894 188.48696925 173.63541822 187.67125157 C173.59566085 174.84046805 173.56292672 162.00967569 173.53277393 149.17886641 C173.501694 136.01983089 173.46309951 122.86083299 173.41748369 109.70183975 C173.38955933 101.57766192 173.36754348 93.45351171 173.35301124 85.32929871 C173.34125366 79.10667387 173.31905685 72.88412672 173.29289055 66.66154671 C173.28378744 64.10368843 173.27811822 61.54581539 173.2760601 58.98794174 C173.27275683 55.50753233 173.257332 52.02738581 173.23874664 48.5470295 C173.24164874 47.01348533 173.24164874 47.01348533 173.24460948 45.44896048 C173.23714398 44.51988751 173.22967849 43.59081454 173.22198677 42.63358784 C173.21970845 41.8297199 173.21743013 41.02585196 173.21508276 40.19762439 C173.0798982 37.81887944 173.0798982 37.81887944 170.96027374 35.12584114 C170.76496124 31.77037239 170.76496124 31.77037239 170.83527374 27.93834114 C170.85332062 26.66603645 170.87136749 25.39373177 170.88996124 24.08287239 C170.91316437 23.10705208 170.93636749 22.13123177 170.96027374 21.12584114 C170.30027374 21.45584114 169.64027374 21.78584114 168.96027374 22.12584114 C166.33527374 21.18834114 166.33527374 21.18834114 163.96027374 20.12584114 C163.96027374 20.78584114 163.96027374 21.44584114 163.96027374 22.12584114 C162.97027374 22.45584114 161.98027374 22.78584114 160.96027374 23.12584114 C160.96027374 22.46584114 160.96027374 21.80584114 160.96027374 21.12584114 C160.30027374 20.79584114 159.64027374 20.46584114 158.96027374 20.12584114 C161.43527374 19.13584114 161.43527374 19.13584114 163.96027374 18.12584114 C163.63027374 17.03271614 163.30027374 15.93959114 162.96027374 14.81334114 C161.96027374 11.12584114 161.96027374 11.12584114 161.96027374 8.12584114 C162.62027374 8.12584114 163.28027374 8.12584114 163.96027374 8.12584114 C163.96027374 6.80584114 163.96027374 5.48584114 163.96027374 4.12584114 C136.24027374 4.12584114 108.52027374 4.12584114 79.96027374 4.12584114 C79.96027374 6.76584114 79.96027374 9.40584114 79.96027374 12.12584114 C80.95027374 12.45584114 81.94027374 12.78584114 82.96027374 13.12584114 C82.30027374 13.12584114 81.64027374 13.12584114 80.96027374 13.12584114 C80.96027374 13.78584114 80.96027374 14.44584114 80.96027374 15.12584114 C82.61027374 15.12584114 84.26027374 15.12584114 85.96027374 15.12584114 C86.29027374 14.46584114 86.62027374 13.80584114 86.96027374 13.12584114 C86.96027374 13.78584114 86.96027374 14.44584114 86.96027374 15.12584114 C88.14447906 15.08040169 88.14447906 15.08040169 89.35260773 15.03404427 C103.89194855 14.48367248 118.40888405 13.93631508 132.96027374 14.12584114 C132.63027374 14.78584114 132.30027374 15.44584114 131.96027374 16.12584114 C109.19027374 16.12584114 86.42027374 16.12584114 62.96027374 16.12584114 C62.96027374 15.79584114 62.96027374 15.46584114 62.96027374 15.12584114 C66.92027374 14.79584114 70.88027374 14.46584114 74.96027374 14.12584114 C75.29027374 12.80584114 75.62027374 11.48584114 75.96027374 10.12584114 C74.97027374 9.63084114 74.97027374 9.63084114 73.96027374 9.12584114 C73.96027374 7.45917447 73.96027374 5.79250781 73.96027374 4.12584114 C72.67338654 4.13107796 71.38649933 4.13631477 70.06061554 4.14171028 C65.29157963 4.15979394 60.52254676 4.17128551 55.75348663 4.18077278 C53.68837728 4.18580528 51.6232715 4.19263183 49.55817413 4.20128059 C46.59193797 4.2133935 43.62574886 4.21908025 40.65949249 4.22349739 C39.73440384 4.22865868 38.80931519 4.23381996 37.85619354 4.23913765 C36.9955278 4.23921318 36.13486206 4.23928871 35.24811554 4.23936653 C34.11227272 4.24269745 34.11227272 4.24269745 32.95348358 4.24609566 C30.96027374 4.12584114 30.96027374 4.12584114 27.96027374 3.12584114 C25.52246997 2.97314933 23.10743473 2.86901417 20.66730499 2.80943489 C19.9612764 2.78865379 19.2552478 2.7678727 18.5278244 2.74646187 C16.27623824 2.68116623 14.02453712 2.62217467 11.77277374 2.56334114 C10.24476715 2.52013689 8.7167721 2.47652198 7.18878937 2.43248177 C3.44606685 2.32473364 -0.29674505 2.22551259 -4.03972626 2.12584114 C-4.36972626 6.74584114 -4.69972626 11.36584114 -5.03972626 16.12584114 C-5.36972626 16.12584114 -5.69972626 16.12584114 -6.03972626 16.12584114 C-6.06657721 13.64660313 -6.08649173 11.16765274 -6.10222626 8.68834114 C-6.11479462 7.62776497 -6.11479462 7.62776497 -6.12761688 6.54576302 C-6.13626213 4.73890555 -6.09192637 2.93196511 -6.03972626 1.12584114 C-4.36117964 -0.55270547 -2.30374721 0.00039124 0 0 Z " fill="#0F1312" transform="translate(330.0397262573242,248.87415885925293)"/>
<path d="M0 0 C0.06997515 7.61570795 0.12304972 15.23138192 0.15543652 22.84733963 C0.17099244 26.38499683 0.19204237 29.92243166 0.22631836 33.45996094 C0.26560662 37.54103546 0.27979226 41.62188195 0.29296875 45.703125 C0.30845261 46.95361633 0.32393646 48.20410767 0.33988953 49.49249268 C0.34187382 60.00393165 -0.8342116 70.21842259 -7 79 C-8.97136486 80.73943958 -10.66480473 81.83240237 -13 83 C-11.8553125 82.505 -11.8553125 82.505 -10.6875 82 C-8 81 -8 81 -5 81 C-4.67 81.66 -4.34 82.32 -4 83 C-3.34 83.33 -2.68 83.66 -2 84 C-2 84.66 -2 85.32 -2 86 C-3.32 86 -4.64 86 -6 86 C-5.67 87.32 -5.34 88.64 -5 90 C-6.66611905 90.042721 -8.33382885 90.04063832 -10 90 C-10.33 89.67 -10.66 89.34 -11 89 C-11.33 90.98 -11.66 92.96 -12 95 C-10.35 95.33 -8.7 95.66 -7 96 C-9 98 -9 98 -11.625 98.125 C-12.40875 98.08375 -13.1925 98.0425 -14 98 C-14 100.31 -14 102.62 -14 105 C-15.485 103.02 -15.485 103.02 -17 101 C-16.34 100.67 -15.68 100.34 -15 100 C-15 99.34 -15 98.68 -15 98 C-15.66 97.67 -16.32 97.34 -17 97 C-16.67 96.34 -16.34 95.68 -16 95 C-16.33 94.01 -16.66 93.02 -17 92 C-16.5625 89.3125 -16.5625 89.3125 -16 87 C-16.99 87 -17.98 87 -19 87 C-18.625 85.0625 -18.625 85.0625 -18 83 C-17.34 82.67 -16.68 82.34 -16 82 C-15.79029441 77.85906302 -15.79029441 77.85906302 -17 74 C-16.34 74 -15.68 74 -15 74 C-15.33 73.01 -15.66 72.02 -16 71 C-15.505 69.515 -15.505 69.515 -15 68 C-15.66 68 -16.32 68 -17 68 C-17.33 68.66 -17.66 69.32 -18 70 C-18.33 70.66 -18.66 71.32 -19 72 C-21 72.66666667 -23 73.33333333 -25 74 C-26.32229189 76.64458379 -26.09677194 78.67761301 -26.0625 81.625 C-26.05347656 82.62789062 -26.04445313 83.63078125 -26.03515625 84.6640625 C-26.02355469 85.43492187 -26.01195312 86.20578125 -26 87 C-28 88 -28 88 -31 89 C-31 90.32 -31 91.64 -31 93 C-31.99 93 -32.98 93 -34 93 C-32.02 93.99 -30.04 94.98 -28 96 C-28 96.66 -28 97.32 -28 98 C-28.639375 98.12375 -29.27875 98.2475 -29.9375 98.375 C-30.618125 98.58125 -31.29875 98.7875 -32 99 C-32.33 99.66 -32.66 100.32 -33 101 C-33.33 101.66 -33.66 102.32 -34 103 C-34.66 103 -35.32 103 -36 103 C-36.495 104.485 -36.495 104.485 -37 106 C-37.99 106.66 -38.98 107.32 -40 108 C-40.845625 108.845625 -41.69125 109.69125 -42.5625 110.5625 C-45 113 -45 113 -47 114 C-47 114.66 -47 115.32 -47 116 C-45.515 116.495 -45.515 116.495 -44 117 C-44.99 118.98 -44.99 118.98 -46 121 C-45.34 121.33 -44.68 121.66 -44 122 C-44 122.66 -44 123.32 -44 124 C-63.28176742 128.67485356 -81.90899631 131.10584271 -101.75 131.25 C-102.74515625 131.25942627 -103.7403125 131.26885254 -104.765625 131.27856445 C-106.14234375 131.27215942 -106.14234375 131.27215942 -107.546875 131.265625 C-108.35995117 131.26336914 -109.17302734 131.26111328 -110.01074219 131.25878906 C-112 131 -112 131 -114 129 C-105.42 129 -96.84 129 -88 129 C-85.9254644 125.59628479 -85.9254644 125.59628479 -86 124 C-86.66 124 -87.32 124 -88 124 C-88.33 123.01 -88.66 122.02 -89 121 C-88.01 120.505 -88.01 120.505 -87 120 C-87.495 119.01 -87.495 119.01 -88 118 C-85.03 117.505 -85.03 117.505 -82 117 C-82 116.67 -82 116.34 -82 116 C-80.93523437 115.84144531 -79.87046875 115.68289063 -78.7734375 115.51953125 C-68.98373458 113.97653349 -60.25932937 111.59228783 -51 108 C-49.00370597 107.32231676 -47.00475698 106.65222228 -45 106 C-45.03552979 105.33170166 -45.07105957 104.66340332 -45.10766602 103.97485352 C-45.79686773 90.56245898 -46.19693439 77.38725076 -45 64 C-43.125 62.9375 -43.125 62.9375 -41 62 C-40.34 62.33 -39.68 62.66 -39 63 C-37.00103089 62.68236347 -37.00103089 62.68236347 -34.875 62.0625 C-34.15054688 61.86785156 -33.42609375 61.67320312 -32.6796875 61.47265625 C-32.12539063 61.31667969 -31.57109375 61.16070313 -31 61 C-30.67 58.69 -30.34 56.38 -30 54 C-28.35 53.67 -26.7 53.34 -25 53 C-24.814375 52.195625 -24.814375 52.195625 -24.625 51.375 C-24.315625 50.199375 -24.315625 50.199375 -24 49 C-23.731875 47.96875 -23.46375 46.9375 -23.1875 45.875 C-22 43 -22 43 -20.0625 41.625 C-18 41 -18 41 -15 41 C-15 37.7 -15 34.4 -15 31 C-16.65 31 -18.3 31 -20 31 C-20 30.67 -20 30.34 -20 30 C-18.35 30 -16.7 30 -15 30 C-15 25.38 -15 20.76 -15 16 C-16.65 15.34 -18.3 14.68 -20 14 C-19.67 13.34 -19.34 12.68 -19 12 C-19.99 11.01 -19.99 11.01 -21 10 C-19.865625 9.54625 -18.73125 9.0925 -17.5625 8.625 C-13.95278308 7.42904194 -13.95278308 7.42904194 -13 5 C-12.34 5 -11.68 5 -11 5 C-10.67 4.34 -10.34 3.68 -10 3 C-3.76923077 0 -3.76923077 0 0 0 Z " fill="#0E1110" transform="translate(461,503)"/>
<path d="M0 0 C1.45247241 0.00502586 2.90494651 0.00958684 4.35742188 0.01367188 C7.88415015 0.02458958 11.41081402 0.04179414 14.9375 0.0625 C14.9375 2.7025 14.9375 5.3425 14.9375 8.0625 C15.5975 8.0625 16.2575 8.0625 16.9375 8.0625 C18.02220353 14.6373258 18.39270581 21.22930737 18.8125 27.875 C19.663792 40.87945077 20.76015258 53.85196681 21.97216797 66.82739258 C22.03615784 67.52477036 22.10014771 68.22214813 22.16607666 68.94065857 C22.33950849 70.82964735 22.51654364 72.71830433 22.69384766 74.60693359 C22.94097184 78.11173895 23.04912338 81.55048765 22.9375 85.0625 C21.9375 86.0625 21.9375 86.0625 19.87109375 86.16015625 C19.04738281 86.14855469 18.22367188 86.13695312 17.375 86.125 C16.13556641 86.11146484 16.13556641 86.11146484 14.87109375 86.09765625 C13.91396484 86.08025391 13.91396484 86.08025391 12.9375 86.0625 C12.7422876 85.41925781 12.5470752 84.77601563 12.34594727 84.11328125 C4.46144809 58.47322826 -5.14319134 39.3420391 -28.0625 24.0625 C-27.7325 22.4125 -27.4025 20.7625 -27.0625 19.0625 C-28.3825 18.0725 -29.7025 17.0825 -31.0625 16.0625 C-29.6875 14.5625 -29.6875 14.5625 -28.0625 13.0625 C-27.4025 13.0625 -26.7425 13.0625 -26.0625 13.0625 C-25.7325 12.0725 -25.4025 11.0825 -25.0625 10.0625 C-24.4025 10.0625 -23.7425 10.0625 -23.0625 10.0625 C-22.7325 9.0725 -22.4025 8.0825 -22.0625 7.0625 C-23.0525 7.5575 -23.0525 7.5575 -24.0625 8.0625 C-25.0525 8.5575 -25.0525 8.5575 -26.0625 9.0625 C-27.0525 8.4025 -28.0425 7.7425 -29.0625 7.0625 C-28.0725 7.0625 -27.0825 7.0625 -26.0625 7.0625 C-25.7325 6.0725 -25.4025 5.0825 -25.0625 4.0625 C-24.0725 3.7325 -23.0825 3.4025 -22.0625 3.0625 C-23.0525 2.4025 -24.0425 1.7425 -25.0625 1.0625 C-16.70821234 -0.12296875 -8.41489405 -0.05090622 0 0 Z " fill="#0E1110" transform="translate(624.0625,250.9375)"/>
<path d="M0 0 C0.06997515 7.61570795 0.12304972 15.23138192 0.15543652 22.84733963 C0.17099244 26.38499683 0.19204237 29.92243166 0.22631836 33.45996094 C0.26560662 37.54103546 0.27979226 41.62188195 0.29296875 45.703125 C0.30845261 46.95361633 0.32393646 48.20410767 0.33988953 49.49249268 C0.34187382 60.00393165 -0.8342116 70.21842259 -7 79 C-10.29032258 82 -10.29032258 82 -13 82 C-13.04651976 73.81088732 -13.08196836 65.62183067 -13.10362434 57.43261814 C-13.1140227 53.62926601 -13.12810896 49.82600486 -13.15087891 46.02270508 C-13.17274917 42.34630894 -13.18459825 38.66999984 -13.18975449 34.99354362 C-13.19342496 33.59705169 -13.20059186 32.20056404 -13.21146011 30.80410957 C-13.36040607 10.8569722 -13.36040607 10.8569722 -7 3 C-4.34200077 0.58363706 -3.64705667 0 0 0 Z " fill="#F7F6F4" transform="translate(461,503)"/>
<path d="M0 0 C52.14 0 104.28 0 158 0 C155 6 155 6 152.8125 6.875 C152.214375 6.91625 151.61625 6.9575 151 7 C151 6.34 151 5.68 151 5 C148.525 5.99 148.525 5.99 146 7 C146 6.01 146 5.02 146 4 C145.071875 5.2375 145.071875 5.2375 144.125 6.5 C143.42375 7.325 142.7225 8.15 142 9 C141.34 9 140.68 9 140 9 C140.33 10.32 140.66 11.64 141 13 C141.66 12.67 142.32 12.34 143 12 C145.40438689 11.90086931 147.77903847 11.86032411 150.18359375 11.8671875 C150.90726135 11.86586823 151.63092896 11.86454895 152.37652588 11.8631897 C154.73022735 11.86127162 157.08381063 11.86760493 159.4375 11.875 C160.23056549 11.87588623 161.02363098 11.87677246 161.84072876 11.87768555 C173.58557379 11.89319994 185.28348457 12.12399885 197 13 C197 13.33 197 13.66 197 14 C180.5 14.33 164 14.66 147 15 C147 109.38 147 203.76 147 301 C146.67 301 146.34 301 146 301 C145.99864347 300.4404072 145.99728694 299.8808144 145.99588931 299.30426425 C145.91529359 266.16110322 145.82436144 233.01798865 145.71994839 199.87489436 C145.70742905 195.89812317 145.69499635 191.92135171 145.68261719 187.94458008 C145.68015119 187.15285409 145.6776852 186.36112811 145.67514448 185.54541043 C145.63538711 172.71462691 145.60265297 159.88383455 145.57250018 147.05302527 C145.54142025 133.89398975 145.50282577 120.73499185 145.45720994 107.5759986 C145.42928559 99.45182078 145.40726973 91.32767057 145.39273749 83.20345757 C145.38097991 76.98083273 145.35878311 70.75828558 145.33261681 64.53570557 C145.3235137 61.97784729 145.31784448 59.41997425 145.31578636 56.8621006 C145.31248309 53.38169119 145.29705826 49.90154467 145.2784729 46.42118835 C145.281375 44.88764419 145.281375 44.88764419 145.28433573 43.32311934 C145.27687024 42.39404637 145.26940475 41.4649734 145.26171303 40.5077467 C145.25943471 39.70387876 145.25715638 38.90001082 145.25480902 38.07178324 C145.11962445 35.6930383 145.11962445 35.6930383 143 33 C142.8046875 29.64453125 142.8046875 29.64453125 142.875 25.8125 C142.89304687 24.54019531 142.91109375 23.26789063 142.9296875 21.95703125 C142.95289063 20.98121094 142.97609375 20.00539063 143 19 C142.34 19.33 141.68 19.66 141 20 C138.375 19.0625 138.375 19.0625 136 18 C136 18.66 136 19.32 136 20 C135.01 20.33 134.02 20.66 133 21 C133 20.34 133 19.68 133 19 C132.34 18.67 131.68 18.34 131 18 C133.475 17.01 133.475 17.01 136 16 C135.67 14.906875 135.34 13.81375 135 12.6875 C134 9 134 9 134 6 C134.66 6 135.32 6 136 6 C136 4.68 136 3.36 136 2 C108.28 2 80.56 2 52 2 C52 4.64 52 7.28 52 10 C52.99 10.33 53.98 10.66 55 11 C54.34 11 53.68 11 53 11 C53 11.66 53 12.32 53 13 C54.65 13 56.3 13 58 13 C58.33 12.34 58.66 11.68 59 11 C59 11.66 59 12.32 59 13 C59.78947021 12.96970703 60.57894043 12.93941406 61.39233398 12.90820312 C75.93167481 12.35783134 90.44861031 11.81047394 105 12 C104.67 12.66 104.34 13.32 104 14 C81.23 14 58.46 14 35 14 C35 13.67 35 13.34 35 13 C40.94 12.505 40.94 12.505 47 12 C47.33 10.68 47.66 9.36 48 8 C47.34 7.67 46.68 7.34 46 7 C46 5.33333333 46 3.66666667 46 2 C44.71311279 2.01047363 43.42622559 2.02094727 42.1003418 2.03173828 C37.33132706 2.06790544 32.56232448 2.09088854 27.79321289 2.10986328 C25.728088 2.11992835 23.66297737 2.13358154 21.59790039 2.15087891 C18.63163736 2.17510493 15.66556256 2.18647797 12.69921875 2.1953125 C11.31158577 2.21079636 11.31158577 2.21079636 9.8959198 2.22659302 C9.03525406 2.22674408 8.17458832 2.22689514 7.2878418 2.22705078 C6.53061325 2.231492 5.7733847 2.23593323 4.99320984 2.24050903 C3 2 3 2 0 0 Z M144 7 C144.66 7 145.32 7 146 7 C146 7.66 146 8.32 146 9 C145.01 8.67 144.02 8.34 143 8 C143.33 7.67 143.66 7.34 144 7 Z M148 7 C151 8 151 8 151 8 Z " fill="#313432" transform="translate(358,251)"/>
<path d="M0 0 C0.97418381 0.0136409 1.94836761 0.0272818 2.95207214 0.04133606 C4.51167412 0.07247749 4.51167412 0.07247749 6.1027832 0.10424805 C7.17857132 0.12311569 8.25435944 0.14198334 9.36274719 0.16142273 C11.63137168 0.2032229 13.89994385 0.24795172 16.16845703 0.29541016 C19.65101868 0.36591526 23.13359283 0.42008582 26.61645508 0.47338867 C28.82025061 0.51601243 31.02402778 0.55959892 33.2277832 0.60424805 C34.27359055 0.61893631 35.31939789 0.63362457 36.39689636 0.64875793 C37.36162369 0.67185532 38.32635101 0.6949527 39.3203125 0.71875 C40.17126999 0.73508987 41.02222748 0.75142975 41.89897156 0.76826477 C43.96606445 1.0534668 43.96606445 1.0534668 45.96606445 3.0534668 C46.62606445 2.7234668 47.28606445 2.3934668 47.96606445 2.0534668 C48.95606445 4.0334668 48.95606445 4.0334668 49.96606445 6.0534668 C45.96606445 6.0534668 45.96606445 6.0534668 42.96606445 5.0534668 C42.63606445 5.7134668 42.30606445 6.3734668 41.96606445 7.0534668 C41.30606445 7.0534668 40.64606445 7.0534668 39.96606445 7.0534668 C40.15168945 7.8578418 40.33731445 8.6622168 40.52856445 9.4909668 C40.67293945 10.3365918 40.81731445 11.1822168 40.96606445 12.0534668 C40.63606445 12.3834668 40.30606445 12.7134668 39.96606445 13.0534668 C42.93606445 13.3834668 45.90606445 13.7134668 48.96606445 14.0534668 C48.96606445 14.3834668 48.96606445 14.7134668 48.96606445 15.0534668 C27.18606445 15.0534668 5.40606445 15.0534668 -17.03393555 15.0534668 C-17.03393555 14.7234668 -17.03393555 14.3934668 -17.03393555 14.0534668 C-2.18393555 13.5584668 -2.18393555 13.5584668 12.96606445 13.0534668 C10.61868164 13.0534668 8.27129883 13.0534668 5.8527832 13.0534668 C-3.77612305 13.0534668 -13.4050293 13.0534668 -23.03393555 13.0534668 C-23.03393555 11.7334668 -23.03393555 10.4134668 -23.03393555 9.0534668 C-22.37393555 9.0534668 -21.71393555 9.0534668 -21.03393555 9.0534668 C-20.76581055 8.4347168 -20.49768555 7.8159668 -20.22143555 7.1784668 C-19.03393555 5.0534668 -19.03393555 5.0534668 -16.03393555 3.0534668 C-16.03393555 4.0434668 -16.03393555 5.0334668 -16.03393555 6.0534668 C-15.45643555 5.8884668 -14.87893555 5.7234668 -14.28393555 5.5534668 C-12.03393555 5.0534668 -12.03393555 5.0534668 -8.03393555 5.0534668 C-7.70393555 4.3934668 -7.37393555 3.7334668 -7.03393555 3.0534668 C-8.02393555 2.3934668 -9.01393555 1.7334668 -10.03393555 1.0534668 C-6.61386329 0.27620695 -3.50383147 -0.0572914 0 0 Z M-19.03393555 7.0534668 C-19.36393555 7.7134668 -19.69393555 8.3734668 -20.03393555 9.0534668 C-19.04393555 9.0534668 -18.05393555 9.0534668 -17.03393555 9.0534668 C-17.03393555 8.3934668 -17.03393555 7.7334668 -17.03393555 7.0534668 C-17.69393555 7.0534668 -18.35393555 7.0534668 -19.03393555 7.0534668 Z " fill="#0C0F0F" transform="translate(521.033935546875,250.946533203125)"/>
<path d="M0 0 C1.09864396 -0.00260775 2.19728791 -0.00521549 3.32922411 -0.00790226 C4.55127786 -0.00567154 5.77333161 -0.00344082 7.0324173 -0.0011425 C8.31888515 -0.00270249 9.605353 -0.00426248 10.93080473 -0.00586975 C14.51811927 -0.01006755 18.10540741 -0.00797036 21.69272208 -0.00488353 C25.5550656 -0.00263147 29.41740441 -0.00610807 33.27974701 -0.00886345 C40.85258836 -0.01332223 48.42541983 -0.0123442 55.99826157 -0.00945081 C62.15002341 -0.0071972 68.30178248 -0.00688407 74.45354462 -0.00797462 C75.32735919 -0.00812786 76.20117377 -0.00828109 77.10146758 -0.00843897 C78.87631532 -0.00875868 80.65116305 -0.00908289 82.42601079 -0.00941156 C99.08916609 -0.01226667 115.7523159 -0.00897885 132.4154703 -0.00361119 C146.72939842 0.00085687 161.04331843 0.00008095 175.3572464 -0.00452995 C191.95865719 -0.00987517 208.56006317 -0.01199197 225.1614747 -0.00891769 C226.92998409 -0.00859912 228.69849348 -0.00828475 230.46700287 -0.00797462 C231.3372619 -0.00782035 232.20752094 -0.00766607 233.10415146 -0.00750712 C239.25223323 -0.00664181 245.40031195 -0.00810515 251.54839325 -0.01045418 C259.03552267 -0.0132518 266.52264159 -0.01251473 274.0097698 -0.00717343 C277.83360966 -0.0045359 281.65743199 -0.00353223 285.48127174 -0.00682259 C289.61690664 -0.01032756 293.75249687 -0.00615743 297.88813019 -0.0011425 C299.72121082 -0.00448858 299.72121082 -0.00448858 301.59132338 -0.00790226 C303.23928931 -0.00399064 303.23928931 -0.00399064 304.92054749 0 C305.87652092 0.00016235 306.83249436 0.0003247 307.8174367 0.00049198 C309.96027374 0.12584114 309.96027374 0.12584114 310.96027374 1.12584114 C311.03207338 2.64512152 311.04419382 4.16751596 311.02277374 5.68834114 C311.01375031 6.5146302 311.00472687 7.34091927 310.99542999 8.19224739 C310.97802765 9.1493763 310.97802765 9.1493763 310.96027374 10.12584114 C310.30027374 10.12584114 309.64027374 10.12584114 308.96027374 10.12584114 C308.96027374 7.48584114 308.96027374 4.84584114 308.96027374 2.12584114 C205.67027374 2.12584114 102.38027374 2.12584114 -4.03972626 2.12584114 C-4.36972626 6.74584114 -4.69972626 11.36584114 -5.03972626 16.12584114 C-5.36972626 16.12584114 -5.69972626 16.12584114 -6.03972626 16.12584114 C-6.06657721 13.64660313 -6.08649173 11.16765274 -6.10222626 8.68834114 C-6.11479462 7.62776497 -6.11479462 7.62776497 -6.12761688 6.54576302 C-6.13626213 4.73890555 -6.09192637 2.93196511 -6.03972626 1.12584114 C-4.36117964 -0.55270547 -2.30374721 0.00039124 0 0 Z " fill="#1F201E" transform="translate(330.0397262573242,248.87415885925293)"/>
<path d="M0 0 C1 2 1 2 0.44140625 3.9453125 C0.15136719 4.66460938 -0.13867188 5.38390625 -0.4375 6.125 C-0.86869141 7.21167969 -0.86869141 7.21167969 -1.30859375 8.3203125 C-1.53675781 8.87460937 -1.76492188 9.42890625 -2 10 C-1.01 10 -0.02 10 1 10 C1.33 9.01 1.66 8.02 2 7 C7.75 7.75 7.75 7.75 10 10 C8.35 10.66 6.7 11.32 5 12 C31.4 12.33 57.8 12.66 85 13 C85 13.33 85 13.66 85 14 C46.72 14 8.44 14 -31 14 C-31 6 -31 6 -30 5 C-27.69230828 4.67245666 -25.37835086 4.38874325 -23.0625 4.125 C-17.54626071 3.46021908 -12.39361729 2.4447556 -7.1484375 0.5859375 C-4.69339599 -0.08361928 -2.53316216 -0.09777117 0 0 Z " fill="#090B0A" transform="translate(633,606)"/>
<path d="M0 0 C1.258125 0.144375 2.51625 0.28875 3.8125 0.4375 C8.47208192 0.96346235 13.13768341 1.35515315 17.8125 1.71875 C20 2 20 2 21 3 C21.1328125 4.8125 21.1328125 4.8125 21.125 7 C21.12886719 8.0828125 21.12886719 8.0828125 21.1328125 9.1875 C21 11 21 11 20 12 C18.4818148 12.09578593 16.95917604 12.12188147 15.43797302 12.12025452 C13.95922699 12.12231651 13.95922699 12.12231651 12.4506073 12.12442017 C11.36016617 12.12082489 10.26972504 12.11722961 9.14624023 12.11352539 C7.43426956 12.11374443 7.43426956 12.11374443 5.68771362 12.1139679 C1.89465469 12.11326818 -1.89835584 12.10547307 -5.69140625 12.09765625 C-8.31314568 12.09579228 -10.93488546 12.09436828 -13.55662537 12.09336853 C-19.76501955 12.09025551 -25.97339621 12.08204252 -32.18178266 12.07201904 C-39.24817441 12.06085699 -46.31456699 12.05534722 -53.38096535 12.05032361 C-67.92065263 12.03985988 -82.46032607 12.022261 -97 12 C-97 11.67 -97 11.34 -97 11 C-40.075 10.505 -40.075 10.505 18 10 C8.83434287 9.16699688 8.83434287 9.16699688 -0.25 8.9375 C-1.16265625 8.94652344 -2.0753125 8.95554687 -3.015625 8.96484375 C-3.99789062 8.98224609 -3.99789062 8.98224609 -5 9 C-3.69791667 7.53515625 -2.39583333 6.0703125 -1.09375 4.60546875 C0.28151241 2.910552 0.28151241 2.910552 0 0 Z " fill="#373834" transform="translate(700,609)"/>
<path d="M0 0 C0 0.99 0 1.98 0 3 C-1.32 3 -2.64 3 -4 3 C-4.33 3.66 -4.66 4.32 -5 5 C-7.33333333 5 -9.66666667 5 -12 5 C-12.33 6.98 -12.66 8.96 -13 11 C-12.21625 10.79375 -11.4325 10.5875 -10.625 10.375 C-9.325625 10.189375 -9.325625 10.189375 -8 10 C-7.34 10.66 -6.68 11.32 -6 12 C-7.98 12.99 -7.98 12.99 -10 14 C-8.68 14.66 -7.36 15.32 -6 16 C-17.57952177 17.28490488 -29.0932091 18.20556849 -40.75 18.25 C-41.74330322 18.25902344 -42.73660645 18.26804687 -43.76000977 18.27734375 C-44.67967529 18.27347656 -45.59934082 18.26960937 -46.546875 18.265625 C-47.35995117 18.26336914 -48.17302734 18.26111328 -49.01074219 18.25878906 C-51 18 -51 18 -53 16 C-44.42 16 -35.84 16 -27 16 C-24.9254644 12.59628479 -24.9254644 12.59628479 -25 11 C-25.66 11 -26.32 11 -27 11 C-27.33 10.01 -27.66 9.02 -28 8 C-27.34 7.67 -26.68 7.34 -26 7 C-26.33 6.34 -26.66 5.68 -27 5 C-25.02 4.67 -23.04 4.34 -21 4 C-21 3.67 -21 3.34 -21 3 C-18.25071558 2.49576443 -15.50068857 1.99646574 -12.75 1.5 C-11.97269531 1.35691406 -11.19539063 1.21382812 -10.39453125 1.06640625 C-9.64042969 0.93105469 -8.88632812 0.79570313 -8.109375 0.65625 C-7.07248535 0.46772461 -7.07248535 0.46772461 -6.01464844 0.27539062 C-4 0 -4 0 0 0 Z " fill="#181A19" transform="translate(400,616)"/>
<path d="M0 0 C-1.07401108 2.91517292 -1.77810176 4.77810176 -4 7 C-4.99 7 -5.98 7 -7 7 C-6.67 8.32 -6.34 9.64 -6 11 C-6.99 11.495 -6.99 11.495 -8 12 C16.75 12 41.5 12 67 12 C67.33 10.35 67.66 8.7 68 7 C68.33 7 68.66 7 69 7 C69 9.31 69 11.62 69 14 C36.33 14 3.66 14 -30 14 C-29.67 21.26 -29.34 28.52 -29 36 C-30.84288788 32.31422423 -31.24701045 31.27877347 -31.1953125 27.453125 C-31.18886719 26.60878906 -31.18242187 25.76445313 -31.17578125 24.89453125 C-31.15902344 24.02183594 -31.14226562 23.14914062 -31.125 22.25 C-31.11597656 21.36183594 -31.10695313 20.47367188 -31.09765625 19.55859375 C-31.07414577 17.37211942 -31.04128499 15.18619906 -31 13 C-29.35 12.67 -27.7 12.34 -26 12 C-26.680625 11.443125 -27.36125 10.88625 -28.0625 10.3125 C-28.701875 9.549375 -29.34125 8.78625 -30 8 C-29.75 5.25 -29.75 5.25 -29 3 C-26.69 3.66 -24.38 4.32 -22 5 C-22 5.99 -22 6.98 -22 8 C-22.66 8 -23.32 8 -24 8 C-24 8.66 -24 9.32 -24 10 C-21.47524538 11.26237731 -19.68799534 11.09856404 -16.875 11.0625 C-15.96492188 11.05347656 -15.05484375 11.04445313 -14.1171875 11.03515625 C-13.41851562 11.02355469 -12.71984375 11.01195312 -12 11 C-11.896875 10.21625 -11.79375 9.4325 -11.6875 8.625 C-11 6 -11 6 -8 4 C-9.32 3.34 -10.64 2.68 -12 2 C-4.71428571 -1.57142857 -4.71428571 -1.57142857 0 0 Z M-22 4 C-21.34 4 -20.68 4 -20 4 C-20.33 4.66 -20.66 5.32 -21 6 C-21.33 5.34 -21.66 4.68 -22 4 Z " fill="#070808" transform="translate(478,588)"/>
<path d="M0 0 C0.95708359 0.00222061 1.91416718 0.00444122 2.9002533 0.00672913 C3.98129837 0.00680466 5.06234344 0.00688019 6.17614746 0.00695801 C7.94018166 0.01469994 7.94018166 0.01469994 9.73985291 0.02259827 C10.93702438 0.02401321 12.13419586 0.02542816 13.36764526 0.02688599 C17.20918732 0.03250472 21.05067208 0.04506041 24.89219666 0.05775452 C27.48920102 0.0627671 30.0862063 0.06733043 32.68321228 0.07142639 C39.06539344 0.08248024 45.44754096 0.0992366 51.82969666 0.12025452 C51.82969666 0.45025452 51.82969666 0.78025452 51.82969666 1.12025452 C45.50340096 2.02401104 40.15599235 2.02401104 33.82969666 1.12025452 C33.82969666 1.78025452 33.82969666 2.44025452 33.82969666 3.12025452 C33.16969666 2.79025452 32.50969666 2.46025452 31.82969666 2.12025452 C30.16223606 2.03599358 28.49144478 2.01300309 26.82188416 2.02259827 C25.83575134 2.02582092 24.84961853 2.02904358 23.83360291 2.03236389 C22.28479431 2.04493225 22.28479431 2.04493225 20.70469666 2.05775452 C19.66442322 2.06226624 18.62414978 2.06677795 17.55235291 2.07142639 C14.97807704 2.083235 12.40391519 2.09970377 9.82969666 2.12025452 C9.40688416 3.08834045 8.98407166 4.05642639 8.54844666 5.05384827 C6.82969666 8.12025452 6.82969666 8.12025452 3.32969666 9.18275452 C-0.17030334 9.12025452 -0.17030334 9.12025452 -2.10780334 7.99525452 C-3.48934985 5.55723128 -3.46074832 3.87948182 -3.17030334 1.12025452 C-2.17030334 0.12025452 -2.17030334 0.12025452 0 0 Z M40.39219666 2.05775452 C41.59875916 2.08869202 41.59875916 2.08869202 42.82969666 2.12025452 C41.83969666 2.45025452 40.84969666 2.78025452 39.82969666 3.12025452 C39.82969666 4.11025452 39.82969666 5.10025452 39.82969666 6.12025452 C40.81969666 5.79025452 41.80969666 5.46025452 42.82969666 5.12025452 C42.82969666 5.78025452 42.82969666 6.44025452 42.82969666 7.12025452 C42.19032166 7.24400452 41.55094666 7.36775452 40.89219666 7.49525452 C39.87125916 7.80462952 39.87125916 7.80462952 38.82969666 8.12025452 C38.49969666 8.78025452 38.16969666 9.44025452 37.82969666 10.12025452 C37.82969666 9.46025452 37.82969666 8.80025452 37.82969666 8.12025452 C37.16969666 8.12025452 36.50969666 8.12025452 35.82969666 8.12025452 C36.90256098 2.14286758 36.90256098 2.14286758 40.39219666 2.05775452 Z " fill="#151918" transform="translate(709.1703033447266,351.87974548339844)"/>
<path d="M0 0 C0.79033127 -0.00014603 1.58066254 -0.00029205 2.39494324 -0.0004425 C5.01381145 0.00025556 7.63260902 0.008043 10.25146484 0.01586914 C12.06464601 0.0177337 13.87782767 0.01915742 15.69100952 0.02015686 C20.46843857 0.02397907 25.24583733 0.03380685 30.02325439 0.04486084 C34.89619538 0.05508132 39.76914124 0.05965585 44.64208984 0.06469727 C54.20720734 0.07542936 63.77230232 0.09250225 73.33740234 0.11352539 C73.33740234 0.44352539 73.33740234 0.77352539 73.33740234 1.11352539 C49.57740234 1.11352539 25.81740234 1.11352539 1.33740234 1.11352539 C1.33740234 1.77352539 1.33740234 2.43352539 1.33740234 3.11352539 C-0.64259766 3.77352539 -2.62259766 4.43352539 -4.66259766 5.11352539 C-3.01259766 5.44352539 -1.36259766 5.77352539 0.33740234 6.11352539 C0.00740234 7.10352539 -0.32259766 8.09352539 -0.66259766 9.11352539 C-6.81494141 9.21118164 -6.81494141 9.21118164 -8.66259766 9.11352539 C-9.66259766 8.11352539 -9.66259766 8.11352539 -9.72509766 4.55102539 C-9.70447266 3.41665039 -9.68384766 2.28227539 -9.66259766 1.11352539 C-6.58990063 -0.42282312 -3.37058647 -0.01615286 0 0 Z " fill="#171A19" transform="translate(384.66259765625,490.886474609375)"/>
<path d="M0 0 C0.33 0 0.66 0 1 0 C1.33 4.95 1.66 9.9 2 15 C2.99 15 3.98 15 5 15 C5 16.32 5 17.64 5 19 C5.5775 17.865625 6.155 16.73125 6.75 15.5625 C8.68760984 12.13016257 8.68760984 12.13016257 11.25 11.0625 C11.8275 11.041875 12.405 11.02125 13 11 C13.33 12.65 13.66 14.3 14 16 C13.4225 16.2475 12.845 16.495 12.25 16.75 C8.54418357 18.80878691 6.33327097 21.50009355 4 25 C3.34 25 2.68 25 2 25 C1.67 24.01 1.34 23.02 1 22 C1.12568359 23.22396484 1.12568359 23.22396484 1.25390625 24.47265625 C2.2762056 36.36497399 1.68405281 48.09810152 1 60 C0.67 60 0.34 60 0 60 C0 40.2 0 20.4 0 0 Z " fill="#141817" transform="translate(642,502)"/>
<path d="M0 0 C0.66 0 1.32 0 2 0 C2 21.12 2 42.24 2 64 C1.67 64 1.34 64 1 64 C1 60.37 1 56.74 1 53 C-0.65 52.34 -2.3 51.68 -4 51 C-3.67 50.01 -3.34 49.02 -3 48 C-2.01 47.505 -2.01 47.505 -1 47 C-1.33 46.2575 -1.66 45.515 -2 44.75 C-3 42 -3 42 -3 38 C-2.01 37.505 -2.01 37.505 -1 37 C-1.33 36.34 -1.66 35.68 -2 35 C-1.34 35 -0.68 35 0 35 C0.33 31.7 0.66 28.4 1 25 C0.34 24.67 -0.32 24.34 -1 24 C-0.34 24 0.32 24 1 24 C0.96970703 23.30849854 0.93941406 22.61699707 0.90820312 21.90454102 C0.7719114 18.7905371 0.63595126 15.6765188 0.5 12.5625 C0.45230469 11.47388672 0.40460938 10.38527344 0.35546875 9.26367188 C0.31035156 8.22919922 0.26523437 7.19472656 0.21875 6.12890625 C0.17685547 5.17056885 0.13496094 4.21223145 0.09179688 3.22485352 C0 1 0 1 0 0 Z " fill="#131816" transform="translate(501,417)"/>
<path d="M0 0 C18.315 0.495 18.315 0.495 37 1 C37 1.33 37 1.66 37 2 C28.75 2 20.5 2 12 2 C12 2.99 12 3.98 12 5 C9.25 6.625 9.25 6.625 6 8 C3.625 7.1875 3.625 7.1875 2 6 C2 6.66 2 7.32 2 8 C0.68 8 -0.64 8 -2 8 C-2.125 5.625 -2.125 5.625 -2 3 C-1.34 2.34 -0.68 1.68 0 1 C0 0.67 0 0.34 0 0 Z " fill="#090C0B" transform="translate(577,749)"/>
<path d="M0 0 C0.33 0 0.66 0 1 0 C1.00808685 0.63956131 1.01617371 1.27912262 1.02450562 1.93806458 C1.1110534 8.63883199 1.21057444 15.3393205 1.31738281 22.03979492 C1.35549277 24.5351897 1.39037585 27.03063606 1.421875 29.52612305 C1.46791814 33.12827904 1.52584596 36.73008543 1.5859375 40.33203125 C1.59748871 41.43456741 1.60903992 42.53710358 1.62094116 43.67304993 C1.77024907 51.64028777 2.46765792 59.40297375 5 67 C3.125 66.875 3.125 66.875 1 66 C-0.76107425 61.82132639 -1.23030622 58.31651476 -1.13525391 53.81103516 C-1.11508209 52.61024323 -1.09491028 51.40945129 -1.0741272 50.17227173 C-1.04193085 48.89081268 -1.0097345 47.60935364 -0.9765625 46.2890625 C-0.95036418 44.9524408 -0.92509972 43.61580051 -0.90072632 42.27914429 C-0.83438028 38.77728559 -0.7554235 35.27582267 -0.67376709 31.77429199 C-0.59254748 28.19473348 -0.52335438 24.61494426 -0.453125 21.03515625 C-0.3138005 14.02316643 -0.16114153 7.01152146 0 0 Z " fill="#3B3D3A" transform="translate(682,532)"/>
<path d="M0 0 C2 2 2 2 2 6 C1.34 6 0.68 6 0 6 C0.33 8.31 0.66 10.62 1 13 C1.33 12.01 1.66 11.02 2 10 C3.84765625 9.26953125 3.84765625 9.26953125 6.0625 8.8125 C6.79597656 8.65394531 7.52945313 8.49539063 8.28515625 8.33203125 C8.85105469 8.22246094 9.41695312 8.11289062 10 8 C10 10.31 10 12.62 10 15 C9.34 14.34 8.68 13.68 8 13 C8.33 12.34 8.66 11.68 9 11 C7.02 11.99 7.02 11.99 5 13 C5 13.99 5 14.98 5 16 C1.71428571 20.92857143 1.71428571 20.92857143 0 23 C-0.66 23 -1.32 23 -2 23 C-1.85865273 20.10388456 -1.7120847 17.2081919 -1.5625 14.3125 C-1.52318359 13.49587891 -1.48386719 12.67925781 -1.44335938 11.83789062 C-1.23101997 7.80344189 -0.95552078 3.94252691 0 0 Z " fill="#151816" transform="translate(590,687)"/>
<path d="M0 0 C9.9 0 19.8 0 30 0 C30 0.33 30 0.66 30 1 C29.31373535 1.02505615 28.6274707 1.0501123 27.92041016 1.07592773 C24.82174183 1.19171427 21.72339077 1.31451885 18.625 1.4375 C17.54476563 1.47681641 16.46453125 1.51613281 15.3515625 1.55664062 C14.3203125 1.59853516 13.2890625 1.64042969 12.2265625 1.68359375 C10.79691162 1.73858032 10.79691162 1.73858032 9.33837891 1.79467773 C6.97867651 1.85763465 6.97867651 1.85763465 5 3 C5 3.66 5 4.32 5 5 C4.01 5.495 4.01 5.495 3 6 C1.99505737 8.00988527 1.21879534 10.01889951 0.4375 12.125 C0.16808594 12.84945313 -0.10132813 13.57390625 -0.37890625 14.3203125 C-0.58386719 14.87460937 -0.78882813 15.42890625 -1 16 C-1.66 15.67 -2.32 15.34 -3 15 C-3 13.02 -3 11.04 -3 9 C-2.67 9 -2.34 9 -2 9 C-1.34 6.03 -0.68 3.06 0 0 Z " fill="#151918" transform="translate(326,251)"/>
<path d="M0 0 C0.66 0.66 1.32 1.32 2 2 C-3.61 2 -9.22 2 -15 2 C-15.33 3.32 -15.66 4.64 -16 6 C-16.66 6 -17.32 6 -18 6 C-18.66 7.32 -19.32 8.64 -20 10 C-20.99 9.67 -21.98 9.34 -23 9 C-22.67 6.69 -22.34 4.38 -22 2 C-14.74479273 0.20224953 -7.47857174 -0.80465645 0 0 Z " fill="#1D201E" transform="translate(651,638)"/>
<path d="M0 0 C0.04241723 2.33294775 0.04092937 4.66702567 0 7 C-1 8 -1 8 -3.06640625 8.09765625 C-3.89011719 8.08605469 -4.71382812 8.07445312 -5.5625 8.0625 C-6.38878906 8.05347656 -7.21507812 8.04445313 -8.06640625 8.03515625 C-8.70449219 8.02355469 -9.34257813 8.01195312 -10 8 C-10 5.29745539 -9.96569331 3.49470772 -9 1 C-5.84213022 -1.36840234 -3.69270227 -1.02575063 0 0 Z " fill="#0E1311" transform="translate(647,329)"/>
<path d="M0 0 C0.66 0.66 1.32 1.32 2 2 C1.66666667 3.33333333 1.33333333 4.66666667 1 6 C1.66 6.66 2.32 7.32 3 8 C2.06027344 7.98259766 2.06027344 7.98259766 1.1015625 7.96484375 C-0.12433594 7.95130859 -0.12433594 7.95130859 -1.375 7.9375 C-2.59316406 7.92009766 -2.59316406 7.92009766 -3.8359375 7.90234375 C-6.04937142 7.85533666 -6.04937142 7.85533666 -8 9 C-9.67654729 8.72057545 -11.34608154 8.39171753 -13 8 C-13 7.01 -13 6.02 -13 5 C-12.29875 5.185625 -11.5975 5.37125 -10.875 5.5625 C-7.53150052 6.0712934 -5.23636727 6.00686982 -2 5 C-0.54708727 2.53744315 -0.54708727 2.53744315 0 0 Z " fill="#111514" transform="translate(334,622)"/>
<path d="M0 0 C0.33 0 0.66 0 1 0 C1 6.93 1 13.86 1 21 C1.66 21.33 2.32 21.66 3 22 C2.34 22.66 1.68 23.32 1 24 C0.32707499 25.96690374 0.32707499 25.96690374 -0.125 28.125 C-0.558125 30.043125 -0.558125 30.043125 -1 32 C-3 29 -3 29 -2.6875 27.0625 C-2.460625 26.381875 -2.23375 25.70125 -2 25 C-1.12884722 21.97393314 -0.81777776 19.15936467 -0.68359375 16.015625 C-0.64169922 15.08105469 -0.59980469 14.14648438 -0.55664062 13.18359375 C-0.49766602 11.73146484 -0.49766602 11.73146484 -0.4375 10.25 C-0.39431641 9.26644531 -0.35113281 8.28289063 -0.30664062 7.26953125 C-0.20077948 4.84648725 -0.09869829 2.4233446 0 0 Z " fill="#181C1B" transform="translate(642,563)"/>
<path d="M0 0 C4.95 0 9.9 0 15 0 C16.35439668 2.70879335 16.06501451 5.00933268 16 8 C14.68 8.33 13.36 8.66 12 9 C11.67 6.36 11.34 3.72 11 1 C7.37 1 3.74 1 0 1 C0 0.67 0 0.34 0 0 Z " fill="#131816" transform="translate(776,352)"/>
<path d="M0 0 C3.3 0 6.6 0 10 0 C10 0.66 10 1.32 10 2 C9.38125 2.28875 8.7625 2.5775 8.125 2.875 C5.86674235 3.93720042 5.86674235 3.93720042 4 6 C3.43796875 5.68289063 2.8759375 5.36578125 2.296875 5.0390625 C-0.15196317 3.93125475 -2.08387855 3.61024601 -4.75 3.375 C-5.54921875 3.30023438 -6.3484375 3.22546875 -7.171875 3.1484375 C-7.77515625 3.09945313 -8.3784375 3.05046875 -9 3 C-5.78360346 1.25434889 -3.67986596 0.795563 0 1 C0 0.67 0 0.34 0 0 Z " fill="#141615" transform="translate(552,359)"/>
<path d="M0 0 C0.66 0.33 1.32 0.66 2 1 C-1.63 4.63 -5.26 8.26 -9 12 C-10.32 11.01 -11.64 10.02 -13 9 C-11.8125 7 -11.8125 7 -10 5 C-9.21625 5.020625 -8.4325 5.04125 -7.625 5.0625 C-4.70009556 5.27581325 -4.70009556 5.27581325 -2.1875 2.5 C-1.465625 1.675 -0.74375 0.85 0 0 Z " fill="#090B0A" transform="translate(764,369)"/>
<path d="M0 0 C2.97 0 5.94 0 9 0 C8 3 8 3 6 4 C6.66 4.66 7.32 5.32 8 6 C2.25 6.125 2.25 6.125 0 5 C0 3.35 0 1.7 0 0 Z " fill="#0E1211" transform="translate(706,353)"/>
<path d="M0 0 C-1.37285156 0.41572266 -1.37285156 0.41572266 -2.7734375 0.83984375 C-4.55621094 1.38318359 -4.55621094 1.38318359 -6.375 1.9375 C-8.15003906 2.47697266 -8.15003906 2.47697266 -9.9609375 3.02734375 C-12.87926818 3.87576274 -12.87926818 3.87576274 -15 5 C-15.66 4.67 -16.32 4.34 -17 4 C-17 3.34 -17 2.68 -17 2 C-15.58398286 1.51891725 -14.16715563 1.04021859 -12.75 0.5625 C-11.96109375 0.29566406 -11.1721875 0.02882813 -10.359375 -0.24609375 C-9.58078125 -0.49488281 -8.8021875 -0.74367188 -8 -1 C-7.32453125 -1.23847656 -6.6490625 -1.47695313 -5.953125 -1.72265625 C-3.40442409 -2.08457178 -2.15972969 -1.31126445 0 0 Z " fill="#141716" transform="translate(663,739)"/>
<path d="M0 0 C2.31 0 4.62 0 7 0 C7 0.99 7 1.98 7 3 C6.32453125 3.04898438 5.6490625 3.09796875 4.953125 3.1484375 C4.06109375 3.22320313 3.1690625 3.29796875 2.25 3.375 C1.36828125 3.44460938 0.4865625 3.51421875 -0.421875 3.5859375 C-2.99066382 3.99850055 -4.75841015 4.71160957 -7 6 C-7.99 5.34 -8.98 4.68 -10 4 C-10 3.34 -10 2.68 -10 2 C-6.7 1.67 -3.4 1.34 0 1 C0 0.67 0 0.34 0 0 Z " fill="#1B1E1D" transform="translate(609,749)"/>
<path d="M0 0 C0.44730469 0.433125 0.89460937 0.86625 1.35546875 1.3125 C5.1027842 4.91552816 5.1027842 4.91552816 9.9375 6.375 C10.618125 6.25125 11.29875 6.1275 12 6 C11.67 6.99 11.34 7.98 11 9 C12.98 10.65 14.96 12.3 17 14 C16.01 14.33 15.02 14.66 14 15 C11.65864102 12.88370326 9.32835941 10.75558371 7 8.625 C6.33226562 8.02171875 5.66453125 7.4184375 4.9765625 6.796875 C4.34492188 6.21679688 3.71328125 5.63671875 3.0625 5.0390625 C2.47597656 4.50490723 1.88945312 3.97075195 1.28515625 3.42041016 C0 2 0 2 0 0 Z " fill="#080A08" transform="translate(253,589)"/>
<path d="M0 0 C2.475 0.99 2.475 0.99 5 2 C4 3 3 4 2 5 C1.154375 5.86625 0.30875 6.7325 -0.5625 7.625 C-3 10 -3 10 -5 11 C-3.14285714 2.28571429 -3.14285714 2.28571429 0 0 Z " fill="#171918" transform="translate(594,673)"/>
<path d="M0 0 C0.99 0.495 0.99 0.495 2 1 C2.40729228 3.32156597 2.74438677 5.6568787 3 8 C3.66 8 4.32 8 5 8 C5 9.65 5 11.3 5 13 C7.97 13.495 7.97 13.495 11 14 C11 14.33 11 14.66 11 15 C8.69 15 6.38 15 4 15 C1.94637945 9.91059256 0.56820748 5.45479185 0 0 Z " fill="#090A09" transform="translate(633,321)"/>
<path d="M0 0 C0.99 0.33 1.98 0.66 3 1 C3 4.96 3 8.92 3 13 C0.9375 10.75 0.9375 10.75 -1 8 C-0.6875 5.8125 -0.6875 5.8125 0 4 C-0.33 3.34 -0.66 2.68 -1 2 C-0.67 1.34 -0.34 0.68 0 0 Z M1 8 C2 10 2 10 2 10 Z " fill="#0B0F0D" transform="translate(696,686)"/>
<path d="M0 0 C3.96 0.33 7.92 0.66 12 1 C12 2.32 12 3.64 12 5 C10.35 5 8.7 5 7 5 C7 4.34 7 3.68 7 3 C6.030625 2.87625 5.06125 2.7525 4.0625 2.625 C3.051875 2.41875 2.04125 2.2125 1 2 C0.67 1.34 0.34 0.68 0 0 Z " fill="#151A18" transform="translate(707,612)"/>
<path d="M0 0 C3.49873271 1.39655297 4.70891831 2.71260484 6.25 6.125 C6.58515625 6.84945313 6.9203125 7.57390625 7.265625 8.3203125 C7.62914062 9.15175781 7.62914062 9.15175781 8 10 C6.35 9.67 4.7 9.34 3 9 C3 7.68 3 6.36 3 5 C2.01 4.67 1.02 4.34 0 4 C-0.33 3.01 -0.66 2.02 -1 1 C-0.67 0.67 -0.34 0.34 0 0 Z " fill="#131615" transform="translate(640,428)"/>
<path d="M0 0 C0.33 0 0.66 0 1 0 C1.05416188 1.60379341 1.09286638 3.20811406 1.125 4.8125 C1.14820313 5.70582031 1.17140625 6.59914063 1.1953125 7.51953125 C1 10 1 10 -1 13 C-1.33 12.01 -1.66 11.02 -2 10 C-2.99 10.495 -2.99 10.495 -4 11 C-4.33 10.01 -4.66 9.02 -5 8 C-4.34 7.34 -3.68 6.68 -3 6 C-2.01 6 -1.02 6 0 6 C0 4.02 0 2.04 0 0 Z " fill="#070908" transform="translate(700,698)"/>
<path d="M0 0 C2.2985113 4.5970226 3.69448102 7.8702582 2.0625 12.875 C1.711875 13.57625 1.36125 14.2775 1 15 C0.34 15 -0.32 15 -1 15 C-1.33 13.68 -1.66 12.36 -2 11 C-1.34 11 -0.68 11 0 11 C0 7.37 0 3.74 0 0 Z " fill="#1B1D1C" transform="translate(451,632)"/>
<path d="M0 0 C1.65 0.33 3.3 0.66 5 1 C5.33 1.99 5.66 2.98 6 4 C4.59554165 6.2636564 2.8032087 8.0208685 1 10 C0.34 9.67 -0.32 9.34 -1 9 C-0.34 8.01 0.32 7.02 1 6 C0.01 5.34 -0.98 4.68 -2 4 C-1.01 3.67 -0.02 3.34 1 3 C0.67 2.01 0.34 1.02 0 0 Z " fill="#141615" transform="translate(696,607)"/>
<path d="M0 0 C0.33 0 0.66 0 1 0 C1.66 5.28 2.32 10.56 3 16 C2.34 16 1.68 16 1 16 C1 15.34 1 14.68 1 14 C0.34 14 -0.32 14 -1 14 C-0.67 9.38 -0.34 4.76 0 0 Z " fill="#1F211F" transform="translate(320,290)"/>
<path d="M0 0 C2.31 0.66 4.62 1.32 7 2 C6.33333333 3.33333333 5.66666667 4.66666667 5 6 C2.93359375 6.6328125 2.93359375 6.6328125 0.4375 7.125 C-0.38878906 7.29257812 -1.21507812 7.46015625 -2.06640625 7.6328125 C-2.70449219 7.75398437 -3.34257812 7.87515625 -4 8 C-2.1875 6 -2.1875 6 0 4 C0.99 4 1.98 4 3 4 C3 3.34 3 2.68 3 2 C2.01 1.67 1.02 1.34 0 1 C0 0.67 0 0.34 0 0 Z " fill="#080B0A" transform="translate(336,615)"/>
<path d="M0 0 C0.66 0.33 1.32 0.66 2 1 C1.360625 1.78375 0.72125 2.5675 0.0625 3.375 C-1.98142313 5.79539281 -1.98142313 5.79539281 -3 8 C-4.65 8 -6.3 8 -8 8 C-7.34 6.68 -6.68 5.36 -6 4 C-5.34 4 -4.68 4 -4 4 C-3.67 3.34 -3.34 2.68 -3 2 C-2.01 1.34 -1.02 0.68 0 0 Z " fill="#161817" transform="translate(454,504)"/>
<path d="M0 0 C2.97 0.33 5.94 0.66 9 1 C9 1.99 9 2.98 9 4 C5.7 3.67 2.4 3.34 -1 3 C-0.67 2.01 -0.34 1.02 0 0 Z " fill="#1C1E1C" transform="translate(556,757)"/>
<path d="M0 0 C0.33 0.66 0.66 1.32 1 2 C-1.20826378 2.02722517 -3.41662638 2.04649729 -5.625 2.0625 C-6.85476563 2.07410156 -8.08453125 2.08570313 -9.3515625 2.09765625 C-12.67723791 2.00863924 -15.74047588 1.63686087 -19 1 C-19 0.67 -19 0.34 -19 0 C-16.58373582 -0.19534474 -14.16734771 -0.38153404 -11.75 -0.5625 C-11.06808594 -0.61857422 -10.38617187 -0.67464844 -9.68359375 -0.73242188 C-2.95679048 -1.22223765 -2.95679048 -1.22223765 0 0 Z " fill="#171C19" transform="translate(657,640)"/>
<path d="M0 0 C2.1793144 1.75864246 2.93686419 2.69396 3.51171875 5.48046875 C3.56972656 6.37378906 3.62773437 7.26710938 3.6875 8.1875 C3.75324219 9.08855469 3.81898438 9.98960937 3.88671875 10.91796875 C3.92410156 11.60503906 3.96148437 12.29210937 4 13 C3.01 12.67 2.02 12.34 1 12 C-0.61729417 8.32433144 -0.06546005 3.92760325 0 0 Z " fill="#191B19" transform="translate(503,559)"/>
<path d="M0 0 C0.66 1.32 1.32 2.64 2 4 C-0.91765 5.9451 -2.62537285 6.45276317 -6 7 C-6 6.01 -6 5.02 -6 4 C-4.35 3.67 -2.7 3.34 -1 3 C-0.67 2.01 -0.34 1.02 0 0 Z " fill="#161917" transform="translate(657,750)"/>
<path d="M0 0 C0 0.99 0 1.98 0 3 C-1.32 3 -2.64 3 -4 3 C-4.33 3.66 -4.66 4.32 -5 5 C-6.32 5 -7.64 5 -9 5 C-8.67 3.68 -8.34 2.36 -8 1 C-5.10765685 0.17361624 -3.11257569 0 0 0 Z " fill="#151918" transform="translate(400,616)"/>
<path d="M0 0 C0.66 0 1.32 0 2 0 C1.67 3.3 1.34 6.6 1 10 C-0.32 9.34 -1.64 8.68 -3 8 C-2.01 5.36 -1.02 2.72 0 0 Z " fill="#171918" transform="translate(460,567)"/>
<path d="M0 0 C0.99 0.33 1.98 0.66 3 1 C3.04241723 3.33294775 3.04092937 5.66702567 3 8 C2 9 2 9 -0.06640625 9.09765625 C-0.89011719 9.08605469 -1.71382812 9.07445312 -2.5625 9.0625 C-3.38878906 9.05347656 -4.21507812 9.04445313 -5.06640625 9.03515625 C-5.70449219 9.02355469 -6.34257813 9.01195312 -7 9 C-7 8.67 -7 8.34 -7 8 C-3.535 7.505 -3.535 7.505 0 7 C0 4.69 0 2.38 0 0 Z " fill="#3A3C38" transform="translate(644,328)"/>
<path d="M0 0 C-1.45255699 3.82946843 -3.42895561 5.12050295 -7 7 C-6.75 4.125 -6.75 4.125 -6 1 C-2.77922078 -1.38961039 -2.77922078 -1.38961039 0 0 Z " fill="#181B19" transform="translate(299,359)"/>
<path d="M0 0 C0.33 0.99 0.66 1.98 1 3 C1.515625 3.515625 2.03125 4.03125 2.5625 4.5625 C3.036875 5.036875 3.51125 5.51125 4 6 C4 6.66 4 7.32 4 8 C4.66 8 5.32 8 6 8 C6 8.99 6 9.98 6 11 C5.34 11 4.68 11 4 11 C1.01612595 7.8352851 -0.63501915 5.37977021 -1 1 C-0.67 0.67 -0.34 0.34 0 0 Z " fill="#171A19" transform="translate(683,671)"/>
<path d="M0 0 C3.71888239 0.50712033 6.73454239 1.11608215 10 3 C10 3.66 10 4.32 10 5 C6.30099992 4.11223998 2.65449539 3.05418136 -1 2 C-0.67 1.34 -0.34 0.68 0 0 Z " fill="#171919" transform="translate(319,608)"/>
<path d="M0 0 C0.99 0.495 0.99 0.495 2 1 C2 2.32 2 3.64 2 5 C2.66 5 3.32 5 4 5 C4.33 6.98 4.66 8.96 5 11 C3.35 10.67 1.7 10.34 0 10 C0 6.7 0 3.4 0 0 Z " fill="#131715" transform="translate(222,452)"/>
<path d="M0 0 C2 1 2 1 3 3 C3.99 3.66 4.98 4.32 6 5 C7.1875 7.625 7.1875 7.625 8 10 C6.70391053 9.06862408 5.41328368 8.1296434 4.125 7.1875 C3.40570312 6.66542969 2.68640625 6.14335937 1.9453125 5.60546875 C0 4 0 4 -2 1 C-1.34 0.67 -0.68 0.34 0 0 Z " fill="#161715" transform="translate(604,277)"/>
<path d="M0 0 C1.41750563 0.11509661 2.83401169 0.24253658 4.25 0.375 C5.03890625 0.44460938 5.8278125 0.51421875 6.640625 0.5859375 C9.085877 1.01507113 10.84836903 1.78600638 13 3 C11.02 3 9.04 3 7 3 C7 3.66 7 4.32 7 5 C6.34 4.67 5.68 4.34 5 4 C4.319375 3.690625 3.63875 3.38125 2.9375 3.0625 C1 2 1 2 0 0 Z " fill="#090A09" transform="translate(562,746)"/>
<path d="M0 0 C0.99 0 1.98 0 3 0 C3.66 1.98 4.32 3.96 5 6 C4.01 6.33 3.02 6.66 2 7 C2 6.01 2 5.02 2 4 C0.68 4.33 -0.64 4.66 -2 5 C-1.34 3.35 -0.68 1.7 0 0 Z " fill="#141715" transform="translate(455,652)"/>
<path d="M0 0 C0.66 0.33 1.32 0.66 2 1 C1.67 1.763125 1.34 2.52625 1 3.3125 C-0.17436686 5.99069135 -0.17436686 5.99069135 0 9 C-1.65 9 -3.3 9 -5 9 C-4.3566152 7.686298 -3.71021785 6.37407102 -3.0625 5.0625 C-2.70285156 4.33160156 -2.34320312 3.60070312 -1.97265625 2.84765625 C-1 1 -1 1 0 0 Z " fill="#080908" transform="translate(695,446)"/>
<path d="M0 0 C3.3 0 6.6 0 10 0 C10.33 0.99 10.66 1.98 11 3 C9.54077307 2.88590407 8.08259402 2.75834456 6.625 2.625 C5.40683594 2.52058594 5.40683594 2.52058594 4.1640625 2.4140625 C2 2 2 2 0 0 Z " fill="#151817" transform="translate(629,739)"/>
<path d="M0 0 C0.33 0 0.66 0 1 0 C1 4.95 1 9.9 1 15 C0.01 14.01 -0.98 13.02 -2 12 C-1.85546875 9.08203125 -1.85546875 9.08203125 -1.1875 5.8125 C-0.97480469 4.72582031 -0.76210938 3.63914062 -0.54296875 2.51953125 C-0.36378906 1.68808594 -0.18460938 0.85664062 0 0 Z " fill="#1F211F" transform="translate(701,687)"/>
<path d="M0 0 C0.66 1.32 1.32 2.64 2 4 C2.66 4 3.32 4 4 4 C3.67 2.68 3.34 1.36 3 0 C3.66 0 4.32 0 5 0 C5 1.65 5 3.3 5 5 C4.360625 5.28875 3.72125 5.5775 3.0625 5.875 C0.84793921 6.82823451 0.84793921 6.82823451 0 9 C0 6.03 0 3.06 0 0 Z " fill="#131817" transform="translate(220,481)"/>
<path d="M0 0 C0.66 0.33 1.32 0.66 2 1 C0.68 3.31 -0.64 5.62 -2 8 C-2.99 8 -3.98 8 -5 8 C-5 7.01 -5 6.02 -5 5 C-4.34 5 -3.68 5 -3 5 C-2.87625 4.360625 -2.7525 3.72125 -2.625 3.0625 C-2.41875 2.381875 -2.2125 1.70125 -2 1 C-1.34 0.67 -0.68 0.34 0 0 Z " fill="#161817" transform="translate(701,464)"/>
<path d="M0 0 C1.32 0.66 2.64 1.32 4 2 C4 2.66 4 3.32 4 4 C4.99 4.33 5.98 4.66 7 5 C6.01 5.33 5.02 5.66 4 6 C2.35 4.35 0.7 2.7 -1 1 C-0.67 0.67 -0.34 0.34 0 0 Z M-1 3 C-0.67 3.66 -0.34 4.32 0 5 C-0.66 4.67 -1.32 4.34 -2 4 C-1.67 3.67 -1.34 3.34 -1 3 Z " fill="#212322" transform="translate(488,703)"/>
<path d="M0 0 C0.99 0.33 1.98 0.66 3 1 C0.375 5.875 0.375 5.875 -3 7 C-3.66 6.34 -4.32 5.68 -5 5 C-3.68 4.67 -2.36 4.34 -1 4 C-0.67 2.68 -0.34 1.36 0 0 Z " fill="#161918" transform="translate(290,610)"/>
<path d="M0 0 C1.485 0.99 1.485 0.99 3 2 C3.3125 5.5 3.3125 5.5 3 9 C2.34 9.66 1.68 10.32 1 11 C0 10 0 10 -0.09765625 7.71484375 C-0.08605469 6.79832031 -0.07445312 5.88179688 -0.0625 4.9375 C-0.05347656 4.01839844 -0.04445313 3.09929687 -0.03515625 2.15234375 C-0.02355469 1.44207031 -0.01195312 0.73179687 0 0 Z " fill="#1F221F" transform="translate(263,504)"/>
<path d="M0 0 C0.33 0 0.66 0 1 0 C1 3.96 1 7.92 1 12 C0.34 11.67 -0.32 11.34 -1 11 C-1.59355614 8.35139573 -1.74209269 5.70802678 -2 3 C-1.34 3 -0.68 3 0 3 C0 2.01 0 1.02 0 0 Z " fill="#141817" transform="translate(262,487)"/>
<path d="M0 0 C4.875 1.75 4.875 1.75 6 4 C5.34 4.66 4.68 5.32 4 6 C3.01 5.67 2.02 5.34 1 5 C1 4.34 1 3.68 1 3 C0.34 2.67 -0.32 2.34 -1 2 C-0.67 1.34 -0.34 0.68 0 0 Z " fill="#131716" transform="translate(473,687)"/>
<path d="M0 0 C3.3 0.33 6.6 0.66 10 1 C8.515 2.485 8.515 2.485 7 4 C3.3125 3.6875 3.3125 3.6875 0 3 C0 2.01 0 1.02 0 0 Z " fill="#1E201E" transform="translate(321,627)"/>
<path d="M0 0 C2.97 0.495 2.97 0.495 6 1 C1.16353702 4.22430866 -1.26939984 4.09242903 -7 4 C-7 3.67 -7 3.34 -7 3 C-4.69 2.34 -2.38 1.68 0 1 C0 0.67 0 0.34 0 0 Z " fill="#1B1E1D" transform="translate(618,609)"/>
<path d="M0 0 C0.66 0 1.32 0 2 0 C4 2 4 2 6 5 C3.69 4.67 1.38 4.34 -1 4 C-0.67 2.68 -0.34 1.36 0 0 Z " fill="#141716" transform="translate(278,565)"/>
<path d="M0 0 C3.96 0.99 3.96 0.99 8 2 C8 2.33 8 2.66 8 3 C5.03 3.66 2.06 4.32 -1 5 C-1.33 4.01 -1.66 3.02 -2 2 C-1.34 1.67 -0.68 1.34 0 1 C0 0.67 0 0.34 0 0 Z " fill="#1F211F" transform="translate(778,359)"/>
<path d="M0 0 C1.65 0 3.3 0 5 0 C4.01 0.495 4.01 0.495 3 1 C3 1.99 3 2.98 3 4 C2.01 4.33 1.02 4.66 0 5 C-0.99 4.34 -1.98 3.68 -3 3 C-2.01 2.67 -1.02 2.34 0 2 C0 1.34 0 0.68 0 0 Z " fill="#191C1B" transform="translate(665,747)"/>
<path d="M0 0 C0.99 0.99 1.98 1.98 3 3 C2 5 2 5 0.0625 5.75 C-0.618125 5.8325 -1.29875 5.915 -2 6 C-2.66 5.34 -3.32 4.68 -4 4 C-2.68 2.68 -1.36 1.36 0 0 Z " fill="#171B19" transform="translate(618,741)"/>
<path d="M0 0 C0.99 0.33 1.98 0.66 3 1 C3 1.66 3 2.32 3 3 C3.99 3.33 4.98 3.66 6 4 C5.67 4.66 5.34 5.32 5 6 C4.01 6 3.02 6 2 6 C1.34 4.02 0.68 2.04 0 0 Z " fill="#171919" transform="translate(592,720)"/>
<path d="M0 0 C-1.125 1.5 -1.125 1.5 -3 3 C-6.1875 3.1875 -6.1875 3.1875 -9 3 C-7.14340032 -0.71319936 -3.69365381 -0.09982848 0 0 Z " fill="#F5F5F3" transform="translate(377,633)"/>
</svg>
