<?xml version="1.0" encoding="UTF-8"?>
<svg version="1.1" xmlns="http://www.w3.org/2000/svg" width="1024" height="1024">
<path d="M0 0 C337.92 0 675.84 0 1024 0 C1024 337.92 1024 675.84 1024 1024 C686.08 1024 348.16 1024 0 1024 C0 686.08 0 348.16 0 0 Z " fill="#FCFBF9" transform="translate(0,0)"/>
<path d="M0 0 C29.92509453 -0.9205951 57.72299537 5.28426697 85.23876953 16.75390625 C86.34285156 17.21071777 87.44693359 17.6675293 88.58447266 18.13818359 C90.73349002 19.03445473 92.87591549 19.94675506 95.01025391 20.87744141 C101.30736545 23.5121349 106.9077592 25.31806027 113.76220703 24.078125 C120.06606343 21.19040802 122.69603954 15.96670039 126.06103516 10.21484375 C127.29736328 8.21875 127.29736328 8.21875 129.76220703 5.078125 C132.50830078 4.5625 132.50830078 4.5625 134.76220703 5.078125 C135.76220703 6.078125 135.76220703 6.078125 135.88525486 7.82537937 C135.88433307 8.59138934 135.88341127 9.35739931 135.88246155 10.1466217 C135.88452354 11.46129173 135.88452354 11.46129173 135.8866272 12.80252075 C135.88303192 13.77140228 135.87943665 14.74028381 135.87573242 15.73852539 C135.87587845 16.75304276 135.87602448 17.76756012 135.87617493 18.81282043 C135.87547532 22.18382873 135.86768072 25.55478254 135.85986328 28.92578125 C135.85799927 31.25605743 135.85657529 33.586334 135.85557556 35.91661072 C135.85174905 42.06349765 135.84191763 48.21036113 135.83087158 54.35723877 C135.82066032 60.62422366 135.81607855 66.89121232 135.81103516 73.15820312 C135.80029548 85.46485408 135.78321747 97.77148759 135.76220703 110.078125 C133.53329708 111.19257998 132.23165597 111.24292786 129.76220703 111.265625 C128.71033203 111.28689453 128.71033203 111.28689453 127.63720703 111.30859375 C125.76220703 111.078125 125.76220703 111.078125 123.76220703 109.078125 C122.92691888 106.45795794 122.16879038 103.8548163 121.44970703 101.203125 C112.9393296 71.36681645 94.1649561 45.25029884 66.90673828 29.84765625 C40.62615193 15.68401643 7.14103864 11.3943459 -21.64160156 19.77832031 C-37.34204163 24.75017845 -50.94979719 31.98169244 -63.23779297 43.078125 C-64.48302734 44.19960938 -64.48302734 44.19960938 -65.75341797 45.34375 C-98.09570388 76.05875109 -110.26535034 123.60279472 -111.47085571 166.82104492 C-111.87401975 185.07514093 -111.44910643 203.06030672 -108.23779297 221.078125 C-108.06618652 222.07054199 -107.89458008 223.06295898 -107.71777344 224.08544922 C-100.88955451 262.6078318 -83.82331326 298.83305497 -51.02612305 321.83666992 C-22.18598568 341.4915345 14.36527329 347.89690088 48.61181641 341.53735352 C57.98266551 339.57472075 67.08680449 337.19338005 75.76220703 333.078125 C77.18146484 332.41876953 77.18146484 332.41876953 78.62939453 331.74609375 C87.89485499 327.08769742 96.35156031 321.07546975 100.14111328 311.12109375 C101.33367222 307.19839988 101.88971409 303.81977553 101.90264893 299.69544983 C101.90835907 298.60333694 101.91406921 297.51122406 101.91995239 296.38601685 C101.92107025 295.19265717 101.92218811 293.99929749 101.92333984 292.76977539 C101.92830475 291.50925858 101.93326965 290.24874176 101.93838501 288.95002747 C101.95148299 285.49549384 101.9579485 282.04097963 101.96239567 278.58642507 C101.9653297 276.42749665 101.96943506 274.26857351 101.97389984 272.10964775 C101.98756594 265.35269161 101.99723777 258.59574756 102.00110173 251.83877856 C102.00558492 244.04233257 102.02314852 236.24606169 102.05210233 228.44966894 C102.0737177 222.41983241 102.08380588 216.39004517 102.08514285 210.3601703 C102.08619069 206.76003973 102.09209429 203.16007396 102.10996246 199.55998421 C102.12950267 195.54517093 102.12515481 191.53072468 102.11865234 187.51586914 C102.12786713 186.32453369 102.13708191 185.13319824 102.14657593 183.90576172 C102.14100677 182.81082901 102.13543762 181.7158963 102.12969971 180.58778381 C102.13189955 179.16449312 102.13189955 179.16449312 102.13414383 177.71244907 C101.68429813 174.52631806 100.66642647 172.65486474 98.76220703 170.078125 C89.62941545 165.88644041 79.08451783 167.58166457 69.89892578 170.76171875 C54.57657872 177.19214336 47.76400515 188.37625928 40.54736328 202.61328125 C38.76220703 206.078125 38.76220703 206.078125 37.76220703 207.078125 C34.76217258 207.21990357 31.76463468 207.12041271 28.76220703 207.078125 C29.2389292 196.29753855 31.23962816 185.76661834 33.14575195 175.16650391 C33.70311837 172.05910629 34.2477878 168.94965554 34.79150391 165.83984375 C35.1442637 163.85663624 35.49775298 161.87355832 35.85205078 159.890625 C36.09434669 158.50157959 36.09434669 158.50157959 36.34153748 157.08447266 C36.49832474 156.22257324 36.655112 155.36067383 36.81665039 154.47265625 C36.9513121 153.71831299 37.08597382 152.96396973 37.22471619 152.18676758 C37.79641118 149.94393794 38.70195143 148.12775865 39.76220703 146.078125 C74.26898227 146.05525969 108.77575578 146.03762731 143.28253695 146.02705967 C147.35201358 146.02580889 151.42149019 146.02451458 155.4909668 146.02319336 C156.30116109 146.02293105 157.11135538 146.02266874 157.94610102 146.02239848 C171.08217626 146.01804157 184.21824715 146.01015391 197.3543198 146.0009722 C210.82294216 145.99163624 224.29156223 145.98606951 237.76018769 145.98403651 C246.07784883 145.98266116 254.39549768 145.97830994 262.71315504 145.97020853 C268.4090111 145.96494178 274.10486075 145.96332054 279.80071907 145.96462362 C283.09191071 145.96526712 286.38307606 145.9637098 289.67426491 145.95891953 C293.23410905 145.95398965 296.79389928 145.95512409 300.35374451 145.95787048 C301.93104573 145.95350122 301.93104573 145.95350122 303.54021162 145.94904369 C304.95919849 145.95203026 304.95919849 145.95203026 306.40685177 145.95507717 C307.22970572 145.95469745 308.05255968 145.95431773 308.9003486 145.9539265 C310.76220703 146.078125 310.76220703 146.078125 311.76220703 147.078125 C313.04388591 154.52599122 308.9717445 159.06966213 304.82470703 164.953125 C303.71368763 166.57282316 302.60267906 168.19252888 301.49232483 169.81268311 C300.34018378 171.48813911 299.18071503 173.15828934 298.01904297 174.82714844 C295.29450924 178.75184458 292.61054596 182.70295422 289.92993164 186.65771484 C287.85146742 189.72300754 285.76601358 192.7834707 283.68017578 195.84375 C277.68073821 204.6537529 271.72327257 213.49213757 265.76220703 222.328125 C265.18604645 223.18209869 264.60988586 224.03607239 264.01626587 224.91592407 C261.66780319 228.39677535 259.31937023 231.87764667 256.97105408 235.3585968 C251.54464559 243.40180962 246.11361954 251.44189733 240.68106079 259.48095703 C239.13529303 261.76845744 237.58972046 264.05608962 236.04418945 266.34375 C231.36757411 273.26558204 226.68961755 280.18649725 222.0070343 287.10429382 C219.36221335 291.01175607 216.71832749 294.91985049 214.07470703 298.828125 C213.55971649 299.58932648 213.04472595 300.35052795 212.51412964 301.13479614 C206.8417609 309.52152665 201.18924288 317.92077599 195.58251953 326.3515625 C195.08332504 327.10199829 194.58413055 327.85243408 194.06980896 328.62561035 C191.71438407 332.16805581 189.36226066 335.71262999 187.01538086 339.26074219 C182.72878842 345.72783785 178.34461509 352.07818172 173.74438477 358.32861328 C170.3770295 362.9995278 167.21604455 367.8083661 164.04199219 372.61157227 C161.87264706 375.89343554 159.69441163 379.16938752 157.51611328 382.4453125 C157.05447784 383.1397345 156.59284241 383.83415649 156.11721802 384.54962158 C150.54420618 392.92304531 144.90161662 401.24934903 139.26220703 409.578125 C128.35245468 425.69471862 117.53938855 441.87243723 106.76220703 458.078125 C127.05720703 458.573125 127.05720703 458.573125 147.76220703 459.078125 C148.42220703 457.428125 149.08220703 455.778125 149.76220703 454.078125 C151.38124036 452.01498183 152.980619 450.11227523 154.76220703 448.203125 C155.25205078 447.6764624 155.74189453 447.1497998 156.24658203 446.60717773 C167.93364254 434.36475594 183.66948724 427.13916696 200.63720703 426.703125 C215.0747903 427.05370649 228.05048441 430.85438808 239.53564453 439.58984375 C242.42260818 441.53098517 242.42260818 441.53098517 245.76220703 442.078125 C264.32309632 432.34461928 275.11771838 411.79553791 281.24267578 392.56640625 C281.9066063 390.42668135 282.55144084 388.2848261 283.16503906 386.13012695 C284.56773503 381.272597 284.56773503 381.272597 286.76220703 379.078125 C290.26220703 378.828125 290.26220703 378.828125 293.76220703 379.078125 C295.76220703 381.078125 295.76220703 381.078125 296.0319519 383.02270508 C295.98582663 392.35293043 294.79858473 401.5214624 293.64501953 410.765625 C293.42525781 412.55871359 293.20585267 414.35184591 292.98678589 416.14501953 C292.52881194 419.8806064 292.06592961 423.61554381 291.59960938 427.35009766 C291.00221943 432.13832126 290.41824814 436.92807368 289.83798409 441.71839905 C289.38899931 445.41134291 288.93251465 449.10333001 288.47378159 452.79507446 C288.25525847 454.56184004 288.03919153 456.32891121 287.82562637 458.09628296 C287.52719064 460.55740674 287.21857071 463.01704307 286.90722656 465.4765625 C286.82090973 466.205905 286.7345929 466.9352475 286.6456604 467.68669128 C286.19281747 471.17730306 285.75332158 473.09145318 283.76220703 476.078125 C281.69921875 476.41870117 281.69921875 476.41870117 279.19189453 476.37109375 C278.29599609 476.36142578 277.40009766 476.35175781 276.47705078 476.34179688 C275.53990234 476.31666016 274.60275391 476.29152344 273.63720703 476.265625 C272.69232422 476.25208984 271.74744141 476.23855469 270.77392578 476.22460938 C268.43611924 476.18918806 266.09944466 476.13979771 263.76220703 476.078125 C263.92205078 476.71621094 264.08189453 477.35429688 264.24658203 478.01171875 C267.16161934 495.34735729 263.88785023 512.24965705 253.91064453 526.7734375 C243.91717825 539.79281389 230.3465842 549.2893873 214.07861328 552.67578125 C194.10820721 555.09857492 177.31148827 551.35864168 161.13720703 538.953125 C148.18626553 527.92632338 141.00182419 513.81353194 138.76220703 497.078125 C138.30457895 490.33836229 138.3555917 483.70317048 139.76220703 477.078125 C138.56395294 477.08256622 137.36569885 477.08700745 136.13113403 477.09158325 C124.85920125 477.13206128 113.58728314 477.16207661 102.31529427 477.18174934 C96.51973577 477.19220315 90.72423576 477.2063914 84.92871094 477.22900391 C79.3396128 477.25067544 73.75057107 477.26268158 68.16143417 477.26787949 C66.02510566 477.2715855 63.88878036 477.27882201 61.75247574 477.28958511 C58.76883431 477.30402444 55.78542834 477.30610612 52.80175781 477.30517578 C51.91127747 477.31236633 51.02079712 477.31955688 50.10333252 477.32696533 C43.99031135 477.30622932 43.99031135 477.30622932 41.76220703 475.078125 C40.99061257 470.32013179 42.91502976 467.80003458 45.58251953 463.96875 C46.19207741 463.08163834 46.19207741 463.08163834 46.81394958 462.17660522 C48.16143927 460.21979672 49.52441293 458.27429819 50.88720703 456.328125 C52.32409081 454.24887367 53.75674615 452.16674957 55.18928528 450.08450317 C56.18664379 448.63540626 57.18535519 447.18723965 58.18534851 445.73995972 C63.18522682 438.49629574 68.05461069 431.16837912 72.91491699 423.83065796 C79.32042024 414.16402754 85.75046012 404.53190435 92.50634766 395.10522461 C97.27163571 388.43059236 101.786495 381.59283109 106.31884766 374.75878906 C114.13649107 362.98015663 122.09115883 351.29510591 130.04492188 339.6081543 C131.2923093 337.77041249 132.53016428 335.92618912 133.76220703 334.078125 C133.05112793 334.45324219 132.34004883 334.82835937 131.60742188 335.21484375 C124.04310154 339.11299098 116.41251014 342.2638677 108.38720703 345.078125 C107.16839844 345.50818848 105.94958984 345.93825195 104.69384766 346.38134766 C44.6069013 367.26101184 -19.6805327 369.00642574 -77.78881836 340.90917969 C-117.82990034 320.96191895 -146.09281075 286.00099974 -160.64013672 244.05859375 C-163.45220315 235.54161697 -165.49691967 226.87076114 -167.23779297 218.078125 C-167.4029541 217.24619629 -167.56811523 216.41426758 -167.73828125 215.55712891 C-176.58732581 168.87773252 -166.55957124 117.92394511 -139.93969727 78.50512695 C-134.4425118 70.60275668 -128.40865329 63.40838482 -121.66845703 56.54394531 C-120.30364449 55.14559472 -118.96904925 53.71794029 -117.63623047 52.2890625 C-88.21123287 21.44170852 -42.61311701 1.48769337 0 0 Z " fill="#0F1110" transform="translate(438.23779296875,239.921875)"/>
<path d="M0 0 C34.50677524 -0.02286531 69.01354875 -0.04049769 103.52032992 -0.05106533 C107.58980655 -0.05231611 111.65928316 -0.05361042 115.72875977 -0.05493164 C116.53895406 -0.05519395 117.34914835 -0.05545626 118.18389399 -0.05572652 C131.31996923 -0.06008343 144.45604012 -0.06797109 157.59211277 -0.0771528 C171.06073513 -0.08648876 184.5293552 -0.09205549 197.99798065 -0.09408849 C206.3156418 -0.09546384 214.63329064 -0.09981506 222.95094801 -0.10791647 C228.64680407 -0.11318322 234.34265372 -0.11480446 240.03851204 -0.11350138 C243.32970368 -0.11285788 246.62086903 -0.1144152 249.91205788 -0.11920547 C253.47190202 -0.12413535 257.03169225 -0.12300091 260.59153748 -0.12025452 C262.1688387 -0.12462378 262.1688387 -0.12462378 263.77800459 -0.12908131 C265.19699146 -0.12609474 265.19699146 -0.12609474 266.64464474 -0.12304783 C267.46749869 -0.12342755 268.29035265 -0.12380727 269.13814157 -0.1241985 C271 0 271 0 272 1 C273.28167888 8.44786622 269.20953747 12.99153713 265.0625 18.875 C263.9514806 20.49469816 262.84047202 22.11440388 261.7301178 23.73455811 C260.57797675 25.41001411 259.418508 27.08016434 258.25683594 28.74902344 C255.53230221 32.67371958 252.84833893 36.62482922 250.16772461 40.57958984 C248.08926039 43.64488254 246.00380655 46.7053457 243.91796875 49.765625 C237.91853118 58.5756279 231.96106553 67.41401257 226 76.25 C225.42383942 77.10397369 224.84767883 77.95794739 224.25405884 78.83779907 C221.90559615 82.31865035 219.5571632 85.79952167 217.20884705 89.2804718 C211.78243856 97.32368462 206.35141251 105.36377233 200.91885376 113.40283203 C199.37308599 115.69033244 197.82751343 117.97796462 196.28198242 120.265625 C191.60540579 127.18739975 186.92747676 134.10825011 182.24494934 141.02600098 C168.07574067 161.95949888 153.99014488 182.94637893 140 204 C139.67 203.01 139.34 202.02 139 201 C139.92578125 199.3515625 139.92578125 199.3515625 141.3125 197.625 C144.52200766 193.39023295 146 190.41809708 146 185 C146.66 185 147.32 185 148 185 C148 184.34 148 183.68 148 183 C147.34 182.67 146.68 182.34 146 182 C146.45375 181.4225 146.9075 180.845 147.375 180.25 C148.8662105 178.185247 150.08138759 176.37308207 151 174 C150.67 173.01 150.34 172.02 150 171 C148.35 171.33 146.7 171.66 145 172 C144.67 170.35 144.34 168.7 144 167 C145.98 165.68 147.96 164.36 150 163 C149.01 162.01 148.02 161.02 147 160 C146.67 160.99 146.34 161.98 146 163 C145.34 162.67 144.68 162.34 144 162 C143.01 161.67 142.02 161.34 141 161 C140.34 160.67 139.68 160.34 139 160 C138.67 160.66 138.34 161.32 138 162 C138 161.34 138 160.68 138 160 C136.68 160.33 135.36 160.66 134 161 C134.66 162.32 135.32 163.64 136 165 C135.01 165 134.02 165 133 165 C132.34 166.32 131.68 167.64 131 169 C130.34 169 129.68 169 129 169 C128.67 169.99 128.34 170.98 128 172 C127.34 171.67 126.68 171.34 126 171 C126 171.66 126 172.32 126 173 C125.34 173 124.68 173 124 173 C123.67 172.34 123.34 171.68 123 171 C119.09594114 175.40785039 119.09594114 175.40785039 118.1875 180.9375 C118.455625 181.618125 118.72375 182.29875 119 183 C118.01 183.33 117.02 183.66 116 184 C115.30341637 185.65438613 114.63903117 187.32254318 114 189 C112.375 190.8125 112.375 190.8125 111 192 C111 191.34 111 190.68 111 190 C110.38125 189.938125 109.7625 189.87625 109.125 189.8125 C107 189 107 189 105.6875 186.625 C105 184 105 184 106 181 C105.01 181.33 104.02 181.66 103 182 C101.515 181.01 101.515 181.01 100 180 C100.99 179.67 101.98 179.34 103 179 C101.02 177.02 101.02 177.02 99 175 C100 172 100 172 101 171 C101.07244053 168.98035801 101.08377188 166.95832876 101.0625 164.9375 C101.05347656 163.83277344 101.04445313 162.72804688 101.03515625 161.58984375 C101.02355469 160.73519531 101.01195312 159.88054687 101 159 C100.34 158.67 99.68 158.34 99 158 C99.33 157.67 99.66 157.34 100 157 C99.01 156.67 98.02 156.34 97 156 C97 155.34 97 154.68 97 154 C96.34 153.67 95.68 153.34 95 153 C95.99 153 96.98 153 98 153 C98.12375 151.88625 98.2475 150.7725 98.375 149.625 C99.09548903 145.44616361 100.12209422 144.87790578 103 142 C103.28477502 139.95317711 103.28477502 139.95317711 103.21118164 137.58203125 C103.20780289 136.66768311 103.20442413 135.75333496 103.20094299 134.8112793 C103.18075356 133.32688354 103.18075356 133.32688354 103.16015625 131.8125 C103.15495468 130.79905518 103.14975311 129.78561035 103.14439392 128.74145508 C103.1265343 125.49415978 103.09535547 122.24717558 103.0625 119 C103.03492085 115.7528545 103.01020813 112.50575288 102.99131775 109.25854492 C102.97902288 107.23522949 102.96138305 105.21193841 102.93800354 103.1887207 C102.92820717 101.81719849 102.92820717 101.81719849 102.91821289 100.41796875 C102.90995987 99.61125732 102.90170685 98.8045459 102.89320374 97.97338867 C103 96 103 96 104 94 C101.46653542 93.92962598 99.2762137 93.92897362 96.8125 94.5625 C95 95 95 95 93 94 C91.66667905 91.3333581 92.32897967 89.83319697 93 87 C89.75150023 88.72226496 89.75150023 88.72226496 89 92 C88.67 91.34 88.34 90.68 88 90 C86.68 90.33 85.36 90.66 84 91 C83.67 90.01 83.34 89.02 83 88 C82.34 88.99 81.68 89.98 81 91 C79.35 90.01 77.7 89.02 76 88 C75.505 88.639375 75.01 89.27875 74.5 89.9375 C71.02610798 92.80346091 68.44306901 92.57104517 64 93 C64.00444122 93.84746796 64.00888245 94.69493591 64.01345825 95.56808472 C64.05348518 103.54359952 64.08395899 111.51908073 64.10362434 119.49467278 C64.11407426 123.59528757 64.12825537 127.69581958 64.15087891 131.79638672 C64.1725644 135.75155581 64.18455952 139.70664511 64.18975449 143.66186905 C64.19345799 145.17299786 64.20068975 146.68412217 64.21146011 148.19521713 C64.22591823 150.30716232 64.22798037 152.41877524 64.22705078 154.53076172 C64.231492 155.73433319 64.23593323 156.93790466 64.24050903 158.177948 C64 161 64 161 62 163 C62.00276538 162.31400884 62.00553076 161.62801767 62.00837994 160.9212389 C62.07463469 144.22910215 62.12427808 127.53700705 62.15543652 110.84476948 C62.17090503 102.77252289 62.19199421 94.70036408 62.22631836 86.62817383 C62.25622124 79.59240144 62.27557512 72.55669263 62.28226548 65.52085847 C62.28617626 61.79546024 62.29536664 58.07024388 62.31719017 54.34490395 C62.34135599 50.18598998 62.34196942 46.02739215 62.34057617 41.8684082 C62.351362 40.63338562 62.36214783 39.39836304 62.3732605 38.12591553 C62.36913651 36.99154556 62.36501251 35.8571756 62.36076355 34.68843079 C62.36352893 33.70487767 62.36629431 32.72132456 62.36914349 31.7079668 C61.92852758 28.47569187 60.93709972 26.60747188 59 24 C49.86720842 19.80831541 39.3223108 21.50353957 30.13671875 24.68359375 C14.81437169 31.11401836 8.00179812 42.29813428 0.78515625 56.53515625 C-1 60 -1 60 -2 61 C-5.00003445 61.14177857 -7.99757235 61.04228771 -11 61 C-10.52327783 50.21941355 -8.52257887 39.68849334 -6.61645508 29.08837891 C-6.05908866 25.98098129 -5.51441924 22.87153054 -4.97070312 19.76171875 C-4.61794333 17.77851124 -4.26445405 15.79543332 -3.91015625 13.8125 C-3.74862564 12.88646973 -3.58709503 11.96043945 -3.42066956 11.00634766 C-3.18548866 9.71349854 -3.18548866 9.71349854 -2.94555664 8.39453125 C-2.81089493 7.64018799 -2.67623322 6.88584473 -2.53749084 6.10864258 C-1.96579586 3.86581294 -1.0602556 2.04963365 0 0 Z M82 91 C82.99 91.495 82.99 91.495 84 92 C83.01 92.495 83.01 92.495 82 93 C82 92.34 82 91.68 82 91 Z " fill="#0E1110" transform="translate(478,386)"/>
<path d="M0 0 C29.92509453 -0.9205951 57.72299537 5.28426697 85.23876953 16.75390625 C86.34285156 17.21071777 87.44693359 17.6675293 88.58447266 18.13818359 C90.73349002 19.03445473 92.87591549 19.94675506 95.01025391 20.87744141 C101.30736545 23.5121349 106.9077592 25.31806027 113.76220703 24.078125 C120.06606343 21.19040802 122.69603954 15.96670039 126.06103516 10.21484375 C127.29736328 8.21875 127.29736328 8.21875 129.76220703 5.078125 C132.50830078 4.5625 132.50830078 4.5625 134.76220703 5.078125 C135.76220703 6.078125 135.76220703 6.078125 135.88525486 7.82537937 C135.88433307 8.59138934 135.88341127 9.35739931 135.88246155 10.1466217 C135.88452354 11.46129173 135.88452354 11.46129173 135.8866272 12.80252075 C135.88303192 13.77140228 135.87943665 14.74028381 135.87573242 15.73852539 C135.87587845 16.75304276 135.87602448 17.76756012 135.87617493 18.81282043 C135.87547532 22.18382873 135.86768072 25.55478254 135.85986328 28.92578125 C135.85799927 31.25605743 135.85657529 33.586334 135.85557556 35.91661072 C135.85174905 42.06349765 135.84191763 48.21036113 135.83087158 54.35723877 C135.82066032 60.62422366 135.81607855 66.89121232 135.81103516 73.15820312 C135.80029548 85.46485408 135.78321747 97.77148759 135.76220703 110.078125 C133.53329708 111.19257998 132.23165597 111.24292786 129.76220703 111.265625 C128.71033203 111.28689453 128.71033203 111.28689453 127.63720703 111.30859375 C125.76220703 111.078125 125.76220703 111.078125 123.76220703 109.078125 C122.92691888 106.45795794 122.16879038 103.8548163 121.44970703 101.203125 C112.9393296 71.36681645 94.1649561 45.25029884 66.90673828 29.84765625 C40.62615193 15.68401643 7.14103864 11.3943459 -21.64160156 19.77832031 C-37.34204163 24.75017845 -50.94979719 31.98169244 -63.23779297 43.078125 C-64.48302734 44.19960938 -64.48302734 44.19960938 -65.75341797 45.34375 C-98.09570388 76.05875109 -110.26535034 123.60279472 -111.47085571 166.82104492 C-111.87401975 185.07514093 -111.44910643 203.06030672 -108.23779297 221.078125 C-108.06618652 222.07054199 -107.89458008 223.06295898 -107.71777344 224.08544922 C-101.05519724 261.6733344 -84.61812196 297.75229116 -52.80029297 320.578125 C-44.96794759 326.03909785 -37.07621453 330.41159599 -28.23779297 334.078125 C-28.23779297 335.068125 -28.23779297 336.058125 -28.23779297 337.078125 C-28.89779297 337.078125 -29.55779297 337.078125 -30.23779297 337.078125 C-30.56779297 338.068125 -30.89779297 339.058125 -31.23779297 340.078125 C-32.88419261 341.43640471 -34.55075104 342.77066751 -36.23779297 344.078125 C-36.56779297 344.738125 -36.89779297 345.398125 -37.23779297 346.078125 C-37.89779297 346.078125 -38.55779297 346.078125 -39.23779297 346.078125 C-39.23779297 347.398125 -39.23779297 348.718125 -39.23779297 350.078125 C-39.89779297 350.078125 -40.55779297 350.078125 -41.23779297 350.078125 C-41.23779297 350.738125 -41.23779297 351.398125 -41.23779297 352.078125 C-40.24779297 352.408125 -39.25779297 352.738125 -38.23779297 353.078125 C-43.99102826 354.67573287 -47.90820712 353.25819152 -53.30029297 351.265625 C-54.1686377 350.95157715 -55.03698242 350.6375293 -55.93164062 350.31396484 C-100.54288332 333.72168512 -134.30774684 303.45599427 -154.28808594 260.21435547 C-160.32376155 246.63796432 -164.35597114 232.63335467 -167.23779297 218.078125 C-167.4029541 217.24619629 -167.56811523 216.41426758 -167.73828125 215.55712891 C-176.58732581 168.87773252 -166.55957124 117.92394511 -139.93969727 78.50512695 C-134.4425118 70.60275668 -128.40865329 63.40838482 -121.66845703 56.54394531 C-120.30364449 55.14559472 -118.96904925 53.71794029 -117.63623047 52.2890625 C-88.21123287 21.44170852 -42.61311701 1.48769337 0 0 Z " fill="#0F1110" transform="translate(438.23779296875,239.921875)"/>
<path d="M0 0 C11.05074734 7.61238167 19.38283875 18.79880494 22.7265625 32 C24.76330761 45.73804543 22.59571805 58.91602119 15.125 70.6875 C6.72167413 81.53309266 -3.39025686 89.5193977 -16.875 92.6875 C-34.59710723 94.37549601 -48.89158386 91.45859316 -62.90625 80.03125 C-71.744892 71.81286358 -77.58714103 60.09760202 -78.1484375 48.0625 C-78.5601934 32.65393426 -76.59638441 21.47407595 -65.875 9.6875 C-65.32972656 9.06230469 -64.78445313 8.43710937 -64.22265625 7.79296875 C-47.53690417 -10.2276435 -20.54149136 -12.37506399 0 0 Z " fill="#FCFBF8" transform="translate(667.875,687.3125)"/>
<path d="M0 0 C0 4.09105278 -2.04359466 6.39455708 -4.29296875 9.640625 C-4.74633102 10.30669266 -5.1996933 10.97276031 -5.66679382 11.65901184 C-7.16731409 13.86044189 -8.67742 16.05511903 -10.1875 18.25 C-11.23719558 19.78654682 -12.28617798 21.32358108 -13.33447266 22.86108398 C-15.49416723 26.02717398 -17.65720604 29.19093827 -19.82275391 32.35302734 C-24.09767385 38.59939488 -28.33643876 44.87011044 -32.57550049 51.14083862 C-37.9748555 59.12524485 -43.38591539 67.10172998 -48.80859375 75.0703125 C-49.19295593 75.63517868 -49.57731812 76.20004486 -49.97332764 76.7820282 C-51.75518859 79.40034136 -53.53786245 82.01809548 -55.32177734 84.63500977 C-58.51910397 89.32998862 -61.69716155 94.03646792 -64.84375 98.765625 C-72.30492676 109.97867674 -79.89239646 121.10726177 -87.45654297 132.25097656 C-89.71527483 135.57911037 -91.96913961 138.91051996 -94.22265625 142.2421875 C-95.3981713 143.97413904 -96.5739293 145.70592573 -97.75 147.4375 C-98.54506958 148.61614624 -98.54506958 148.61614624 -99.35620117 149.81860352 C-100.54489199 151.56366852 -101.76799446 153.28524052 -103 155 C-103.33 155 -103.66 155 -104 155 C-103.96280009 136.49315768 -103.90289048 117.98652093 -103.81609726 99.47984314 C-103.77632266 90.88646134 -103.74392217 82.2931709 -103.72900391 73.69970703 C-103.71597917 66.20784005 -103.68899363 58.71617423 -103.64538693 51.22442055 C-103.62279045 47.25917355 -103.60708822 43.29417451 -103.60811615 39.32885742 C-103.60886385 35.59243107 -103.59086976 31.85655244 -103.55883217 28.12026787 C-103.54632336 26.10365981 -103.55338865 24.0869597 -103.56114197 22.07032776 C-103.4149873 9.31488103 -103.4149873 9.31488103 -99 4 C-94.21913383 0.47231258 -89.49677034 0.55795581 -83.78173828 0.56762695 C-82.41980095 0.55233948 -82.41980095 0.55233948 -81.03034973 0.53674316 C-78.04360746 0.50666486 -75.0571862 0.49735504 -72.0703125 0.48828125 C-69.99379413 0.47143076 -67.91728594 0.45328001 -65.84078979 0.43388367 C-60.38614075 0.38641795 -54.93153297 0.35658629 -49.47674561 0.33044434 C-43.90628917 0.30062162 -38.33597488 0.25409712 -32.765625 0.20898438 C-21.8438244 0.12299018 -10.92199452 0.0556275 0 0 Z " fill="#FCFBF8" transform="translate(686,403)"/>
<path d="M0 0 C5.78408559 -0.0494009 11.56804864 -0.08572 17.35229492 -0.10986328 C19.32041564 -0.11992707 21.28852138 -0.13357934 23.2565918 -0.15087891 C26.08385918 -0.17511059 28.91092905 -0.18647923 31.73828125 -0.1953125 C32.61962234 -0.20563507 33.50096344 -0.21595764 34.40901184 -0.22659302 C35.22963608 -0.22674408 36.05026031 -0.22689514 36.89575195 -0.22705078 C37.61745071 -0.231492 38.33914948 -0.23593323 39.0827179 -0.24050903 C41 0 41 0 44 2 C43.67 2.99 43.34 3.98 43 5 C44.97536745 4.65213292 44.97536745 4.65213292 47 4 C47.33 3.34 47.66 2.68 48 2 C48.66 2 49.32 2 50 2 C51.11963647 5.99970763 50.88551023 7.81715104 49.0625 11.5 C46.81962741 17.22399775 46.57903953 22.49302587 46.5625 28.5625 C46.5529126 29.43648437 46.5433252 30.31046875 46.53344727 31.2109375 C46.70530129 44.79631668 52.22915706 55.82626327 61.4140625 65.63671875 C69.96534811 73.45171542 80.21313829 77.91507262 91.74072266 78.19726562 C100.11343405 78.41701115 100.11343405 78.41701115 103.29296875 80.5078125 C105.87584736 83.44039202 107 85.02911215 107 89 C108.32 88.67 109.64 88.34 111 88 C111 88.99 111 89.98 111 91 C93.40826624 94.46760137 76.08122134 91.92828563 61 82 C46.05328772 71.54353786 36.9769343 57.54388083 33.49609375 39.70703125 C32.43759855 31.79748841 32.3378928 23.82839169 34 16 C32.20261887 16.00666183 32.20261887 16.00666183 30.368927 16.01345825 C19.09699422 16.05393628 7.82507611 16.08395161 -3.44691277 16.10362434 C-9.24247126 16.11407815 -15.03797127 16.1282664 -20.83349609 16.15087891 C-26.42259423 16.17255044 -32.01163596 16.18455658 -37.60077286 16.18975449 C-39.73710137 16.1934605 -41.87342668 16.20069701 -44.00973129 16.21146011 C-46.99337272 16.22589944 -49.97677869 16.22798112 -52.96044922 16.22705078 C-53.85092957 16.23424133 -54.74140991 16.24143188 -55.65887451 16.24884033 C-61.77189568 16.22810432 -61.77189568 16.22810432 -64 14 C-64.125 11.375 -64.125 11.375 -64 9 C-63.34 8.67 -62.68 8.34 -62 8 C-61.34 9.32 -60.68 10.64 -60 12 C-58.35 11.34 -56.7 10.68 -55 10 C-55 10.99 -55 11.98 -55 13 C-14.905 12.505 -14.905 12.505 26 12 C25.505 10.02 25.505 10.02 25 8 C25.33 7.01 25.66 6.02 26 5 C26.66 5 27.32 5 28 5 C28.33 4.01 28.66 3.02 29 2 C19.43 1.67 9.86 1.34 0 1 C0 0.67 0 0.34 0 0 Z " fill="#0E100F" transform="translate(544,701)"/>
<path d="M0 0 C5.78408559 -0.0494009 11.56804864 -0.08572 17.35229492 -0.10986328 C19.32041564 -0.11992707 21.28852138 -0.13357934 23.2565918 -0.15087891 C26.08385918 -0.17511059 28.91092905 -0.18647923 31.73828125 -0.1953125 C32.61962234 -0.20563507 33.50096344 -0.21595764 34.40901184 -0.22659302 C35.22963608 -0.22674408 36.05026031 -0.22689514 36.89575195 -0.22705078 C37.61745071 -0.231492 38.33914948 -0.23593323 39.0827179 -0.24050903 C41 0 41 0 44 2 C43.67 2.99 43.34 3.98 43 5 C44.97536745 4.65213292 44.97536745 4.65213292 47 4 C47.33 3.34 47.66 2.68 48 2 C48.66 2 49.32 2 50 2 C51.13322154 6.03799828 50.85201111 8.0309412 49.125 11.8125 C46.85512939 17.48330303 46.47598574 22.65798726 46.41650391 28.69262695 C46.37109375 30.69140625 46.37109375 30.69140625 46 34 C45.01 34.66 44.02 35.32 43 36 C43 30.72 43 25.44 43 20 C41.515 20.495 41.515 20.495 40 21 C37.8125 20.0625 37.8125 20.0625 36 19 C36 20.98 36 22.96 36 25 C36.66 25.33 37.32 25.66 38 26 C37.34 26 36.68 26 36 26 C36.185625 27.03125 36.37125 28.0625 36.5625 29.125 C36.97307082 32.76148442 36.778309 35.45437009 36 39 C35.67 39 35.34 39 35 39 C35 35.04 35 31.08 35 27 C34.34 27 33.68 27 33 27 C33.33 23.37 33.66 19.74 34 16 C32.20261887 16.00666183 32.20261887 16.00666183 30.368927 16.01345825 C19.09699422 16.05393628 7.82507611 16.08395161 -3.44691277 16.10362434 C-9.24247126 16.11407815 -15.03797127 16.1282664 -20.83349609 16.15087891 C-26.42259423 16.17255044 -32.01163596 16.18455658 -37.60077286 16.18975449 C-39.73710137 16.1934605 -41.87342668 16.20069701 -44.00973129 16.21146011 C-46.99337272 16.22589944 -49.97677869 16.22798112 -52.96044922 16.22705078 C-53.85092957 16.23424133 -54.74140991 16.24143188 -55.65887451 16.24884033 C-61.77189568 16.22810432 -61.77189568 16.22810432 -64 14 C-64.125 11.375 -64.125 11.375 -64 9 C-63.34 8.67 -62.68 8.34 -62 8 C-61.34 9.32 -60.68 10.64 -60 12 C-58.35 11.34 -56.7 10.68 -55 10 C-55 10.99 -55 11.98 -55 13 C-14.905 12.505 -14.905 12.505 26 12 C25.505 10.02 25.505 10.02 25 8 C25.33 7.01 25.66 6.02 26 5 C26.66 5 27.32 5 28 5 C28.33 4.01 28.66 3.02 29 2 C19.43 1.67 9.86 1.34 0 1 C0 0.67 0 0.34 0 0 Z " fill="#222322" transform="translate(544,701)"/>
<path d="M0 0 C-0.66 1.65 -1.32 3.3 -2 5 C-2.99 5 -3.98 5 -5 5 C-4.505 6.485 -4.505 6.485 -4 8 C-5.65 8.33 -7.3 8.66 -9 9 C-8.34 7.35 -7.68 5.7 -7 4 C-7.66 4 -8.32 4 -9 4 C-9.495 3.01 -9.495 3.01 -10 2 C-10.63808594 2.0721875 -11.27617188 2.144375 -11.93359375 2.21875 C-12.75988281 2.3115625 -13.58617187 2.404375 -14.4375 2.5 C-15.67306641 2.63921875 -15.67306641 2.63921875 -16.93359375 2.78125 C-19 3 -19 3 -20 3 C-21.68711423 4.6459651 -23.3545622 6.31237149 -25 8 C-24.505 8.99 -24.505 8.99 -24 10 C-25.65 10.66 -27.3 11.32 -29 12 C-24.71 12.33 -20.42 12.66 -16 13 C-16.33 13.99 -16.66 14.98 -17 16 C-48.02 16 -79.04 16 -111 16 C-107.81541155 12.81541155 -107.12186737 12.6472637 -102.86714172 12.5632782 C-102.17662216 12.56471329 -101.4861026 12.56614838 -100.7746582 12.56762695 C-99.6767244 12.55233948 -99.6767244 12.55233948 -98.55661011 12.53674316 C-96.13792321 12.50655568 -93.71963196 12.49733874 -91.30078125 12.48828125 C-89.62353696 12.47143877 -87.94630534 12.45328912 -86.26908875 12.43388367 C-81.85505121 12.38633047 -77.44106498 12.35655566 -73.02685547 12.33044434 C-68.52235785 12.30066555 -64.0180371 12.25412606 -59.51367188 12.20898438 C-50.67587367 12.12289083 -41.83803912 12.05557255 -33 12 C-33 11.01 -33 10.02 -33 9 C-33.66 9.33 -34.32 9.66 -35 10 C-36.32 8.68 -37.64 7.36 -39 6 C-40.32 6.66 -41.64 7.32 -43 8 C-42.01 9.485 -42.01 9.485 -41 11 C-44.32534757 12.10844919 -46.62182575 11.84454356 -50 11 C-49.67 9.02 -49.34 7.04 -49 5 C-49.66 4.67 -50.32 4.34 -51 4 C-50.67 3.01 -50.34 2.02 -50 1 C-51.98 1.99 -51.98 1.99 -54 3 C-54 2.34 -54 1.68 -54 1 C-56.31 1 -58.62 1 -61 1 C-61 0.67 -61 0.34 -61 0 C-40.65720512 -1.06932628 -20.32046804 -1.79770333 0 0 Z " fill="#101311" transform="translate(703,388)"/>
<path d="M0 0 C1 3 1 3 0 6 C-0.10189817 7.76320107 -0.14629676 9.52996348 -0.15821838 11.29606628 C-0.17290161 12.94301231 -0.17290161 12.94301231 -0.18788147 14.62322998 C-0.19363693 15.82804016 -0.1993924 17.03285034 -0.20532227 18.27416992 C-0.22017166 20.1767733 -0.22017166 20.1767733 -0.23532104 22.11781311 C-0.2623634 25.59684318 -0.28337657 29.07588681 -0.30332303 32.55496383 C-0.32518671 36.19050172 -0.35257353 39.82599786 -0.37937927 43.46150208 C-0.42930099 50.34624337 -0.47424175 57.23100784 -0.51740164 64.11579448 C-0.56677846 71.95371101 -0.62169494 79.79158564 -0.67708123 87.62946165 C-0.79089328 103.75293581 -0.89773402 119.87644838 -1 136 C-1.33 136 -1.66 136 -2 136 C-2.84859839 128.1869068 -3.14761358 120.47697175 -3.1328125 112.62109375 C-3.13424759 110.9202639 -3.13424759 110.9202639 -3.13571167 109.18507385 C-3.13638729 106.81112614 -3.13457649 104.43717651 -3.13037109 102.06323242 C-3.12496884 98.41646251 -3.13035996 94.76981324 -3.13671875 91.12304688 C-3.13605874 88.80989556 -3.13477917 86.49674432 -3.1328125 84.18359375 C-3.13483673 83.0909874 -3.13686096 81.99838104 -3.13894653 80.87266541 C-3.13579437 79.86724197 -3.13264221 78.86181854 -3.12939453 77.82592773 C-3.12859894 76.9397728 -3.12780334 76.05361786 -3.12698364 75.14060974 C-3 73 -3 73 -2 71 C-4.53346458 70.92962598 -6.7237863 70.92897362 -9.1875 71.5625 C-11 72 -11 72 -13 71 C-14.54586876 67.90826248 -14.29359521 65.40570448 -14 62 C-12.1875 60 -12.1875 60 -10 58 C-9.505 56.80375 -9.01 55.6075 -8.5 54.375 C-6.886373 50.74433926 -6.44399979 50.42559008 -3 49 C-3.00523682 48.23558594 -3.01047363 47.47117187 -3.01586914 46.68359375 C-3.25123412 7.0707734 -3.25123412 7.0707734 0 0 Z " fill="#080A09" transform="translate(584,409)"/>
<path d="M0 0 C0.84948212 0.01078583 1.69896423 0.02157166 2.57418823 0.03268433 C3.4719548 0.03224625 4.36972137 0.03180817 5.29469299 0.03135681 C8.26543847 0.03344871 11.23562128 0.05679874 14.20626831 0.08029175 C16.26464021 0.08588627 18.32301611 0.09015705 20.38139343 0.09315491 C25.80170704 0.10461495 31.22177988 0.1340922 36.64199829 0.16726685 C42.17185204 0.1979427 47.70174465 0.21165493 53.23165894 0.22677612 C64.08397832 0.2589607 74.93611893 0.31017114 85.78829956 0.3732605 C85.45829956 1.3632605 85.12829956 2.3532605 84.78829956 3.3732605 C53.76829956 3.3732605 22.74829956 3.3732605 -9.21170044 3.3732605 C-5.80777813 -0.03066181 -4.61629967 0.02446279 0 0 Z " fill="#272927" transform="translate(601.2117004394531,400.6267395019531)"/>
<path d="M0 0 C4.07397652 0.7860607 7.90831816 1.11902929 12.0546875 1.09765625 C13.16328125 1.09443359 14.271875 1.09121094 15.4140625 1.08789062 C17.12722656 1.07532227 17.12722656 1.07532227 18.875 1.0625 C20.0403125 1.05798828 21.205625 1.05347656 22.40625 1.04882812 C25.27088645 1.03708781 28.13541633 1.0206657 31 1 C30.34 1.66 29.68 2.32 29 3 C28.34 2.67 27.68 2.34 27 2 C26.67 2.66 26.34 3.32 26 4 C25.29488281 3.82597656 24.58976562 3.65195312 23.86328125 3.47265625 C20.79906196 2.96683015 18.26839299 3.10342727 15.1875 3.4375 C13.72376953 3.59025391 13.72376953 3.59025391 12.23046875 3.74609375 C11.12638672 3.87177734 11.12638672 3.87177734 10 4 C9.34 5.65 8.68 7.3 8 9 C9.65 9 11.3 9 13 9 C13 8.34 13 7.68 13 7 C14.32 7.33 15.64 7.66 17 8 C17.93423645 11.01031744 18.04449911 11.86650268 17 15 C17.66 15.33 18.32 15.66 19 16 C14.38 16.33 9.76 16.66 5 17 C5 17.33 5 17.66 5 18 C2.37438891 18.08074203 -0.24875676 18.1403623 -2.875 18.1875 C-3.99455078 18.22520508 -3.99455078 18.22520508 -5.13671875 18.26367188 C-7.3046875 18.29296875 -7.3046875 18.29296875 -11 18 C-11.66 17.01 -12.32 16.02 -13 15 C-7.06 14.67 -1.12 14.34 5 14 C5 13.34 5 12.68 5 12 C4.01 11.67 3.02 11.34 2 11 C1.67 11.99 1.34 12.98 1 14 C0.34 13.34 -0.32 12.68 -1 12 C-0.34 10.68 0.32 9.36 1 8 C-1.31 7.34 -3.62 6.68 -6 6 C-6 4.02 -6 2.04 -6 0 C-3.42888996 -1.28555502 -2.73017334 -0.75838148 0 0 Z " fill="#161817" transform="translate(449,584)"/>
<path d="M0 0 C1.01900391 -0.01611328 2.03800781 -0.03222656 3.08789062 -0.04882812 C4.06048828 -0.04947266 5.03308594 -0.05011719 6.03515625 -0.05078125 C6.92726807 -0.05376221 7.81937988 -0.05674316 8.73852539 -0.05981445 C9.82701782 0.1244812 9.82701782 0.1244812 10.9375 0.3125 C11.5975 1.3025 12.2575 2.2925 12.9375 3.3125 C12.38288086 3.31137207 11.82826172 3.31024414 11.25683594 3.30908203 C8.73250011 3.32122334 6.211167 3.37889525 3.6875 3.4375 C2.81480469 3.43492187 1.94210937 3.43234375 1.04296875 3.4296875 C-1.46071034 3.50613572 -3.64581195 3.64740778 -6.0625 4.3125 C-9.24624715 7.82027108 -9.24624715 7.82027108 -10.0625 12.3125 C-9.03189453 12.29509766 -9.03189453 12.29509766 -7.98046875 12.27734375 C-7.07941406 12.26832031 -6.17835938 12.25929687 -5.25 12.25 C-4.35667969 12.23839844 -3.46335937 12.22679687 -2.54296875 12.21484375 C-0.0625 12.3125 -0.0625 12.3125 2.9375 13.3125 C3.2675 12.6525 3.5975 11.9925 3.9375 11.3125 C3.9375 11.9725 3.9375 12.6325 3.9375 13.3125 C6.5775 13.3125 9.2175 13.3125 11.9375 13.3125 C11.9375 13.6425 11.9375 13.9725 11.9375 14.3125 C4.6775 14.6425 -2.5825 14.9725 -10.0625 15.3125 C-10.0625 15.6425 -10.0625 15.9725 -10.0625 16.3125 C-10.9803125 16.37308594 -11.898125 16.43367188 -12.84375 16.49609375 C-19.281008 16.93561242 -25.67185705 17.41780999 -32.0625 18.3125 C-31.48665568 15.92685923 -30.84022405 13.64567216 -30.0625 11.3125 C-28.20625 11.6528125 -28.20625 11.6528125 -26.3125 12 C-22.94570988 12.4139402 -22.94570988 12.4139402 -19.8125 11.1875 C-15.71167806 7.31757582 -15.71167806 7.31757582 -14.0625 2.3125 C-9.57782824 -0.67728117 -5.27441926 -0.01674419 0 0 Z " fill="#181A19" transform="translate(447.0625,239.6875)"/>
<path d="M0 0 C1.65 0.99 3.3 1.98 5 3 C5.99 2.34 6.98 1.68 8 1 C8.33 1.66 8.66 2.32 9 3 C9.763125 2.773125 10.52625 2.54625 11.3125 2.3125 C12.199375 2.209375 13.08625 2.10625 14 2 C15.8125 3.4375 15.8125 3.4375 17 5 C16.67 5.66 16.34 6.32 16 7 C15.67 7.99 15.34 8.98 15 10 C18.0745356 9.2236068 18.0745356 9.2236068 20 7 C20.99 7 21.98 7 23 7 C23 7.99 23 8.98 23 10 C24.65 10.66 26.3 11.32 28 12 C27.01 13.485 27.01 13.485 26 15 C22.7 14.67 19.4 14.34 16 14 C15.67 14.66 15.34 15.32 15 16 C14.2575 15.360625 13.515 14.72125 12.75 14.0625 C10.29179018 11.90209672 10.29179018 11.90209672 8 11.625 C4.52549995 10.53921873 3.04584529 7.87524202 1 5 C0.1875 2.125 0.1875 2.125 0 0 Z M2 3 C2.66 3.66 3.32 4.32 4 5 C4 4.34 4 3.68 4 3 C3.34 3 2.68 3 2 3 Z " fill="#131514" transform="translate(590,765)"/>
<path d="M0 0 C0.33 0 0.66 0 1 0 C1.66 6.6 2.32 13.2 3 20 C3.33 20 3.66 20 4 20 C5.32 28.58 6.64 37.16 8 46 C7.34 46 6.68 46 6 46 C5.34 44.02 4.68 42.04 4 40 C3.34 40 2.68 40 2 40 C2 39.34 2 38.68 2 38 C1.34 37.67 0.68 37.34 0 37 C0.99 37 1.98 37 3 37 C3 35.35 3 33.7 3 32 C2.030625 31.54625 1.06125 31.0925 0.0625 30.625 C-3 29 -3 29 -4 27 C-4.99 27 -5.98 27 -7 27 C-7.93065133 24.39417629 -8.14917407 23.35801776 -7.0625 20.75 C-6.711875 20.1725 -6.36125 19.595 -6 19 C-4.35 19.33 -2.7 19.66 -1 20 C-0.34 18.68 0.32 17.36 1 16 C0.34 15.67 -0.32 15.34 -1 15 C-0.67 10.05 -0.34 5.1 0 0 Z M-5 29 C-4.01 29.495 -4.01 29.495 -3 30 C-3.99 30.495 -3.99 30.495 -5 31 C-5 30.34 -5 29.68 -5 29 Z " fill="#131514" transform="translate(324,428)"/>
<path d="M0 0 C3.71599191 -0.20086443 4.77208445 -0.1519437 8 2 C9.33925525 4.30649516 10.15274412 6.45823237 11 9 C12.98 8.67 14.96 8.34 17 8 C16.34 9.32 15.68 10.64 15 12 C15.66 12 16.32 12 17 12 C17 12.99 17 13.98 17 15 C17.99 15.66 18.98 16.32 20 17 C13.39384924 18.5013979 7.58010343 17.30737687 1 16 C1.309375 15.401875 1.61875 14.80375 1.9375 14.1875 C3.10209704 11.91043228 3.10209704 11.91043228 4 9 C3.01 8.67 2.02 8.34 1 8 C1 7.01 1 6.02 1 5 C1.66 5 2.32 5 3 5 C3 5.66 3 6.32 3 7 C3.66 6.67 4.32 6.34 5 6 C5.33 5.01 5.66 4.02 6 3 C4.02 3 2.04 3 0 3 C0 2.01 0 1.02 0 0 Z " fill="#121514" transform="translate(463,241)"/>
<path d="M0 0 C2.125 0.9375 2.125 0.9375 4 2 C3.01 3.32 2.02 4.64 1 6 C2.32 6 3.64 6 5 6 C6.67225729 6.30404678 8.34080104 6.63128912 10 7 C10 7.66 10 8.32 10 9 C9.34 9.66 8.68 10.32 8 11 C6.40124678 14.37514568 6 16.16558757 6 20 C4.25 21.125 4.25 21.125 2 22 C-0.25 21.125 -0.25 21.125 -2 20 C-1.34 20 -0.68 20 0 20 C0 19.01 0 18.02 0 17 C0.66 17 1.32 17 2 17 C1.67 15.02 1.34 13.04 1 11 C0.01 10.67 -0.98 10.34 -2 10 C-2 7.03 -2 4.06 -2 1 C-1.34 0.67 -0.68 0.34 0 0 Z M-3 11 C-1 12 -1 12 -1 12 Z " fill="#191B19" transform="translate(518,571)"/>
<path d="M0 0 C-1.32 0.33 -2.64 0.66 -4 1 C-3.608125 1.721875 -3.21625 2.44375 -2.8125 3.1875 C-2 6 -2 6 -3.375 8.8125 C-4.179375 9.8953125 -4.179375 9.8953125 -5 11 C-3.68 10.67 -2.36 10.34 -1 10 C-0.67 10.66 -0.34 11.32 0 12 C-1.61992165 12.86375896 -3.24611861 13.71575854 -4.875 14.5625 C-5.77992188 15.03816406 -6.68484375 15.51382813 -7.6171875 16.00390625 C-8.40351562 16.33261719 -9.18984375 16.66132812 -10 17 C-10.66 16.67 -11.32 16.34 -12 16 C-12 13.69 -12 11.38 -12 9 C-10.02 8.67 -8.04 8.34 -6 8 C-6.33 6.68 -6.66 5.36 -7 4 C-9.31 4.66 -11.62 5.32 -14 6 C-14 5.34 -14 4.68 -14 4 C-12.23494565 3.13395466 -10.46271926 2.28251358 -8.6875 1.4375 C-7.70136719 0.96183594 -6.71523438 0.48617187 -5.69921875 -0.00390625 C-3 -1 -3 -1 0 0 Z " fill="#0B0C0B" transform="translate(623,671)"/>
<path d="M0 0 C2.475 0.99 2.475 0.99 5 2 C4.75 4.375 4.75 4.375 4 7 C1.9375 8.3125 1.9375 8.3125 0 9 C-0.33 8.67 -0.66 8.34 -1 8 C-1.33 8.66 -1.66 9.32 -2 10 C-2.99 10 -3.98 10 -5 10 C-5.33 7.36 -5.66 4.72 -6 2 C-4.7934375 1.7834375 -4.7934375 1.7834375 -3.5625 1.5625 C-1.07896294 1.25864751 -1.07896294 1.25864751 0 0 Z " fill="#0D0F0E" transform="translate(585,741)"/>
<path d="M0 0 C0.33 0 0.66 0 1 0 C1.33868777 2.20751848 1.67071689 4.41605911 2 6.625 C2.185625 7.85476563 2.37125 9.08453125 2.5625 10.3515625 C2.95517983 13.62623184 3.15818144 16.70784876 3 20 C2.67 20.33 2.34 20.66 2 21 C1.76321284 23.69235776 1.57801975 26.36498156 1.4375 29.0625 C1.39431641 29.82111328 1.35113281 30.57972656 1.30664062 31.36132812 C1.20026367 33.24065438 1.09960066 35.12030244 1 37 C0.67 37 0.34 37 0 37 C0 24.79 0 12.58 0 0 Z " fill="#D7D8D5" transform="translate(326,400)"/>
<path d="M0 0 C0.33 0.66 0.66 1.32 1 2 C5.14093698 2.20970559 5.14093698 2.20970559 9 1 C9.33 1.66 9.66 2.32 10 3 C12.52733235 3.65555119 12.52733235 3.65555119 15 4 C14.67 4.99 14.34 5.98 14 7 C12.10399631 6.68853528 10.20820413 6.37578283 8.3125 6.0625 C7.25675781 5.88847656 6.20101563 5.71445312 5.11328125 5.53515625 C2.39750396 5.06832879 -0.30124235 4.55577384 -3 4 C-3 3.01 -3 2.02 -3 1 C-2.01 0.67 -1.02 0.34 0 0 Z " fill="#181918" transform="translate(404,592)"/>
<path d="M0 0 C0.82177734 0.19916016 0.82177734 0.19916016 1.66015625 0.40234375 C9.41777614 2.13046395 17.08044291 2.59874244 25 3 C25 3.33 25 3.66 25 4 C22.16711079 4.25120706 19.33593046 4.47636098 16.5 4.6875 C15.31277344 4.79674805 15.31277344 4.79674805 14.1015625 4.90820312 C8.26936125 5.31454502 4.3421407 4.38313387 -1 2 C-0.67 1.34 -0.34 0.68 0 0 Z " fill="#242524" transform="translate(620,777)"/>
<path d="M0 0 C0.1875 2.375 0.1875 2.375 0 5 C-3.20406462 7.13604308 -3.99600747 7.24208908 -7.66796875 7.1953125 C-9.00698242 7.18564453 -9.00698242 7.18564453 -10.37304688 7.17578125 C-11.76620117 7.15064453 -11.76620117 7.15064453 -13.1875 7.125 C-14.12787109 7.11597656 -15.06824219 7.10695313 -16.03710938 7.09765625 C-18.35832968 7.07409056 -20.67903644 7.04119116 -23 7 C-23 6.67 -23 6.34 -23 6 C-22.22914063 5.97421875 -21.45828125 5.9484375 -20.6640625 5.921875 C-19.66117188 5.86515625 -18.65828125 5.8084375 -17.625 5.75 C-16.62726562 5.70359375 -15.62953125 5.6571875 -14.6015625 5.609375 C-11.8473523 5.27839115 -11.8473523 5.27839115 -10.6484375 2.953125 C-10.43445313 2.30859375 -10.22046875 1.6640625 -10 1 C-9.566875 1.474375 -9.13375 1.94875 -8.6875 2.4375 C-6.97690387 4.23686957 -6.97690387 4.23686957 -4 5 C-3.87625 4.360625 -3.7525 3.72125 -3.625 3.0625 C-3.315625 2.0415625 -3.315625 2.0415625 -3 1 C-1 0 -1 0 0 0 Z " fill="#1C1E1C" transform="translate(724,708)"/>
<path d="M0 0 C0.33 0 0.66 0 1 0 C1.08071788 2.79224073 1.14035408 5.58216566 1.1875 8.375 C1.22520508 9.56609375 1.22520508 9.56609375 1.26367188 10.78125 C1.29004405 12.85586148 1.15486462 14.93100865 1 17 C0.01 17.66 -0.98 18.32 -2 19 C-2.66 17.35 -3.32 15.7 -4 14 C-4.99 14.33 -5.98 14.66 -7 15 C-7 14.34 -7 13.68 -7 13 C-3.53846154 10 -3.53846154 10 -1 10 C-0.67 6.7 -0.34 3.4 0 0 Z " fill="#151715" transform="translate(728,654)"/>
<path d="M0 0 C0.43570313 0.37511719 0.87140625 0.75023437 1.3203125 1.13671875 C5.18607599 4.45859777 9.07657648 7.74642927 13 11 C10.06171403 13.50298434 7.82097239 14.46930939 4 15 C4.33 14.21625 4.66 13.4325 5 12.625 C6.11866511 10.15667503 6.11866511 10.15667503 6 8 C4.66710346 6.49985609 4.66710346 6.49985609 3 5 C1.3125 3.4375 1.3125 3.4375 0 2 C0 1.34 0 0.68 0 0 Z " fill="#080909" transform="translate(599,761)"/>
<path d="M0 0 C0.33 0 0.66 0 1 0 C1.33 2.64 1.66 5.28 2 8 C2.66 7.67 3.32 7.34 4 7 C4.66 8.98 5.32 10.96 6 13 C3 15 3 15 -1 15 C-1.33 14.34 -1.66 13.68 -2 13 C-1.34 12.34 -0.68 11.68 0 11 C0.24315656 8.33050591 0.24315656 8.33050591 0.125 5.375 C0.10695313 4.37210938 0.08890625 3.36921875 0.0703125 2.3359375 C0.04710937 1.56507813 0.02390625 0.79421875 0 0 Z " fill="#090B0A" transform="translate(581,549)"/>
<path d="M0 0 C0.33 0 0.66 0 1 0 C1.36717663 7.4659249 1.36717663 7.4659249 -0.375 10 C-2 11 -2 11 -4 11 C-4 10.34 -4 9.68 -4 9 C-4.66 8.34 -5.32 7.68 -6 7 C-4.6875 4.5 -4.6875 4.5 -3 2 C-2.01 2 -1.02 2 0 2 C0 1.34 0 0.68 0 0 Z " fill="#151716" transform="translate(748,388)"/>
<path d="M0 0 C0.33 0 0.66 0 1 0 C1.94870788 6.85988773 1.94870788 13.14011227 1 20 C0.67 20 0.34 20 0 20 C0 18.02 0 16.04 0 14 C-0.66 14 -1.32 14 -2 14 C-1.95875 13.21625 -1.9175 12.4325 -1.875 11.625 C-1.71271266 8.83883881 -1.71271266 8.83883881 -4 7 C-3.01 6.67 -2.02 6.34 -1 6 C-0.67 4.02 -0.34 2.04 0 0 Z " fill="#161716" transform="translate(725,677)"/>
<path d="M0 0 C0.99 0.33 1.98 0.66 3 1 C3 1.99 3 2.98 3 4 C4.32 4.33 5.64 4.66 7 5 C1.19233704 6.5056904 -3.9981863 7.21824777 -10 7 C-10 6.67 -10 6.34 -10 6 C-8.72125 5.7525 -7.4425 5.505 -6.125 5.25 C-2.73252682 4.48009414 -2.73252682 4.48009414 -0.5 1.875 C-0.335 1.25625 -0.17 0.6375 0 0 Z " fill="#090A0A" transform="translate(497,592)"/>
<path d="M0 0 C0 2.31 0 4.62 0 7 C-0.99 7.495 -0.99 7.495 -2 8 C-2 6.35 -2 4.7 -2 3 C-2.99 3 -3.98 3 -5 3 C-5.33 3.99 -5.66 4.98 -6 6 C-6.66 6 -7.32 6 -8 6 C-8 4.02 -8 2.04 -8 0 C-4.71023192 -1.09658936 -3.28696233 -0.79953138 0 0 Z " fill="#090B0A" transform="translate(750,387)"/>
<path d="M0 0 C0.33 0 0.66 0 1 0 C1 1.98 1 3.96 1 6 C1.66 6.33 2.32 6.66 3 7 C2.34 7 1.68 7 1 7 C1.185625 8.03125 1.37125 9.0625 1.5625 10.125 C1.97307082 13.76148442 1.778309 16.45437009 1 20 C0.67 20 0.34 20 0 20 C0 16.04 0 12.08 0 8 C-0.66 8 -1.32 8 -2 8 C-2.125 5.125 -2.125 5.125 -2 2 C-1.34 1.34 -0.68 0.68 0 0 Z " fill="#1F2120" transform="translate(579,720)"/>
<path d="M0 0 C0.66 0 1.32 0 2 0 C2 0.99 2 1.98 2 3 C4.97 3.495 4.97 3.495 8 4 C7.67 4.66 7.34 5.32 7 6 C3.37 5.67 -0.26 5.34 -4 5 C-4.33 4.01 -4.66 3.02 -5 2 C-3.35 1.67 -1.7 1.34 0 1 C0 0.67 0 0.34 0 0 Z " fill="#1E1F1E" transform="translate(426,595)"/>
<path d="M0 0 C0.33 0 0.66 0 1 0 C1.66 4.29 2.32 8.58 3 13 C2.34 13 1.68 13 1 13 C0.34 11.02 -0.32 9.04 -1 7 C-1.66 7 -2.32 7 -3 7 C-3 6.34 -3 5.68 -3 5 C-3.66 4.67 -4.32 4.34 -5 4 C-4.0409375 3.8453125 -4.0409375 3.8453125 -3.0625 3.6875 C-2.381875 3.460625 -1.70125 3.23375 -1 3 C-0.67 2.01 -0.34 1.02 0 0 Z " fill="#1C1E1C" transform="translate(329,461)"/>
<path d="M0 0 C0.103125 0.639375 0.20625 1.27875 0.3125 1.9375 C0.539375 2.618125 0.76625 3.29875 1 4 C1.99 4.33 2.98 4.66 4 5 C3.3125 6.9375 3.3125 6.9375 2 9 C-0.625 9.75 -0.625 9.75 -3 10 C-2.67 9.01 -2.34 8.02 -2 7 C-1.32811503 4.66816393 -0.66084583 2.33498858 0 0 Z " fill="#141615" transform="translate(473,417)"/>
<path d="M0 0 C1.61841797 0.08701172 1.61841797 0.08701172 3.26953125 0.17578125 C4.35621094 0.22089844 5.44289063 0.26601562 6.5625 0.3125 C7.39394531 0.37050781 8.22539062 0.42851562 9.08203125 0.48828125 C9.08203125 0.81828125 9.08203125 1.14828125 9.08203125 1.48828125 C7.19484375 1.61203125 7.19484375 1.61203125 5.26953125 1.73828125 C1.74391913 2.15385268 1.74391913 2.15385268 -0.91796875 4.55078125 C-1.24796875 5.19015625 -1.57796875 5.82953125 -1.91796875 6.48828125 C-3.23796875 6.15828125 -4.55796875 5.82828125 -5.91796875 5.48828125 C-3.7352554 0.62504274 -3.7352554 0.62504274 0 0 Z " fill="#0A0C0A" transform="translate(432.91796875,240.51171875)"/>
<path d="M0 0 C0.33 0 0.66 0 1 0 C1.33 3.63 1.66 7.26 2 11 C3.65 10.67 5.3 10.34 7 10 C7 10.66 7 11.32 7 12 C4.69 13.32 2.38 14.64 0 16 C0 10.72 0 5.44 0 0 Z " fill="#060707" transform="translate(691,721)"/>
<path d="M0 0 C2.125 0.9375 2.125 0.9375 4 2 C3.01 3.32 2.02 4.64 1 6 C1.66 6 2.32 6 3 6 C3 6.66 3 7.32 3 8 C2.01 8.33 1.02 8.66 0 9 C-0.66 8.67 -1.32 8.34 -2 8 C-2 5.69 -2 3.38 -2 1 C-1.34 0.67 -0.68 0.34 0 0 Z " fill="#1D1F1E" transform="translate(518,571)"/>
<path d="M0 0 C1.56427734 0.13148438 1.56427734 0.13148438 3.16015625 0.265625 C5.9375 0.75 5.9375 0.75 8.9375 2.75 C2.33134924 4.2513979 -3.48239657 3.05737687 -10.0625 1.75 C-6.56746669 -0.43965942 -4.05388781 -0.38177878 0 0 Z " fill="#1F211F" transform="translate(474.0625,255.25)"/>
<path d="M0 0 C0.33 0 0.66 0 1 0 C1.33 3.63 1.66 7.26 2 11 C1.67 11 1.34 11 1 11 C0.34 13.64 -0.32 16.28 -1 19 C-1.85221996 15.59112017 -2.10783755 13.19565369 -2.0625 9.75 C-2.05347656 8.85796875 -2.04445313 7.9659375 -2.03515625 7.046875 C-2.02355469 6.37140625 -2.01195312 5.6959375 -2 5 C-1.34 5 -0.68 5 0 5 C0 3.35 0 1.7 0 0 Z " fill="#181A19" transform="translate(326,377)"/>
<path d="M0 0 C0.99 0 1.98 0 3 0 C3.33 1.98 3.66 3.96 4 6 C3.01 6.66 2.02 7.32 1 8 C0.34 8.66 -0.32 9.32 -1 10 C-2.31223496 6.06329512 -1.24296256 3.87511856 0 0 Z " fill="#151716" transform="translate(291,330)"/>
<path d="M0 0 C0.99 0.99 1.98 1.98 3 3 C2.34 3.66 1.68 4.32 1 5 C1.32041397 7.60280568 1.32041397 7.60280568 2 10 C1.01 10 0.02 10 -1 10 C-2.36118461 7.75804887 -3.06138028 6.52173238 -2.75 3.875 C-2 2 -2 2 0 0 Z " fill="#151716" transform="translate(552,309)"/>
<path d="M0 0 C0.66 1.32 1.32 2.64 2 4 C1.01 4.33 0.02 4.66 -1 5 C-1 5.66 -1 6.32 -1 7 C-0.34 7 0.32 7 1 7 C0.67 7.66 0.34 8.32 0 9 C-1.875 8.6875 -1.875 8.6875 -4 8 C-4.66 7.01 -5.32 6.02 -6 5 C-5.01 5 -4.02 5 -3 5 C-2.87625 4.360625 -2.7525 3.72125 -2.625 3.0625 C-2.41875 2.381875 -2.2125 1.70125 -2 1 C-1.34 0.67 -0.68 0.34 0 0 Z " fill="#161817" transform="translate(524,272)"/>
<path d="M0 0 C0.99 1.32 1.98 2.64 3 4 C4.65 3.34 6.3 2.68 8 2 C8 2.99 8 3.98 8 5 C6.68942607 5.36122881 5.37646376 5.71380311 4.0625 6.0625 C3.33160156 6.25972656 2.60070312 6.45695313 1.84765625 6.66015625 C1.23792969 6.77230469 0.62820313 6.88445313 0 7 C-1 6 -1 6 -1.125 3.5 C-1 1 -1 1 0 0 Z " fill="#161716" transform="translate(481,709)"/>
<path d="M0 0 C2.9375 0.375 2.9375 0.375 6 1 C6.33 1.66 6.66 2.32 7 3 C6.34 3.66 5.68 4.32 5 5 C4.67 5.99 4.34 6.98 4 8 C3.34 8 2.68 8 2 8 C0.74335022 5.09399739 0 3.20395416 0 0 Z " fill="#151616" transform="translate(640,472)"/>
<path d="M0 0 C-0.50603992 2.16874252 -0.99983813 3.99967627 -2 6 C-2.99 5.67 -3.98 5.34 -5 5 C-5.66 6.32 -6.32 7.64 -7 9 C-6.67 6.03 -6.34 3.06 -6 0 C-2 -1 -2 -1 0 0 Z " fill="#090B0A" transform="translate(478,416)"/>
<path d="M0 0 C0.99 0.33 1.98 0.66 3 1 C2.649375 1.5775 2.29875 2.155 1.9375 2.75 C0.85082593 5.35801776 1.06934867 6.39417629 2 9 C1.34 9 0.68 9 0 9 C0 9.66 0 10.32 0 11 C-0.99 11 -1.98 11 -3 11 C-2.01 7.37 -1.02 3.74 0 0 Z " fill="#181918" transform="translate(279,356)"/>
<path d="M0 0 C3.96 0.33 7.92 0.66 12 1 C11.01 1.495 11.01 1.495 10 2 C10 2.66 10 3.32 10 4 C7.03 3.67 4.06 3.34 1 3 C0.67 2.01 0.34 1.02 0 0 Z " fill="#1F211F" transform="translate(624,789)"/>
<path d="M0 0 C0.33 0.66 0.66 1.32 1 2 C0.0625 4.125 0.0625 4.125 -1 6 C-1.66 6 -2.32 6 -3 6 C-3.33 6.66 -3.66 7.32 -4 8 C-4.99 7.67 -5.98 7.34 -7 7 C-5.54744301 3.17053157 -3.57104439 1.87949705 0 0 Z " fill="#0B0C0B" transform="translate(482,432)"/>
<path d="M0 0 C0.66 0.33 1.32 0.66 2 1 C2.625 3.0625 2.625 3.0625 3 5 C1.35 5.66 -0.3 6.32 -2 7 C-2 3 -2 3 0 0 Z M-4 6 C-3.67 6.66 -3.34 7.32 -3 8 C-3.66 7.67 -4.32 7.34 -5 7 C-4.67 6.67 -4.34 6.34 -4 6 Z " fill="#151616" transform="translate(497,685)"/>
<path d="M0 0 C0.66 0.33 1.32 0.66 2 1 C1.07544441 2.508013 0.1349253 4.00624917 -0.8125 5.5 C-1.33457031 6.3353125 -1.85664062 7.170625 -2.39453125 8.03125 C-2.92433594 8.6809375 -3.45414063 9.330625 -4 10 C-4.99 10 -5.98 10 -7 10 C-6.67 8.68 -6.34 7.36 -6 6 C-5.01 6 -4.02 6 -3 6 C-2.814375 4.7934375 -2.814375 4.7934375 -2.625 3.5625 C-2.41875 2.716875 -2.2125 1.87125 -2 1 C-1.34 0.67 -0.68 0.34 0 0 Z " fill="#161716" transform="translate(601,611)"/>
<path d="M0 0 C0.99 0.66 1.98 1.32 3 2 C1.1875 5 1.1875 5 -1 8 C-1.99 8 -2.98 8 -4 8 C-4.33 6.68 -4.66 5.36 -5 4 C-4.360625 3.71125 -3.72125 3.4225 -3.0625 3.125 C-0.84793921 2.17176549 -0.84793921 2.17176549 0 0 Z " fill="#171918" transform="translate(692,474)"/>
<path d="M0 0 C0.33 0.66 0.66 1.32 1 2 C1.66 2.33 2.32 2.66 3 3 C2.01 3.33 1.02 3.66 0 4 C0 5.32 0 6.64 0 8 C-0.33 8.99 -0.66 9.98 -1 11 C-1.99 11 -2.98 11 -4 11 C-3.91291331 9.54054712 -3.80473093 8.08234132 -3.6875 6.625 C-3.62949219 5.81289063 -3.57148438 5.00078125 -3.51171875 4.1640625 C-3 2 -3 2 0 0 Z " fill="#161817" transform="translate(286,344)"/>
<path d="M0 0 C0 0.99 0 1.98 0 3 C-1.051875 2.979375 -2.10375 2.95875 -3.1875 2.9375 C-6.32704904 2.98896802 -8.96883396 3.26517187 -12 4 C-11.67 3.01 -11.34 2.02 -11 1 C-7.27569643 0.30710631 -3.78916254 -0.11144596 0 0 Z " fill="#232524" transform="translate(430,241)"/>
<path d="M0 0 C2.83328987 2.83328987 3.7191375 4.35446828 5 8 C4.34 8.66 3.68 9.32 3 10 C2.01 9.67 1.02 9.34 0 9 C0 6.03 0 3.06 0 0 Z " fill="#181918" transform="translate(342,508)"/>
<path d="M0 0 C0.66 0 1.32 0 2 0 C2.09978121 3.49234244 1.77842938 6.59437148 1 10 C-0.32 9.34 -1.64 8.68 -3 8 C-2.01 5.36 -1.02 2.72 0 0 Z " fill="#0C0D0D" transform="translate(615,510)"/>
<path d="M0 0 C-0.33 3.63 -0.66 7.26 -1 11 C-1.99 11 -2.98 11 -4 11 C-3.8864371 9.35333797 -3.75882619 7.70763918 -3.625 6.0625 C-3.55539062 5.14597656 -3.48578125 4.22945313 -3.4140625 3.28515625 C-3.27742188 2.53105469 -3.14078125 1.77695312 -3 1 C-1 0 -1 0 0 0 Z " fill="#202221" transform="translate(274,384)"/>
<path d="M0 0 C4.455 0.99 4.455 0.99 9 2 C9 2.99 9 3.98 9 5 C5.44219804 4.39009109 2.3171411 3.4216319 -1 2 C-0.67 1.34 -0.34 0.68 0 0 Z " fill="#161918" transform="translate(412,576)"/>
<path d="M0 0 C2.44576827 3.66865241 2.23607254 5.67200343 2 10 C1.67 10.66 1.34 11.32 1 12 C0.34 12 -0.32 12 -1 12 C-0.67 8.04 -0.34 4.08 0 0 Z " fill="#171817" transform="translate(468,435)"/>
<path d="M0 0 C1.98 0 3.96 0 6 0 C4.35 1.98 2.7 3.96 1 6 C-2 5 -2 5 -4 3 C-2.68 2.34 -1.36 1.68 0 1 C0 0.67 0 0.34 0 0 Z " fill="#161817" transform="translate(507,576)"/>
<path d="M0 0 C0.66 0.33 1.32 0.66 2 1 C1.01 3.97 0.02 6.94 -1 10 C-2.32 8.68 -3.64 7.36 -5 6 C-4.34 6 -3.68 6 -3 6 C-3 5.34 -3 4.68 -3 4 C-2.34 4 -1.68 4 -1 4 C-0.67 2.68 -0.34 1.36 0 0 Z " fill="#161817" transform="translate(348,311)"/>
<path d="M0 0 C3 1 3 1 4.75 3.9375 C5.1625 4.948125 5.575 5.95875 6 7 C5.67 7.66 5.34 8.32 5 9 C4.34 9 3.68 9 3 9 C0 3.375 0 3.375 0 0 Z " fill="#1A1B19" transform="translate(684,703)"/>
<path d="M0 0 C0.33 0 0.66 0 1 0 C1.2493357 1.60115576 1.47378648 3.20620159 1.6875 4.8125 C1.81511719 5.70582031 1.94273437 6.59914063 2.07421875 7.51953125 C2 10 2 10 0.51953125 11.82421875 C-0.23263672 12.40623047 -0.23263672 12.40623047 -1 13 C-1 11.02 -1 9.04 -1 7 C-1.66 6.67 -2.32 6.34 -3 6 C-2.34 5.67 -1.68 5.34 -1 5 C-0.34444881 2.47266765 -0.34444881 2.47266765 0 0 Z " fill="#171918" transform="translate(723,694)"/>
<path d="M0 0 C0.33 0.66 0.66 1.32 1 2 C0.34 2 -0.32 2 -1 2 C-1 2.66 -1 3.32 -1 4 C-0.01 4.33 0.98 4.66 2 5 C0.02 5.33 -1.96 5.66 -4 6 C-4 5.34 -4 4.68 -4 4 C-5.32 3.34 -6.64 2.68 -8 2 C-5.03 2.495 -5.03 2.495 -2 3 C-2 2.34 -2 1.68 -2 1 C-1.34 0.67 -0.68 0.34 0 0 Z " fill="#181A18" transform="translate(398,588)"/>
<path d="M0 0 C0.99 0.33 1.98 0.66 3 1 C3 1.66 3 2.32 3 3 C-1.455 3.495 -1.455 3.495 -6 4 C-6 3.01 -6 2.02 -6 1 C-4.7934375 1.0309375 -4.7934375 1.0309375 -3.5625 1.0625 C-1.06645115 1.29633621 -1.06645115 1.29633621 0 0 Z " fill="#181A19" transform="translate(652,789)"/>
<path d="M0 0 C0.99 0.33 1.98 0.66 3 1 C2.67 1.99 2.34 2.98 2 4 C-0.64 4.33 -3.28 4.66 -6 5 C-5.195625 4.360625 -4.39125 3.72125 -3.5625 3.0625 C-1.7249496 1.59396498 -1.7249496 1.59396498 0 0 Z " fill="#151715" transform="translate(680,774)"/>
<path d="M0 0 C0.33 1.32 0.66 2.64 1 4 C-1.31 5.32 -3.62 6.64 -6 8 C-6 5 -6 5 -4.6875 3.61328125 C-3.125 2.40885417 -1.5625 1.20442708 0 0 Z " fill="#181918" transform="translate(676,765)"/>
<path d="M0 0 C2.97 0.495 2.97 0.495 6 1 C5.401875 1.268125 4.80375 1.53625 4.1875 1.8125 C1.95672092 2.8893979 1.95672092 2.8893979 0.375 4.625 C-0.07875 5.07875 -0.5325 5.5325 -1 6 C-1.66 6 -2.32 6 -3 6 C-3 5.34 -3 4.68 -3 4 C-2.34 4 -1.68 4 -1 4 C-0.67 2.68 -0.34 1.36 0 0 Z " fill="#151716" transform="translate(679,683)"/>
<path d="M0 0 C0.99 0.33 1.98 0.66 3 1 C1.68 2.32 0.36 3.64 -1 5 C-1.99 4.67 -2.98 4.34 -4 4 C-2.68 2.68 -1.36 1.36 0 0 Z M-6 4 C-5.34 4.33 -4.68 4.66 -4 5 C-4.99 5 -5.98 5 -7 5 C-6.67 4.67 -6.34 4.34 -6 4 Z " fill="#181918" transform="translate(607,676)"/>
<path d="M0 0 C0.66 0 1.32 0 2 0 C2 0.99 2 1.98 2 3 C3.98 3 5.96 3 8 3 C8.33 3.99 8.66 4.98 9 6 C6.8125 6.3125 6.8125 6.3125 4 6 C1.1875 3.5 1.1875 3.5 -1 1 C-0.67 0.67 -0.34 0.34 0 0 Z " fill="#181918" transform="translate(339,565)"/>
<path d="M0 0 C0.99 0 1.98 0 3 0 C3 0.66 3 1.32 3 2 C3.66 2 4.32 2 5 2 C5 2.99 5 3.98 5 5 C5.66 5 6.32 5 7 5 C6.67 6.32 6.34 7.64 6 9 C4.02 6.03 2.04 3.06 0 0 Z " fill="#161716" transform="translate(300,528)"/>
<path d="M0 0 C1.485 0.99 1.485 0.99 3 2 C2.34 2 1.68 2 1 2 C1 2.66 1 3.32 1 4 C0.34 3.67 -0.32 3.34 -1 3 C-0.67 2.01 -0.34 1.02 0 0 Z M-4 4 C-3.01 4 -2.02 4 -1 4 C-0.67 6.31 -0.34 8.62 0 11 C-2 9.1875 -2 9.1875 -4 7 C-4 6.01 -4 5.02 -4 4 Z " fill="#090B09" transform="translate(301,517)"/>
<path d="M0 0 C0.99 0 1.98 0 3 0 C3.36923077 4.55384615 3.36923077 4.55384615 1.5 6.8125 C1.005 7.204375 0.51 7.59625 0 8 C-0.99 7.67 -1.98 7.34 -3 7 C-2.505 6.21625 -2.01 5.4325 -1.5 4.625 C0.16537965 2.21447673 0.16537965 2.21447673 0 0 Z " fill="#181A19" transform="translate(669,505)"/>
<path d="M0 0 C2.99332739 0.9977758 3.94766315 1.7522025 6 4 C5.195625 4.12375 4.39125 4.2475 3.5625 4.375 C2.2940625 4.684375 2.2940625 4.684375 1 5 C0.67 5.66 0.34 6.32 0 7 C-0.38133299 5.0085944 -0.71325582 3.00720923 -1 1 C-0.67 0.67 -0.34 0.34 0 0 Z " fill="#151715" transform="translate(509,252)"/>
<path d="M0 0 C2.31 0.33 4.62 0.66 7 1 C7 2.65 7 4.3 7 6 C5.0625 5.6875 5.0625 5.6875 3 5 C2.67 4.01 2.34 3.02 2 2 C1.34 1.34 0.68 0.68 0 0 Z " fill="#090B0A" transform="translate(502,250)"/>
<path d="M0 0 C1.32 0 2.64 0 4 0 C3.75 1.875 3.75 1.875 3 4 C0.9375 5.25 0.9375 5.25 -1 6 C-1.33 5.01 -1.66 4.02 -2 3 C-1.34 2.01 -0.68 1.02 0 0 Z " fill="#171917" transform="translate(588,694)"/>
<path d="M0 0 C0.66 0.33 1.32 0.66 2 1 C1.01 1.33 0.02 1.66 -1 2 C-1.33 2.99 -1.66 3.98 -2 5 C-3.175625 5.2165625 -3.175625 5.2165625 -4.375 5.4375 C-6.96421018 5.87798925 -6.96421018 5.87798925 -9 7 C-8 4 -8 4 -6.22265625 2.796875 C-5.50980469 2.45140625 -4.79695312 2.1059375 -4.0625 1.75 C-3.35222656 1.39421875 -2.64195312 1.0384375 -1.91015625 0.671875 C-1.27980469 0.45015625 -0.64945313 0.2284375 0 0 Z " fill="#EAEAE9" transform="translate(621,683)"/>
<path d="M0 0 C-3.44450737 2.29633824 -5.93812283 2.54016485 -10 3 C-10 2.01 -10 1.02 -10 0 C-6.30458414 -0.95024979 -3.69541586 -0.95024979 0 0 Z " fill="#191B19" transform="translate(502,580)"/>
<path d="M0 0 C0.66 0.99 1.32 1.98 2 3 C0.69593116 5.01920337 -0.63823419 7.01924973 -2 9 C-2.33 9 -2.66 9 -3 9 C-2.4140625 2.84765625 -2.4140625 2.84765625 -2 1 C-1.34 0.67 -0.68 0.34 0 0 Z " fill="#161615" transform="translate(676,498)"/>
<path d="M0 0 C0.99 0.99 1.98 1.98 3 3 C2.01 3.495 2.01 3.495 1 4 C0.67 4.99 0.34 5.98 0 7 C-0.66 7 -1.32 7 -2 7 C-2.33 6.01 -2.66 5.02 -3 4 C-1.5625 1.8125 -1.5625 1.8125 0 0 Z " fill="#171817" transform="translate(675,421)"/>
<path d="M0 0 C0.99 0.99 1.98 1.98 3 3 C2.34 4.32 1.68 5.64 1 7 C0.01 6.67 -0.98 6.34 -2 6 C-1.34 4.02 -0.68 2.04 0 0 Z " fill="#161817" transform="translate(492,256)"/>
<path d="M0 0 C0.99 0.33 1.98 0.66 3 1 C1.84826645 3.46800047 0.95216435 5.04783565 -1 7 C-1.66 7 -2.32 7 -3 7 C-1.125 1.125 -1.125 1.125 0 0 Z " fill="#131614" transform="translate(599,695)"/>
<path d="M0 0 C0.94875 0.350625 1.8975 0.70125 2.875 1.0625 C2.875 2.0525 2.875 3.0425 2.875 4.0625 C-2.875 2.3125 -2.875 2.3125 -5.125 0.0625 C-3.125 -0.9375 -3.125 -0.9375 0 0 Z " fill="#191A1A" transform="translate(667.125,672.9375)"/>
<path d="M0 0 C0.99 0.99 1.98 1.98 3 3 C2 5 2 5 0.125 5.75 C-2 6 -2 6 -5 4 C-4.0409375 3.8453125 -4.0409375 3.8453125 -3.0625 3.6875 C-2.381875 3.460625 -1.70125 3.23375 -1 3 C-0.67 2.01 -0.34 1.02 0 0 Z " fill="#1D1F1D" transform="translate(570,570)"/>
<path d="M0 0 C1.65 0 3.3 0 5 0 C4.25 1.9375 4.25 1.9375 3 4 C0.875 4.75 0.875 4.75 -1 5 C-1 2 -1 2 0 0 Z " fill="#1A1B1A" transform="translate(568,245)"/>
<path d="M0 0 C1.41623216 -0.05447047 2.83308191 -0.09300508 4.25 -0.125 C5.03890625 -0.14820313 5.8278125 -0.17140625 6.640625 -0.1953125 C9.20731941 0.0171622 10.7916067 0.71345895 13 2 C10.69 2.66 8.38 3.32 6 4 C6 3.01 6 2.02 6 1 C4.02 1 2.04 1 0 1 C0 0.67 0 0.34 0 0 Z " fill="#070807" transform="translate(465,242)"/>
<path d="M0 0 C0.99 1.32 1.98 2.64 3 4 C1.02 4.99 1.02 4.99 -1 6 C-1 2 -1 2 0 0 Z M-3 5 C-2.67 5.66 -2.34 6.32 -2 7 C-2.66 6.67 -3.32 6.34 -4 6 C-3.67 5.67 -3.34 5.34 -3 5 Z " fill="#1B1C1C" transform="translate(525,643)"/>
<path d="M0 0 C0.99 0.33 1.98 0.66 3 1 C3 1.99 3 2.98 3 4 C1.35 4.66 -0.3 5.32 -2 6 C-1.125 1.125 -1.125 1.125 0 0 Z " fill="#171817" transform="translate(329,284)"/>
<path d="M0 0 C0 0.99 0 1.98 0 3 C-2.31 3 -4.62 3 -7 3 C-7.33 2.34 -7.66 1.68 -8 1 C-5.07175348 0.02391783 -3.04386724 -0.08226668 0 0 Z " fill="#1A1D1B" transform="translate(430,254)"/>
</svg>
