<?xml version="1.0" encoding="UTF-8"?>
<svg version="1.1" xmlns="http://www.w3.org/2000/svg" width="1024" height="1024">
<path d="M0 0 C337.92 0 675.84 0 1024 0 C1024 337.92 1024 675.84 1024 1024 C686.08 1024 348.16 1024 0 1024 C0 686.08 0 348.16 0 0 Z " fill="#FEFDFA" transform="translate(0,0)"/>
<path d="M0 0 C2.87200374 -0.29418185 5.52841488 -0.39099891 8.40274048 -0.36076355 C9.72224939 -0.36460846 9.72224939 -0.36460846 11.06841505 -0.36853105 C14.03358599 -0.37349586 16.99825441 -0.35693173 19.96337891 -0.34057617 C22.08187345 -0.33973048 24.20036888 -0.3402039 26.31886292 -0.34190369 C32.08516589 -0.34276733 37.85128309 -0.3250819 43.61754274 -0.30418181 C49.63803456 -0.28547641 55.65853024 -0.28366943 61.67904663 -0.28010559 C73.08650434 -0.27076704 84.49387619 -0.24612881 95.90129602 -0.21605712 C108.88536383 -0.18256935 121.86943567 -0.16604127 134.85353589 -0.15097082 C161.5690716 -0.11958081 188.284531 -0.06678521 215 0 C215.05291025 1.75089221 215.09056389 3.50224963 215.12182617 5.25366211 C215.14444016 6.22887314 215.16705414 7.20408417 215.19035339 8.20884705 C214.89153136 12.59047633 212.9683929 15.19596411 210.3125 18.5625 C209.81991699 19.23104004 209.32733398 19.89958008 208.81982422 20.58837891 C207.76963423 22.0111214 206.70880869 23.42606683 205.63818359 24.83349609 C203.45081638 27.72629739 201.34643551 30.67527852 199.23681641 33.625 C197.05923123 36.66477961 194.8599853 39.68861053 192.66162109 42.71337891 C189.91523144 46.49279199 187.17509281 50.27671131 184.4375 54.0625 C183.89883301 54.80741699 183.36016602 55.55233398 182.80517578 56.31982422 C178.66441173 62.05654672 174.57921134 67.83093342 170.51049805 73.61889648 C166.96654716 78.65266112 163.36811005 83.64436157 159.75 88.625 C153.32565586 97.47928246 147.08878349 106.4599013 140.85546875 115.44921875 C136.09003813 122.31929304 131.2673298 129.14819475 126.43554688 135.97167969 C123.95349984 139.47862641 121.47710676 142.98956294 119 146.5 C118.00002554 147.9166847 117.00002558 149.33335139 116 150.75 C115.505 151.45125 115.01 152.1525 114.5 152.875 C113 155 111.5 157.125 110 159.25 C109.50508057 159.95116943 109.01016113 160.65233887 108.50024414 161.37475586 C107.49955812 162.79232654 106.49874417 164.20980692 105.49780273 165.62719727 C103.00724549 169.15430572 100.51888408 172.68292217 98.03515625 176.21484375 C92.94477639 183.44840921 87.81789023 190.65210747 82.625 197.8125 C77.39848806 205.02229356 72.26132155 212.29068153 67.17163086 219.59765625 C64.3924009 223.58715226 61.602862 227.5671079 58.765625 231.515625 C52.3695495 240.43085039 46.47251571 249.4892973 41 259 C40.63648438 259.58491211 40.27296875 260.16982422 39.8984375 260.77246094 C37.58851339 264.56347847 36.60587483 267.63724224 36 272 C47.00482471 273.09408222 57.94405105 273.16356303 68.9921875 273.16796875 C70.91065494 273.17119107 72.82912215 273.17455584 74.74758911 273.17805481 C78.74986337 273.18400759 82.75211616 273.18589862 86.75439453 273.18530273 C91.84307449 273.18520115 96.93161484 273.19886735 102.02026176 273.21607494 C105.97718927 273.22727604 109.93408382 273.22921949 113.89102554 273.22869301 C115.76540738 273.2298604 117.63979043 273.23421095 119.51415634 273.24202538 C141.3533221 273.32458452 164.27527601 272.18631999 181.35546875 256.890625 C188.16341814 249.90691099 192.5607805 241.58750487 197 233 C197.36013184 232.30471191 197.72026367 231.60942383 198.09130859 230.89306641 C202.30525833 222.70405297 206.25923205 214.41672788 210 206 C213.63 206 217.26 206 221 206 C220.347653 210.69225259 219.69022997 215.38375938 219.02856445 220.07470703 C218.80524252 221.66273857 218.58318846 223.25094904 218.36254883 224.83935547 C217.04605631 234.30970481 215.54715541 243.70523959 213.73413086 253.09326172 C212.98856894 257.06083136 212.319373 261.03330837 211.68359375 265.01953125 C211.47669922 266.30794922 211.26980469 267.59636719 211.05664062 268.92382812 C210.74296745 270.89393317 210.42946379 272.8640724 210.12231445 274.83520508 C209.8160232 276.79352664 209.49996139 278.75031226 209.18359375 280.70703125 C209.00368896 281.8463208 208.82378418 282.98561035 208.63842773 284.15942383 C208 287 208 287 206 290 C203.01242729 290.31587913 200.22793452 290.43735192 197.23583984 290.43237305 C196.32846573 290.4425647 195.42109161 290.45275635 194.48622131 290.46325684 C191.47773171 290.49352601 188.46955974 290.50267397 185.4609375 290.51171875 C183.37870209 290.52855512 181.29647691 290.54670393 179.21426392 290.56611633 C173.72667639 290.61373561 168.23913031 290.64346773 162.75140381 290.66955566 C157.15449839 290.69930114 151.55773599 290.74585201 145.9609375 290.79101562 C134.97403296 290.87718438 123.98709909 290.94446916 113 291 C113.75948441 291.27225403 114.51896881 291.54450806 115.3014679 291.82501221 C116.29551132 292.18343201 117.28955475 292.54185181 118.3137207 292.91113281 C119.30008011 293.26588684 120.28643951 293.62064087 121.3026886 293.98614502 C136.64816984 299.75414518 144.49020969 311.57289051 151.3203125 325.73828125 C155.10386709 334.52453581 156.17821482 343.32665124 156.375 352.8125 C156.40110352 353.51052734 156.42720703 354.20855469 156.45410156 354.92773438 C156.49891081 369.04904835 149.72023809 381.22566249 143.25 393.3125 C138.56324217 402.1634266 133.8945565 411.01931681 129.546875 420.04296875 C129.05323456 421.04352043 129.05323456 421.04352043 128.54962158 422.06428528 C123.22597848 433.28932781 121.93292617 446.37479461 125.625 458.3125 C131.69473508 474.21349613 142.02408427 484.64026466 157.33203125 491.87890625 C185.77006065 503.82870777 218.36391571 502.37955491 247 492 C246.3709375 491.59910156 245.741875 491.19820312 245.09375 490.78515625 C232.4705794 482.40139385 223.79674085 471.04148432 220.36181641 456.07348633 C217.86374885 441.75763764 220.26015032 426.59339699 228.23828125 414.375 C237.44971728 401.95692216 247.54399864 393.61887019 262.97265625 390.375 C278.49784895 388.45187936 293.60126987 391.06980198 306.25 400.6875 C317.50740926 410.33928518 325.76013408 423.00352652 327 438 C327.99884269 454.74423565 324.80899781 468.40107932 313.6875 481.25 C304.97537919 490.39484204 295.38995308 495.84611387 284 501 C282.82179688 501.53753906 281.64359375 502.07507813 280.4296875 502.62890625 C267.19556887 508.10262918 253.04663978 510.51777992 239 513 C238.15663086 513.14985352 237.31326172 513.29970703 236.44433594 513.45410156 C212.03213085 517.5137809 184.20009461 516.76105508 160 512 C159.07799805 511.82839355 158.15599609 511.65678711 157.20605469 511.47998047 C118.70921266 504.23023859 82.44528923 488.34418126 54 461 C53.53142578 460.55720703 53.06285156 460.11441406 52.58007812 459.65820312 C25.3719469 433.86531929 12.00419819 401.69745338 7 365 C6.04222656 365.32613281 5.08445312 365.65226562 4.09765625 365.98828125 C-5.81858543 369.2756557 -15.655803 371.54884472 -26 373 C-27.92005859 373.27457031 -27.92005859 373.27457031 -29.87890625 373.5546875 C-52.40321799 375.92440019 -76.21056023 375.25682359 -98 369 C-98.80115234 368.77006348 -99.60230469 368.54012695 -100.42773438 368.30322266 C-132.90797047 358.58802926 -159.78288728 337.87525806 -176.1328125 308.1796875 C-182.77059813 295.706709 -187.10208561 282.54461573 -190.3125 268.8125 C-190.47202148 268.14943848 -190.63154297 267.48637695 -190.79589844 266.80322266 C-193.55617449 254.11387412 -193.23803887 240.68842063 -193.25 227.75 C-193.25100708 226.98441772 -193.25201416 226.21883545 -193.25305176 225.43005371 C-193.24265708 213.70302804 -192.66207734 202.46228513 -190 191 C-189.73316406 189.73542969 -189.46632812 188.47085938 -189.19140625 187.16796875 C-181.75947507 155.62354972 -161.63921256 125.2387865 -134.33984375 107.60546875 C-122.13654446 100.0834992 -108.89553524 94.48259902 -95 91 C-93.74960937 90.68160156 -92.49921875 90.36320312 -91.2109375 90.03515625 C-54.57469287 81.73730142 -11.48678928 89.87778346 20.35644531 109.44824219 C25.16136946 112.61735466 29.92105238 115.92105238 34 120 C34.24050903 122.10073853 34.24050903 122.10073853 34.22705078 124.72509766 C34.22682419 126.19639633 34.22682419 126.19639633 34.22659302 127.69741821 C34.21627045 128.75891083 34.20594788 129.82040344 34.1953125 130.9140625 C34.1924826 131.99883881 34.18965271 133.08361511 34.18673706 134.20126343 C34.17551578 137.67595313 34.15040762 141.15038782 34.125 144.625 C34.11497272 146.97655879 34.10584643 149.3281216 34.09765625 151.6796875 C34.07557011 157.45321244 34.04207345 163.22658801 34 169 C31.69 169 29.38 169 27 169 C26.67 167.845 26.34 166.69 26 165.5 C18.11820561 142.11243253 2.16742429 122.40864952 -19.84863281 111.04589844 C-38.46734593 102.16219831 -59.873501 99.03166613 -80 104 C-81.26070312 104.25716797 -81.26070312 104.25716797 -82.546875 104.51953125 C-97.11783941 107.86050682 -108.77001831 115.34573336 -119 126 C-119.66386719 126.66773438 -120.32773437 127.33546875 -121.01171875 128.0234375 C-143.9818478 152.49049631 -150.39965044 189.06140086 -150.26074219 221.29345703 C-150.25006901 224.2310067 -150.26066776 227.16793813 -150.2734375 230.10546875 C-150.30083519 265.82680271 -143.12956992 304.9144355 -117.42822266 331.59521484 C-105.86007786 342.97352342 -89.74546371 351.31651576 -74 355 C-73.2776416 355.17442627 -72.5552832 355.34885254 -71.81103516 355.52856445 C-50.22283455 360.36004582 -29.53891777 356.59603654 -10 347 C-6.98579329 345.39152609 -6.98579329 345.39152609 -6.32157898 343.36888123 C-5.85699163 339.9465423 -5.85263839 336.54453532 -5.85473633 333.09790039 C-5.85137772 332.30555496 -5.8480191 331.51320953 -5.84455872 330.69685364 C-5.83506818 328.08043852 -5.83310664 325.46408751 -5.83203125 322.84765625 C-5.82881765 321.0268908 -5.8254535 319.20612562 -5.82194519 317.38536072 C-5.81595889 313.56980796 -5.81410481 309.75427783 -5.81469727 305.9387207 C-5.81479893 301.05169573 -5.80114023 296.16481591 -5.78392506 291.27782536 C-5.77280286 287.51772902 -5.77077812 283.75766778 -5.77130699 279.99755669 C-5.77012746 278.195851 -5.76570718 276.39414439 -5.75797462 274.59245491 C-5.74816915 272.07203133 -5.75105482 269.55192288 -5.75708008 267.03149414 C-5.75146057 266.28899414 -5.74584106 265.54649414 -5.74005127 264.78149414 C-5.76445677 260.76062243 -6.07675853 257.56605926 -8 254 C-18.45208814 246.61204193 -31.65007285 244.86124789 -44 243 C-44 240.03 -44 237.06 -44 234 C-43.33538254 234.02300171 -42.67076508 234.04600342 -41.98600769 234.06970215 C-35.02551327 234.2945756 -28.06963429 234.40521941 -21.10571289 234.45166016 C-18.51274774 234.48365013 -15.91996331 234.54410357 -13.32836914 234.63427734 C0.49379634 235.67419282 0.49379634 235.67419282 13.20214844 231.49139404 C16.78417504 227.80353704 19.04439263 223.57126438 21.1232605 218.90490723 C22.22976756 216.50078 23.65303267 214.4616394 25.2421875 212.3515625 C25.68095215 211.72918701 26.1197168 211.10681152 26.57177734 210.46557617 C27.00184082 209.85818604 27.4319043 209.2507959 27.875 208.625 C28.36564941 207.93059814 28.85629883 207.23619629 29.36181641 206.52075195 C32.99886376 201.38484554 36.68128657 196.2827387 40.375 191.1875 C46.7588158 182.37880912 53.00054564 173.47452788 59.22070312 164.54980469 C61.0131959 161.98108974 62.81044232 159.41577086 64.609375 156.8515625 C70.33855447 148.68450065 76.04696018 140.50497046 81.68530273 132.27490234 C85.00246728 127.4376449 88.34893254 122.62136621 91.70361328 117.81005859 C105.12035114 98.56691585 118.27477598 79.15922962 131.25488281 59.61914062 C132.75301079 57.37069114 134.25940012 55.1283745 135.7734375 52.890625 C140.62453869 45.71091838 145.25374424 38.41851491 149.80078125 31.04296875 C150.39910767 30.07435913 150.99743408 29.10574951 151.6138916 28.10778809 C153.07687751 25.73910945 154.53888964 23.36983585 156 21 C142.95997411 20.90693271 129.92002846 20.83604947 116.8797369 20.79275131 C110.8232689 20.77196048 104.76702972 20.74379938 98.71069336 20.69824219 C92.85568077 20.65447975 87.00088698 20.6307991 81.14572334 20.62049103 C78.92242557 20.6131539 76.69913849 20.59882772 74.47593498 20.57707977 C56.24875205 20.40602088 38.1126981 21.2500492 24 34.3125 C11.38272546 47.81831501 5.71047189 63.67547658 0 81 C-3.63 81 -7.26 81 -11 81 C-10.4154801 72.38797851 -9.55374552 63.85895543 -8.40625 55.3046875 C-8.25466431 54.1505838 -8.10307861 52.9964801 -7.94689941 51.80740356 C-7.46787325 48.16282825 -6.98433373 44.51887346 -6.5 40.875 C-6.01612313 37.22392905 -5.53331218 33.57272801 -5.05310059 29.9211731 C-4.75593934 27.66247522 -4.4566821 25.40405168 -4.15490723 23.14596558 C-3.36968194 17.18783467 -2.73711496 11.26113199 -2.35803223 5.26223755 C-2 3 -2 3 0 0 Z " fill="#0E1212" transform="translate(397,251)"/>
<path d="M0 0 C74.25 0 148.5 0 225 0 C226.70064635 3.4012927 227.27019859 4.74592479 227.5625 8.28344727 C227.63597656 9.12275284 227.70945312 9.96205841 227.78515625 10.82679749 C227.85605469 11.73086838 227.92695312 12.63493927 228 13.56640625 C228.08121094 14.51450668 228.16242188 15.46260712 228.24609375 16.43943787 C228.50510665 19.47986645 228.75300023 22.52107406 229 25.5625 C229.33023345 29.52239896 229.66508812 33.48190069 230 37.44140625 C230.0810498 38.41413483 230.16209961 39.3868634 230.24560547 40.3890686 C230.84753962 47.51714604 231.55883639 54.6287437 232.390625 61.73377991 C232.92920345 66.52095915 233.07601131 71.18176527 233 76 C229.7 76 226.4 76 223 76 C221.13349253 70.68045372 219.61988228 65.42269499 218.3125 59.9375 C214.75178322 45.91539732 207.5964209 30.51700508 195.05541992 22.62133789 C183.70547985 15.96485512 171.4668159 13.81286493 158.44140625 13.90234375 C157.65225327 13.9037587 156.86310028 13.90517365 156.05003357 13.90663147 C153.55414885 13.91218445 151.05835715 13.92472792 148.5625 13.9375 C146.86002735 13.94252109 145.15755327 13.94708293 143.45507812 13.95117188 C139.30335012 13.96213842 135.15169078 13.97937009 131 14 C131.08394017 42.36412272 131.17908848 70.72818877 131.28752708 99.09222889 C131.33761818 112.26256464 131.38406154 125.43289428 131.421875 138.60327148 C131.454848 150.08448442 131.49470858 161.56564941 131.54279006 173.04680938 C131.56800221 179.12422483 131.58979911 185.20160869 131.60334396 191.27906227 C131.61621224 197.00406419 131.63831793 202.72895749 131.66738319 208.45389938 C131.67642176 210.55042913 131.68214047 212.64697635 131.68421364 214.74352455 C131.26312573 232.5856503 131.26312573 232.5856503 136.3125 249.4375 C136.70050781 250.21996094 137.08851563 251.00242187 137.48828125 251.80859375 C142.15778081 258.57755823 149.36236818 260.25925294 157 262 C161.33260183 262.54780023 165.63620257 262.85715884 170 263 C170 265.97 170 268.94 170 272 C133.37 272 96.74 272 59 272 C59 269.03 59 266.06 59 263 C59.66644531 262.97421875 60.33289063 262.9484375 61.01953125 262.921875 C69.37988386 262.40739176 77.33134959 261.11037752 83.875 255.5625 C90.8871856 245.50487613 92.14409017 233.65917119 92.15821838 221.79980469 C92.16315636 220.90683843 92.16809434 220.01387217 92.17318195 219.09384632 C92.18846568 216.11985764 92.19689268 213.1458904 92.20532227 210.171875 C92.21490797 208.03278924 92.22491846 205.89370535 92.23532104 203.75462341 C92.26230111 197.95983939 92.28334794 192.16504728 92.30332303 186.37023544 C92.32522523 180.30971563 92.35259317 174.24922055 92.37937927 168.1887207 C92.42924897 156.71776887 92.474209 145.24680326 92.51740164 133.77582455 C92.56682297 120.71420249 92.62172292 107.65260526 92.67708123 94.59100723 C92.79081341 67.72736132 92.89767148 40.8636916 93 14 C87.73882338 13.89959587 82.47822883 13.82782377 77.21630859 13.78027344 C75.43398297 13.7604093 73.65172025 13.7333084 71.86962891 13.69824219 C55.07105929 13.37646677 38.02337186 14.58534576 24.64453125 26.01171875 C13.18925984 37.62472196 8.00383495 52.43692085 4.48876953 67.99755859 C3.82337695 70.72360754 2.93976799 73.35769269 2 76 C-1.3 76 -4.6 76 -8 76 C-7.09515592 55.00137696 -4.73509559 34.0653817 -2.375 13.1875 C-2.1905835 11.5334314 -2.1905835 11.5334314 -2.00244141 9.84594727 C-1.82720947 8.3347229 -1.82720947 8.3347229 -1.6484375 6.79296875 C-1.54708496 5.9114917 -1.44573242 5.03001465 -1.34130859 4.12182617 C-1 2 -1 2 0 0 Z " fill="#0F1313" transform="translate(569,344)"/>
<path d="M0 0 C2.03714092 0.15494065 4.07424256 0.31039778 6.11132812 0.46606445 C7.24574341 0.55257767 8.38015869 0.63909088 9.5489502 0.72822571 C65.93515939 5.168707 65.93515939 5.168707 82.45703125 23.87890625 C90.89462348 35.47792545 91.44970013 48.23433407 91.4375 62.1875 C91.43710724 63.21904205 91.43710724 63.21904205 91.43670654 64.27142334 C91.38844879 74.97935212 90.64361825 84.1906572 86 94 C85.62456055 94.79486816 85.24912109 95.58973633 84.86230469 96.40869141 C83.15394719 99.99088259 81.43051178 103.56489886 79.67456055 107.12402344 C70.04657666 126.89885373 66.06368102 150.32208608 72.6640625 171.69140625 C75.49191366 178.69488558 80.88955386 189.44477693 88 193 C87.67 193.66 87.34 194.32 87 195 C61.43487833 182.5094266 39.31533051 168.58203444 24.18969727 143.88574219 C22.85118375 141.76411723 21.42337026 139.71519201 19.99609375 137.65234375 C16.95288298 133.09909508 14.67983876 128.4163059 12.5625 123.375 C12.18416016 122.48127686 11.80582031 121.58755371 11.41601562 120.66674805 C8.5945143 113.82223632 6.186924 106.88380423 4 99.8125 C3.56409546 98.41620361 3.56409546 98.41620361 3.11938477 96.99169922 C2.85311279 96.09338379 2.58684082 95.19506836 2.3125 94.26953125 C2.08175781 93.49198486 1.85101563 92.71443848 1.61328125 91.91333008 C-0.54496738 81.6607899 -0.13039517 71.16355849 -0.09765625 60.7421875 C-0.09578797 58.98528077 -0.094366 57.22837351 -0.09336853 55.47146606 C-0.08957565 50.87828091 -0.07977343 46.28512807 -0.06866455 41.69195557 C-0.05838051 36.99255816 -0.05385602 32.29315545 -0.04882812 27.59375 C-0.03814785 18.39581924 -0.02111084 9.19791232 0 0 Z " fill="#FDFDF9" transform="translate(431,539)"/>
<path d="M0 0 C10.00324279 7.35658111 17.12689807 16.81352834 20 29 C21.482743 41.2704548 18.32928086 51.93650157 10.90625 61.75 C3.62136276 70.34855543 -5.87127724 76.22816214 -17.25 77.30859375 C-29.38451716 77.72571778 -37.31746616 74.45378502 -46.5 66.4375 C-50.82267067 62.39580293 -54.60929892 58.24186756 -57.1875 52.875 C-57.51105469 52.21242188 -57.83460938 51.54984375 -58.16796875 50.8671875 C-61.92225696 42.44207123 -61.88226146 29.33972013 -58.6484375 20.74609375 C-57.07929453 17.29064062 -55.13732903 14.13648692 -53 11 C-52.51015625 10.27554688 -52.0203125 9.55109375 -51.515625 8.8046875 C-39.61550694 -6.63872414 -16.33369612 -10.08223833 0 0 Z " fill="#FCFCF9" transform="translate(691,660)"/>
<path d="M0 0 C0.83364104 0.00291284 1.66728208 0.00582568 2.52618498 0.00882679 C3.40500316 0.00797237 4.28382134 0.00711794 5.18927038 0.00623763 C8.15738465 0.00458012 11.12544339 0.01010859 14.09355253 0.01555592 C16.21189968 0.01583776 18.33024694 0.01568012 20.44859403 0.01511341 C26.21902043 0.01482531 31.98942623 0.02072406 37.75984782 0.02768737 C43.7830232 0.03391883 49.80619901 0.03452454 55.82937711 0.03571278 C67.24391465 0.03882671 78.65844266 0.04704093 90.07297599 0.05706227 C103.06428642 0.06822149 116.05559728 0.07373337 129.0469113 0.0787577 C155.77917916 0.08922349 182.51143856 0.10682413 209.24369901 0.12908131 C209.24369901 3.75908131 209.24369901 7.38908131 209.24369901 11.12908131 C208.58369901 11.45908131 207.92369901 11.78908131 207.24369901 12.12908131 C207.24369901 8.82908131 207.24369901 5.52908131 207.24369901 2.12908131 C137.28369901 2.12908131 67.32369901 2.12908131 -4.75630099 2.12908131 C-5.08630099 4.10908131 -5.41630099 6.08908131 -5.75630099 8.12908131 C-6.08630099 8.12908131 -6.41630099 8.12908131 -6.75630099 8.12908131 C-6.79871822 5.79613355 -6.79723036 3.46205564 -6.75630099 1.12908131 C-4.93759281 -0.68962687 -2.42074101 0.00641853 0 0 Z " fill="#030403" transform="translate(402.75630098581314,250.8709186911583)"/>
<path d="M0 0 C0.33 0 0.66 0 1 0 C1.04254356 1.99954746 1.04080783 4.00041636 1 6 C-0.75088235 7.75088235 -3.19452732 7.12760292 -5.57250977 7.12939453 C-6.77049698 7.13254669 -7.96848419 7.13569885 -9.20277405 7.13894653 C-10.51902267 7.1369223 -11.8352713 7.13489807 -13.19140625 7.1328125 C-14.57063311 7.13348773 -15.94985985 7.13445958 -17.3290863 7.13571167 C-20.24894318 7.13719356 -23.16876969 7.13502857 -26.08862305 7.13037109 C-29.72649023 7.12483581 -33.36428159 7.12793343 -37.00214577 7.13382339 C-57.0197374 7.16105018 -76.99644882 6.75139219 -97 6 C-97 5.67 -97 5.34 -97 5 C-65.32 5 -33.64 5 -1 5 C-0.67 3.35 -0.34 1.7 0 0 Z " fill="#020303" transform="translate(603,534)"/>
<path d="M0 0 C10.89 0.99 10.89 0.99 22 2 C22 4.97 22 7.94 22 11 C-14.3 11 -50.6 11 -88 11 C-88 8.69 -88 6.38 -88 4 C-87.67 4 -87.34 4 -87 4 C-87 5.98 -87 7.96 -87 10 C-51.69 10 -16.38 10 20 10 C20 8.02 20 6.04 20 4 C18.46279297 3.90912109 18.46279297 3.90912109 16.89453125 3.81640625 C15.53384305 3.73194974 14.17316657 3.64730433 12.8125 3.5625 C12.13896484 3.52318359 11.46542969 3.48386719 10.77148438 3.44335938 C7.10300898 3.21072435 3.58305794 2.82792989 0 2 C0 1.34 0 0.68 0 0 Z " fill="#000100" transform="translate(717,605)"/>
<path d="M0 0 C3.6875 0.1875 3.6875 0.1875 7.6875 2.1875 C4.3875 2.1875 1.0875 2.1875 -2.3125 2.1875 C-2.3125 22.3175 -2.3125 42.4475 -2.3125 63.1875 C-2.6425 63.1875 -2.9725 63.1875 -3.3125 63.1875 C-4.05597238 59.20176574 -4.43859957 55.43403802 -4.44189453 51.3815918 C-4.44504669 50.26411057 -4.44819885 49.14662933 -4.45144653 47.99528503 C-4.44841019 46.20904472 -4.44841019 46.20904472 -4.4453125 44.38671875 C-4.44626923 43.15460159 -4.44722595 41.92248444 -4.44821167 40.6530304 C-4.44889077 38.05669097 -4.44705536 35.46034982 -4.44287109 32.86401367 C-4.43927821 30.19564508 -4.43832633 27.52747732 -4.44287109 24.85913086 C-4.44901816 21.01413928 -4.44830973 17.16921294 -4.4453125 13.32421875 C-4.44733673 12.12327072 -4.44936096 10.92232269 -4.45144653 9.6849823 C-4.44829437 8.58326187 -4.44514221 7.48154144 -4.44189453 6.34643555 C-4.44109894 5.3719194 -4.44030334 4.39740326 -4.43948364 3.39335632 C-4.23349147 -0.18497184 -3.69772508 0.20930519 0 0 Z " fill="#020303" transform="translate(433.3125,536.8125)"/>
<path d="M0 0 C1.32 0.33 2.64 0.66 4 1 C4 17.17 4 33.34 4 50 C1.69 50 -0.62 50 -3 50 C-6.25968109 40.58997722 -6.25968109 40.58997722 -7 36 C-6.34 36 -5.68 36 -5 36 C-4.01 39.63 -3.02 43.26 -2 47 C-0.68 47.33 0.64 47.66 2 48 C2 32.49 2 16.98 2 1 C1.34 0.67 0.68 0.34 0 0 Z " fill="#020404" transform="translate(427,370)"/>
<path d="M0 0 C31.35 0 62.7 0 95 0 C95 0.33 95 0.66 95 1 C67.28 1 39.56 1 11 1 C11.33 2.32 11.66 3.64 12 5 C8.04 3.68 4.08 2.36 0 1 C0 0.67 0 0.34 0 0 Z " fill="#F3F3F2" transform="translate(508,541)"/>
<path d="M0 0 C17.82 0.33 35.64 0.66 54 1 C54 1.33 54 1.66 54 2 C36.84 2 19.68 2 2 2 C2 3.65 2 5.3 2 7 C4.64 7.33 7.28 7.66 10 8 C10 8.33 10 8.66 10 9 C6.7 9 3.4 9 0 9 C0 6.03 0 3.06 0 0 Z " fill="#010101" transform="translate(353,485)"/>
<path d="M0 0 C0.33 0 0.66 0 1 0 C1.14552459 4.42495389 1.2877593 8.84999912 1.42724609 13.27514648 C1.47489538 14.77322074 1.52336688 16.27126913 1.57275391 17.76928711 C1.90441128 27.85099434 2.06645656 37.91244755 2 48 C-3.48334861 38.80293527 -1.00014014 24.376846 -0.5625 14.125 C-0.50906618 12.74351646 -0.45632879 11.3620058 -0.40429688 9.98046875 C-0.27632944 6.65331553 -0.14146879 3.32660174 0 0 Z " fill="#3D3F3D" transform="translate(245,465)"/>
<path d="M0 0 C9.24 0 18.48 0 28 0 C28.33 0.66 28.66 1.32 29 2 C19.1 2.33 9.2 2.66 -1 3 C-0.67 2.01 -0.34 1.02 0 0 Z " fill="#2F302F" transform="translate(319,339)"/>
<path d="M0 0 C0 6.10857634 -6.6733643 12.62946551 -10.86328125 16.8984375 C-14.4757948 20 -14.4757948 20 -17 20 C-17 19.34 -17 18.68 -17 18 C-15.85423404 16.95244255 -14.6560644 15.96190283 -13.4375 15 C-9.26248401 11.48497765 -6.40639418 7.59775104 -3.4453125 3.0390625 C-2 1 -2 1 0 0 Z " fill="#080909" transform="translate(590,494)"/>
<path d="M0 0 C3.63 0 7.26 0 11 0 C10.71926927 2.14729141 10.42511501 4.29283193 10.125 6.4375 C9.96257813 7.63246094 9.80015625 8.82742188 9.6328125 10.05859375 C9.31957031 11.51458984 9.31957031 11.51458984 9 13 C8.01 13.495 8.01 13.495 7 14 C7.33 10.04 7.66 6.08 8 2 C5.36 2 2.72 2 0 2 C0 1.34 0 0.68 0 0 Z " fill="#050505" transform="translate(607,457)"/>
<path d="M0 0 C2.67927341 4.01891012 2.15601248 6.24161923 2 11 C-1.3 11 -4.6 11 -8 11 C-8.33 9.02 -8.66 7.04 -9 5 C-8.01 5.495 -8.01 5.495 -7 6 C-7 6.99 -7 7.98 -7 9 C-4.69 9 -2.38 9 0 9 C0 6.03 0 3.06 0 0 Z " fill="#040505" transform="translate(800,409)"/>
<path d="M0 0 C0.66 0 1.32 0 2 0 C0.55097031 3.31419098 -1.2680214 5.56592592 -3.8125 8.125 C-4.81216797 9.14980469 -4.81216797 9.14980469 -5.83203125 10.1953125 C-8.13135285 12.10934237 -10.18134751 13.04569183 -13 14 C-13 13.34 -13 12.68 -13 12 C-11.171875 10.44921875 -11.171875 10.44921875 -8.75 8.6875 C-5.25821243 6.06728892 -2.64609812 3.49284952 0 0 Z " fill="#080808" transform="translate(703,719)"/>
<path d="M0 0 C0.84691406 0.33064453 0.84691406 0.33064453 1.7109375 0.66796875 C-0.03749368 1.79540541 -1.7878719 2.91982295 -3.5390625 4.04296875 C-4.51359375 4.66945313 -5.488125 5.2959375 -6.4921875 5.94140625 C-8.72427865 7.31931727 -10.91993672 8.55109517 -13.2890625 9.66796875 C-11.84369463 6.10117385 -10.09165304 4.48265976 -6.9140625 2.35546875 C-6.14320313 1.82308594 -5.37234375 1.29070312 -4.578125 0.7421875 C-2.2890625 -0.33203125 -2.2890625 -0.33203125 0 0 Z " fill="#0A0B0A" transform="translate(266.2890625,358.33203125)"/>
<path d="M0 0 C1.47726562 0.30550781 1.47726562 0.30550781 2.984375 0.6171875 C4.10585938 0.86855469 4.10585938 0.86855469 5.25 1.125 C5.58 2.115 5.91 3.105 6.25 4.125 C0.97 3.135 -4.31 2.145 -9.75 1.125 C-5.37548685 -1.06225657 -4.54339195 -0.97358399 0 0 Z " fill="#202221" transform="translate(355.75,351.875)"/>
<path d="M0 0 C4.66666667 4.66666667 9.33333333 9.33333333 14 14 C10.2954183 14 9.36907694 12.75902467 6.82617188 10.23632812 C6.32666016 9.72521484 5.82714844 9.21410156 5.3125 8.6875 C4.80138672 8.18798828 4.29027344 7.68847656 3.76367188 7.17382812 C0 3.38000668 0 3.38000668 0 0 Z " fill="#020303" transform="translate(442,700)"/>
<path d="M0 0 C0.33 0 0.66 0 1 0 C2.45780584 6.01344909 2.74225803 11.34409281 0 17 C-0.33 17 -0.66 17 -1 17 C-0.67 11.39 -0.34 5.78 0 0 Z " fill="#232423" transform="translate(565,372)"/>
<path d="M0 0 C0.66 0.33 1.32 0.66 2 1 C0.02 5.29 -1.96 9.58 -4 14 C-4.66 13.34 -5.32 12.68 -6 12 C-4.02 8.04 -2.04 4.08 0 0 Z " fill="#1A1A1A" transform="translate(548,623)"/>
<path d="M0 0 C4.29238623 1.65091778 6.8793915 4.73754566 10 8 C9.67 8.66 9.34 9.32 9 10 C7.49410612 8.71520959 5.99542625 7.42195918 4.5 6.125 C3.6646875 5.40570312 2.829375 4.68640625 1.96875 3.9453125 C1.3190625 3.30335938 0.669375 2.66140625 0 2 C0 1.34 0 0.68 0 0 Z " fill="#171817" transform="translate(240,584)"/>
<path d="M0 0 C0.33 0.99 0.66 1.98 1 3 C-0.43359375 5.48046875 -0.43359375 5.48046875 -2.4375 8.1875 C-3.09621094 9.08855469 -3.75492188 9.98960937 -4.43359375 10.91796875 C-5.20896484 11.94857422 -5.20896484 11.94857422 -6 13 C-6.66 12.67 -7.32 12.34 -8 12 C-5.36 8.04 -2.72 4.08 0 0 Z " fill="#090A0A" transform="translate(532,370)"/>
<path d="M0 0 C3.43950364 0.61198376 5.51564485 1.92058847 8.25 4.0625 C8.95640625 4.61035156 9.6628125 5.15820312 10.390625 5.72265625 C11.18726563 6.35494141 11.18726563 6.35494141 12 7 C11.01 7.33 10.02 7.66 9 8 C6.73828125 6.6015625 6.73828125 6.6015625 4.3125 4.625 C3.50425781 3.97789062 2.69601562 3.33078125 1.86328125 2.6640625 C1.24839844 2.11492188 0.63351562 1.56578125 0 1 C0 0.67 0 0.34 0 0 Z " fill="#0A0A0B" transform="translate(475,709)"/>
<path d="M0 0 C4.2742558 1.5830577 6.26531794 4.50568404 9 8 C4.75153925 7.52794881 2.73180712 5.11122478 0 2 C0 1.34 0 0.68 0 0 Z " fill="#202221" transform="translate(467,700)"/>
<path d="M0 0 C4.29 0.33 8.58 0.66 13 1 C13 1.33 13 1.66 13 2 C11.20909747 2.19466332 9.41723495 2.38051213 7.625 2.5625 C6.12839844 2.71912109 6.12839844 2.71912109 4.6015625 2.87890625 C2 3 2 3 0 2 C0 1.34 0 0.68 0 0 Z " fill="#1B1C1C" transform="translate(433,523)"/>
<path d="M0 0 C1.32 0.33 2.64 0.66 4 1 C1.69 3.31 -0.62 5.62 -3 8 C-3.33 7.01 -3.66 6.02 -4 5 C-2.0625 2.3125 -2.0625 2.3125 0 0 Z " fill="#1B1D1C" transform="translate(421,281)"/>
<path d="M0 0 C0.66 0 1.32 0 2 0 C1.814375 0.78375 1.62875 1.5675 1.4375 2.375 C0.74037734 4.97089775 0.74037734 4.97089775 2 7 C-0.475 8.485 -0.475 8.485 -3 10 C-2.01 6.7 -1.02 3.4 0 0 Z " fill="#1E1F1E" transform="translate(213,422)"/>
<path d="M0 0 C-0.99 1.485 -0.99 1.485 -2 3 C-4.97 2.67 -7.94 2.34 -11 2 C-11 1.67 -11 1.34 -11 1 C-7.27569643 0.30710631 -3.78916254 -0.11144596 0 0 Z " fill="#1A1B1B" transform="translate(626,749)"/>
<path d="M0 0 C2.12038635 2.61514317 4.13091744 5.19637616 6 8 C5.67 8.99 5.34 9.98 5 11 C3.02 8.03 1.04 5.06 -1 2 C-0.67 1.34 -0.34 0.68 0 0 Z " fill="#090B0B" transform="translate(507,715)"/>
<path d="M0 0 C7.66742597 5.96583144 7.66742597 5.96583144 9 11 C7.33333333 9.33333333 5.66666667 7.66666667 4 6 C3.236875 5.278125 2.47375 4.55625 1.6875 3.8125 C0 2 0 2 0 0 Z " fill="#080808" transform="translate(768,367)"/>
<path d="M0 0 C0.66 0 1.32 0 2 0 C1.43454163 3.95820859 0.19097652 6.6659053 -2 10 C-3 8 -3 8 -2.44140625 6.0546875 C-2.15136719 5.33539062 -1.86132812 4.61609375 -1.5625 3.875 C-1.27503906 3.15054688 -0.98757813 2.42609375 -0.69140625 1.6796875 C-0.46324219 1.12539063 -0.23507812 0.57109375 0 0 Z " fill="#1B1C1B" transform="translate(507,652)"/>
<path d="M0 0 C0.66 0.33 1.32 0.66 2 1 C-0.31 3.97 -2.62 6.94 -5 10 C-5.33 9.34 -5.66 8.68 -6 8 C-4.768606 4.30581799 -2.79208646 2.64890254 0 0 Z " fill="#080909" transform="translate(457,477)"/>
<path d="M0 0 C0 3.99904969 -1.72586967 5.80200422 -4 9 C-4.66 8.34 -5.32 7.68 -6 7 C-2.25 1.125 -2.25 1.125 0 0 Z " fill="#080909" transform="translate(419,470)"/>
<path d="M0 0 C3.36720387 1.39332574 4.9859524 2.9789286 7 6 C3.75791433 5.64950425 2.38472296 5.43778819 0.1875 2.9375 C-0.4003125 1.9784375 -0.4003125 1.9784375 -1 1 C-0.67 0.67 -0.34 0.34 0 0 Z " fill="#191A19" transform="translate(639,722)"/>
<path d="M0 0 C0.66 0 1.32 0 2 0 C0.8141763 3.37503669 -0.27573689 5.64722731 -3 8 C-3.33 7.34 -3.66 6.68 -4 6 C-2.7260411 3.96166576 -1.38938077 1.96147874 0 0 Z " fill="#08090A" transform="translate(519,325)"/>
<path d="M0 0 C2.46800047 1.15173355 4.04783565 2.04783565 6 4 C5.67 4.99 5.34 5.98 5 7 C3.29115995 5.37660195 1.62553283 3.70680947 0 2 C0 1.34 0 0.68 0 0 Z " fill="#222322" transform="translate(696,663)"/>
</svg>
